<?xml version="1.0" encoding="UTF-8"?>
<svg width="1504px" height="664px" viewBox="0 0 1504 664" version="1.1" xmlns="http://www.w3.org/2000/svg" xmlns:xlink="http://www.w3.org/1999/xlink">
    <title>02E57C93-43FE-447C-8C83-1D2BDCCADEC3</title>
    <g id="Page-1" stroke="none" stroke-width="1" fill="none" fill-rule="evenodd" opacity="0.220583961">
        <g id="Index-White" transform="translate(-208, -1029)" stroke="#FFFFFF">
            <g id="Rectangle-5" transform="translate(0, 1132)">
                <g id="Logo" transform="translate(209, -103)">
                    <path d="M1148.64819,133.577343 L1130.57182,235.703149 L1248.94041,235.703149 L1197.04672,530.422017 L1314.24601,530.422017 L1366.13969,235.703149 L1483.92683,235.703149 L1502,133.577343 L1148.64819,133.577343 Z M529.738589,270.803818 C519.54707,248.167818 497.831784,233.957564 465.308376,233.957564 C406.999464,233.957564 364.431498,278.893814 354.521124,332 C345.189014,386.276518 373.178953,430.045634 430.321751,430.045634 C460.701426,430.045634 488.806379,415.662708 507.646314,393.196182 L636.80386,393.196182 C600.980189,480.38907 515.000821,538.592274 412.830036,538.592274 C288.049411,538.592274 214.577818,451.639208 235.567876,332 C256.561129,212.945958 360.933155,125.407726 486.298434,125.407726 C553.249371,125.407726 604.1271,150.400378 632.625018,192.167779 C579.891091,78.6872008 464.992087,0 331.71001,0 C148.51185,0 0,148.641683 0,332 C0,515.358317 148.51185,664 331.71001,664 C514.908171,664 663.420021,515.358317 663.420021,332 C663.420021,311.090718 661.467977,290.641895 657.774749,270.803818 L529.738589,270.803818 Z M914.587951,233.956924 C947.114554,233.956924 968.82984,248.167178 979.018165,270.803178 L1107.37381,270.803178 C1102.50169,183.607093 1037.75199,125.407087 935.578009,125.407087 C810.215925,125.407087 705.843899,212.948516 684.850646,331.99936 C663.860588,451.638568 737.328987,538.594832 862.109611,538.594832 C964.283591,538.594832 1050.26296,480.391628 1086.08663,393.195543 L956.929084,393.195543 C938.085954,415.662069 909.981001,430.044994 879.601326,430.044994 C822.461723,430.044994 794.471784,386.275878 803.800699,331.99936 C813.714268,278.893174 856.279039,233.956924 914.587951,233.956924" id="Combined-Shape"></path>
                </g>
            </g>
        </g>
    </g>
</svg>