<?xml version="1.0" encoding="UTF-8"?>
<svg width="60px" height="60px" viewBox="0 0 60 60" version="1.1" xmlns="http://www.w3.org/2000/svg" xmlns:xlink="http://www.w3.org/1999/xlink">
    <title>Group 3</title>
    <defs>
        <polygon id="path-1" points="0 0 60 0 60 59.7398413 0 59.7398413"></polygon>
    </defs>
    <g id="Page-1" stroke="none" stroke-width="1" fill="none" fill-rule="evenodd">
        <g id="Service:-CYLINDER-TESTING" transform="translate(-931, -1210)">
            <g id="Group-3" transform="translate(931, 1210)">
                <mask id="mask-2" fill="white">
                    <use xlink:href="#path-1"></use>
                </mask>
                <g id="Clip-2"></g>
                <path d="M55.7321871,16.6621159 C54.6774604,16.6621159 53.8191174,15.8037729 53.8191174,14.7490462 C53.8191174,13.6943196 54.6774604,12.8359766 55.7321871,12.8359766 C56.7869138,12.8359766 57.6452568,13.6943196 57.6452568,14.7490462 C57.6452568,15.8037729 56.7869138,16.6621159 55.7321871,16.6621159 L55.7321871,16.6621159 Z M41.8830731,8.07724063 C42.0048418,8.07724063 42.1040273,8.17642613 42.1040273,8.29819485 L42.1040273,12.4571205 L37.8697641,12.4571205 L37.8697641,8.29819485 C37.8697641,8.17642613 37.9689496,8.07724063 38.0901763,8.07724063 L41.8830731,8.07724063 Z M44.4582828,14.8119179 L44.6850183,14.8119179 C46.3484079,14.8119179 47.7015944,16.1651044 47.7015944,17.828494 L47.7015944,25.0012857 L32.2718357,25.0012857 L32.2718357,17.828494 C32.2718357,16.1651044 33.6250222,14.8119179 35.2884118,14.8119179 L35.5149667,14.8119179 L44.4582828,14.8119179 Z M32.2718357,43.5921531 L47.7015944,43.5921531 L47.7015944,27.3555412 L32.2718357,27.3555412 L32.2718357,43.5921531 Z M47.7015944,54.3685039 C47.7015944,56.0324355 46.3484079,57.3854414 44.6850183,57.3854414 L35.2884118,57.3854414 C33.6250222,57.3854414 32.2718357,56.0324355 32.2718357,54.3685039 L32.2718357,45.9465892 L47.7015944,45.9465892 L47.7015944,54.3685039 Z M14.805974,8.07724063 C14.9277427,8.07724063 15.0269282,8.17642613 15.0269282,8.29819485 L15.0269282,12.4571205 L10.792665,12.4571205 L10.792665,8.29819485 C10.792665,8.17642613 10.8918505,8.07724063 11.0136192,8.07724063 L14.805974,8.07724063 Z M17.3813643,14.8119179 L17.6079192,14.8119179 C19.2713088,14.8119179 20.6248566,16.1651044 20.6248566,17.828494 L20.6248566,25.0012857 L5.1947366,25.0012857 L5.1947366,17.828494 C5.1947366,16.1651044 6.5479231,14.8119179 8.21131269,14.8119179 L8.43840954,14.8119179 L17.3813643,14.8119179 Z M5.1947366,43.5921531 L20.6248566,43.5921531 L20.6248566,27.3555412 L5.1947366,27.3555412 L5.1947366,43.5921531 Z M20.6248566,54.3685039 C20.6248566,56.0324355 19.2713088,57.3854414 17.6079192,57.3854414 L8.21131269,57.3854414 C6.5479231,57.3854414 5.1947366,56.0324355 5.1947366,54.3685039 L5.1947366,45.9465892 L20.6248566,45.9465892 L20.6248566,54.3685039 Z M56.948971,10.6603996 C57.1287334,7.77896147 57.7541982,3.06846329 54.6725825,2.25185408 C52.7475889,1.74147333 50.3091432,2.14291263 48.3548817,2.14291263 L41.1638428,2.14291263 L41.1638428,1.13732705 C41.1638428,-0.377916623 38.8095873,-0.380445943 38.8095873,1.13732705 L38.8095873,2.14291263 L20.8241309,2.14291263 L14.0872856,2.14291263 L14.0872856,1.13732705 C14.0872856,-0.377916623 11.7324882,-0.380445943 11.7324882,1.13732705 L11.7324882,5.7229852 L11.0136192,5.7229852 C9.59322503,5.7229852 8.43840954,6.8778007 8.43840954,8.29819485 L8.43840954,12.4571205 L8.21131269,12.4571205 C5.24965899,12.4571205 2.84048117,14.8668403 2.84048117,17.828494 L2.84048117,25.0012857 L1.13716445,25.0012857 C-0.377898556,25.0012857 -0.380247211,27.3555412 1.13716445,27.3555412 L2.84048117,27.3555412 L2.84048117,43.5921531 L1.13716445,43.5921531 C-0.377898556,43.5921531 -0.380247211,45.9465892 1.13716445,45.9465892 L2.84048117,45.9465892 L2.84048117,54.3685039 C2.84048117,57.3306996 5.24965899,59.7398774 8.21131269,59.7398774 L17.6079192,59.7398774 C20.5699342,59.7398774 22.9792927,57.3306996 22.9792927,54.3685039 L22.9792927,45.9465892 L24.6824287,45.9465892 C26.1976724,45.9465892 26.1998404,43.5921531 24.6824287,43.5921531 L22.9792927,43.5921531 L22.9792927,27.3555412 L24.6824287,27.3555412 C26.1976724,27.3555412 26.1998404,25.0012857 24.6824287,25.0012857 L22.9792927,25.0012857 L22.9792927,17.828494 C22.9792927,14.8668403 20.5699342,12.4571205 17.6079192,12.4571205 L17.3813643,12.4571205 L17.3813643,8.29819485 C17.3813643,6.8778007 16.2265488,5.7229852 14.805974,5.7229852 L14.0872856,5.7229852 L14.0872856,4.49734873 L38.1313681,4.49734873 L38.8095873,4.49734873 L38.8095873,5.7229852 L38.0901763,5.7229852 C36.6703241,5.7229852 35.5149667,6.8778007 35.5149667,8.29819485 L35.5149667,12.4571205 L35.2884118,12.4571205 C32.3267581,12.4571205 29.9170383,14.8668403 29.9170383,17.828494 L29.9170383,25.0012857 L28.2142636,25.0012857 C26.6992006,25.0012857 26.6964906,27.3555412 28.2142636,27.3555412 L29.9170383,27.3555412 L29.9170383,43.5921531 L28.2142636,43.5921531 C26.6992006,43.5921531 26.6964906,45.9465892 28.2142636,45.9465892 L29.9170383,45.9465892 L29.9170383,54.3685039 C29.9170383,57.3306996 32.3267581,59.7398774 35.2884118,59.7398774 L44.6850183,59.7398774 C47.646672,59.7398774 50.0563918,57.3306996 50.0563918,54.3685039 L50.0563918,45.9465892 L51.7591665,45.9465892 C53.2742295,45.9465892 53.2769395,43.5921531 51.7591665,43.5921531 L50.0563918,43.5921531 L50.0563918,27.3555412 L51.7591665,27.3555412 C53.2742295,27.3555412 53.2769395,25.0012857 51.7591665,25.0012857 L50.0563918,25.0012857 L50.0563918,17.828494 C50.0563918,14.8668403 47.646672,12.4571205 44.6850183,12.4571205 L44.4582828,12.4571205 L44.4582828,8.29819485 C44.4582828,6.8778007 43.3031059,5.7229852 41.8830731,5.7229852 L41.1638428,5.7229852 L41.1638428,4.49734873 L51.8897879,4.49734873 C52.8780295,4.49734873 54.0798181,4.14324385 54.5551497,5.18478192 C54.9146746,5.97338793 54.5551497,7.7735415 54.5551497,8.63405248 L54.5551497,10.6502823 C52.7732434,11.163373 51.464862,12.8045407 51.464862,14.7490462 C51.464862,17.102037 53.3791963,19.0169133 55.7321871,19.0169133 C58.0851779,19.0169133 60.0000542,17.102037 60.0000542,14.7490462 C60.0000542,12.8191747 58.7106427,11.1857756 56.948971,10.6603996 L56.948971,10.6603996 Z" id="Fill-1" fill="#FFFFFF" mask="url(#mask-2)"></path>
            </g>
        </g>
    </g>
</svg>