<?xml version="1.0" encoding="UTF-8"?>
<svg width="138px" height="175px" viewBox="0 0 138 175" version="1.1" xmlns="http://www.w3.org/2000/svg" xmlns:xlink="http://www.w3.org/1999/xlink">
    <title>bcga member logo copy</title>
    <g id="Page-1" stroke="none" stroke-width="1" fill="none" fill-rule="evenodd">
        <g id="Accreditations" transform="translate(-393, -1145)" fill="#0B0F17" fill-rule="nonzero">
            <g id="bcga-member-logo-copy" transform="translate(393, 1145)">
                <path d="M53.8125367,42.3238959 C49.7992714,42.3238959 46.3825041,46.2139469 46.3825041,50.8042776 C46.3825041,55.3944673 49.4686347,58.9603592 53.6115918,58.9603592 C57.9554939,58.9603592 61.0416643,55.5371143 61.0416643,50.6745857 C61.0545796,45.9416082 57.9035327,42.3238959 53.8125367,42.3238959 Z" id="Path"></path>
                <path d="M89.9447388,77.9245163 C85.937951,77.9245163 83.098249,81.4060592 83.098249,86.2750653 C83.098249,90.9432673 86.0611653,94.5609796 89.8799633,94.5609796 C93.6986204,94.5609796 96.9144429,90.7421816 96.9144429,86.1325592 C96.9144429,81.2763673 94.0098245,77.9245163 89.9447388,77.9245163 Z" id="Path"></path>
                <path d="M52.9631327,78.4496204 C48.6906245,78.4496204 45.7277082,81.4773122 45.7277082,85.8796531 C45.7277082,90.4180224 48.7554,93.6597551 53.0928245,93.6597551 C54.1468347,93.6720061 55.1921143,93.4683857 56.164451,93.0614265 C57.1367878,92.6544673 58.0154816,92.0527592 58.7464592,91.2933367 C59.6022,90.3012857 60.0432028,88.790749 60.0432028,86.8845184 C60.0625286,81.6070041 57.430249,78.4496204 52.9631327,78.4496204 Z" id="Path"></path>
                <path d="M127.140245,11.9165676 C127.140245,11.9165676 103.57942,0 69.1523633,0 C34.7253061,0 11.4951324,11.9165676 11.4951324,11.9165676 C11.4951324,11.9165676 0,36.6963122 0,69.2431898 C0,101.789927 11.4951324,125.720394 11.4951324,125.720394 C11.4951324,125.720394 39.0303429,138 69.1523633,138 C99.2743837,138 127.140245,125.415667 127.140245,125.415667 C127.140245,125.415667 138,103.086704 138,69.2431898 C138,35.3995347 127.140245,11.9165676 127.140245,11.9165676 Z M69.9238959,97.8998755 C69.9238959,104.603859 68.8087714,108.351263 65.8458551,111.31418 C62.7597245,114.40031 57.9619714,116.176708 52.5677204,116.176708 C46.7100429,116.253312 41.0600694,114.0087 36.8519143,109.933194 L42.9009612,103.735022 C44.0325612,105.047853 45.4365,106.098624 47.0151918,106.813971 C48.5938837,107.529459 50.309449,107.892484 52.0426163,107.87798 C57.1710061,107.87798 60.1922204,104.726933 60.1922204,99.397598 L60.1922204,97.8998755 C57.5016429,100.921231 54.0134816,102.438386 49.6760571,102.438386 C47.5590245,102.428388 45.4693102,101.959469 43.5508286,101.064018 C41.6323469,100.168567 39.9308633,98.8679878 38.5635367,97.2515571 C36.3266694,94.5609796 35.0753755,90.6774061 35.0753755,86.3399816 C35.0753755,76.3424449 41.3902837,69.638602 50.7913224,69.638602 C54.8693633,69.638602 57.7610265,70.9352388 60.1922204,73.911251 L60.1922204,70.8251204 L69.9174184,70.8251204 L69.9238959,97.8998755 Z M56.3086469,66.8377653 C51.8415306,66.8377653 49.0797,65.5864714 46.5121959,62.3641714 L46.5121959,65.6512469 L36.5342327,65.6512469 L36.5342327,21.8103367 L46.525151,21.8103367 L46.525151,38.2523327 C49.351898,35.2309776 52.0490939,34.0446 55.9909653,34.0446 C58.1192633,34.0519224 60.2251714,34.4794408 62.1878694,35.3027939 C64.1504265,36.1261469 65.9311898,37.329 67.4277857,38.8423531 C70.1897571,41.6691 71.700299,45.8119163 71.700299,50.6096694 C71.7067714,60.4062612 65.592949,66.8507204 56.321602,66.8507204 L56.3086469,66.8377653 Z M106.146924,101.251867 L96.784751,101.251867 L96.784751,97.8351 C95.6586429,99.322402 94.1914776,100.517088 92.506751,101.318192 C90.8220245,102.119296 88.9693041,102.503584 87.1050367,102.438386 C78.9682469,102.438386 73.1138082,95.7928408 73.1138082,86.4567184 C73.1138082,76.7315204 79.3378898,69.5997367 87.9089571,69.5997367 C91.546102,69.5997367 94.0098245,70.8510306 96.784751,74.0733306 L96.784751,70.7862551 L106.15988,70.7862551 L106.146924,101.251867 Z M99.1446918,45.2803347 C98.3635837,44.4914816 97.4303939,43.8692143 96.4018714,43.4512714 C95.3732082,43.0333286 94.2706163,42.8285816 93.1605612,42.849 C92.1737204,42.8273143 91.1925122,43.003898 90.2750939,43.3681898 C89.3576755,43.7324816 88.5227755,44.2771592 87.8196796,44.9699755 C87.1165837,45.6627918 86.5596551,46.4896653 86.1818449,47.4015918 C85.8040347,48.3135184 85.6130878,49.292051 85.6202694,50.2790327 C85.6202694,54.687851 89.0694245,58.0591347 93.7245306,58.0591347 C95.6242837,58.0591347 96.9662633,57.5340306 99.1446918,55.8871837 L105.563382,62.3317837 C102.012557,65.3613061 97.4702449,66.9768918 92.8040143,66.8701531 C88.0113306,66.893951 83.3724184,65.1802163 79.7462571,62.0464898 C76.5045245,59.2197429 74.8189531,55.2129551 74.8189531,50.6096694 C74.8189531,40.9429102 82.287851,34.0381224 92.6417939,34.0381224 C97.6471102,34.0381224 101.666853,35.6200531 106.257043,39.2960633 L99.1446918,45.2803347 Z" id="Shape"></path>
                <g id="MEMBER" transform="translate(15.7179, 160.8122)">
                    <polygon id="Path" points="12.558 13.8 12.5382857 5.52 8.47714286 12.3411429 7.038 12.3411429 2.99657143 5.69742857 2.99657143 13.8 0 13.8 0 0 2.64171429 0 7.80685714 8.57571429 12.8931429 0 15.5151429 0 15.5545714 13.8"></polygon>
                    <polygon id="Path" points="32.3286122 11.2371429 32.3286122 13.8 21.6434694 13.8 21.6434694 0 32.0723265 0 32.0723265 2.56285714 24.8174694 2.56285714 24.8174694 5.55942857 31.2246122 5.55942857 31.2246122 8.04342857 24.8174694 8.04342857 24.8174694 11.2371429"></polygon>
                    <polygon id="Path" points="50.2460816 13.8 50.2263673 5.52 46.1652245 12.3411429 44.7260816 12.3411429 40.6846531 5.69742857 40.6846531 13.8 37.6880816 13.8 37.6880816 0 40.3297959 0 45.4949388 8.57571429 50.5812245 0 53.2032245 0 53.2426531 13.8"></polygon>
                    <path d="M69.4646939,6.624 C70.2532653,6.87371429 70.8709796,7.291 71.3178367,7.87585714 C71.7646939,8.46071429 71.9881224,9.18028571 71.9881224,10.0345714 C71.9881224,11.2437143 71.5182653,12.1735714 70.578551,12.8241429 C69.6388367,13.4747143 68.2686939,13.8 66.4681224,13.8 L59.331551,13.8 L59.331551,0 L66.0738367,0 C67.7561224,0 69.0474082,0.322 69.9476939,0.966 C70.8479796,1.61 71.2981224,2.484 71.2981224,3.588 C71.2981224,4.25828571 71.1371224,4.85628571 70.8151224,5.382 C70.4931224,5.90771429 70.0429796,6.32171429 69.4646939,6.624 Z M62.505551,2.40514286 L62.505551,5.658 L65.679551,5.658 C66.4681224,5.658 67.0661224,5.52 67.473551,5.244 C67.8809796,4.968 68.0846939,4.56057143 68.0846939,4.02171429 C68.0846939,3.48285714 67.8809796,3.07871429 67.473551,2.80928571 C67.0661224,2.53985714 66.4681224,2.40514286 65.679551,2.40514286 L62.505551,2.40514286 Z M66.231551,11.3948571 C67.0726939,11.3948571 67.7068367,11.2568571 68.1339796,10.9808571 C68.5611224,10.7048571 68.7746939,10.2777143 68.7746939,9.69942857 C68.7746939,8.556 67.9269796,7.98428571 66.231551,7.98428571 L62.505551,7.98428571 L62.505551,11.3948571 L66.231551,11.3948571 Z" id="Shape"></path>
                    <polygon id="Path" points="87.914449 11.2371429 87.914449 13.8 77.2293061 13.8 77.2293061 0 87.6581633 0 87.6581633 2.56285714 80.4033061 2.56285714 80.4033061 5.55942857 86.810449 5.55942857 86.810449 8.04342857 80.4033061 8.04342857 80.4033061 11.2371429"></polygon>
                    <path d="M102.06649,13.8 L99.4050612,9.95571429 L99.2473469,9.95571429 L96.4676327,9.95571429 L96.4676327,13.8 L93.2739184,13.8 L93.2739184,0 L99.2473469,0 C100.469633,0 101.530918,0.203714286 102.431204,0.611142857 C103.33149,1.01857143 104.024776,1.59685714 104.511061,2.346 C104.997347,3.09514286 105.24049,3.98228571 105.24049,5.00742857 C105.24049,6.03257143 104.994061,6.91642857 104.501204,7.659 C104.008347,8.40157143 103.30849,8.97 102.401633,9.36428571 L105.496776,13.8 L102.06649,13.8 Z M102.007347,5.00742857 C102.007347,4.232 101.757633,3.63728571 101.258204,3.22328571 C100.758776,2.80928571 100.029347,2.60228571 99.0699184,2.60228571 L96.4676327,2.60228571 L96.4676327,7.41257143 L99.0699184,7.41257143 C100.029347,7.41257143 100.758776,7.20228571 101.258204,6.78171429 C101.757633,6.36114286 102.007347,5.76971429 102.007347,5.00742857 Z" id="Shape"></path>
                </g>
            </g>
        </g>
    </g>
</svg>