<?xml version="1.0" encoding="UTF-8"?>
<svg width="68px" height="87px" viewBox="0 0 68 87" version="1.1" xmlns="http://www.w3.org/2000/svg" xmlns:xlink="http://www.w3.org/1999/xlink">
    <title>bcga member logo</title>
    <g id="Page-1" stroke="none" stroke-width="1" fill="none" fill-rule="evenodd">
        <g id="Index-White" transform="translate(-1435, -1800)" fill="#0B0F17" fill-rule="nonzero">
            <g id="bcga-member-logo" transform="translate(1435, 1800)">
                <path d="M26.5163224,20.8552531 C24.5387714,20.8552531 22.8551469,22.7720898 22.8551469,25.0339918 C22.8551469,27.2958245 24.375849,29.0529306 26.4173061,29.0529306 C28.5577796,29.0529306 30.0785012,27.3661143 30.0785012,24.9700857 C30.0848653,22.6378939 28.5321755,20.8552531 26.5163224,20.8552531 Z" id="Path"></path>
                <path d="M44.3205959,38.3975878 C42.3462367,38.3975878 40.9469633,40.1131306 40.9469633,42.512351 C40.9469633,44.8126245 42.406951,46.5952653 44.2886776,46.5952653 C46.1703347,46.5952653 47.7549429,44.7135388 47.7549429,42.4421306 C47.7549429,40.0492245 46.3236816,38.3975878 44.3205959,38.3975878 Z" id="Path"></path>
                <path d="M26.0977755,38.6563347 C23.9924816,38.6563347 22.5324939,40.1482408 22.5324939,42.3175102 C22.5324939,44.5538082 24.0244,46.1511837 26.1616816,46.1511837 C26.681049,46.1572204 27.1961143,46.0568857 27.6752367,45.8563551 C28.1543592,45.6558245 28.5873388,45.3593306 28.9475306,44.9851224 C29.3692,44.4962857 29.5865057,43.7519633 29.5865057,42.8126612 C29.5960286,40.2121469 28.2989633,38.6563347 26.0977755,38.6563347 Z" id="Path"></path>
                <path d="M62.6488163,5.87193184 C62.6488163,5.87193184 51.0391347,0 34.0750776,0 C17.1110204,0 5.66426816,5.87193184 5.66426816,5.87193184 C5.66426816,5.87193184 0,18.0822408 0,34.1198327 C0,50.1573551 5.66426816,61.9491796 5.66426816,61.9491796 C5.66426816,61.9491796 19.2323429,68 34.0750776,68 C48.9178122,68 62.6488163,61.7990245 62.6488163,61.7990245 C62.6488163,61.7990245 68,50.7963469 68,34.1198327 C68,17.443249 62.6488163,5.87193184 62.6488163,5.87193184 Z M34.4552531,48.2405184 C34.4552531,51.5439306 33.9057714,53.3904776 32.4457837,54.8504653 C30.9250816,56.3711673 28.5609714,57.2464939 25.9029347,57.2464939 C23.0165429,57.2842408 20.232498,56.1782 18.1589143,54.1699796 L21.1396041,51.1158082 C21.6972041,51.7627102 22.389,52.2804816 23.1669061,52.6329714 C23.9448122,52.9855306 24.7901633,53.1644122 25.6441878,53.1572653 C28.1712204,53.1572653 29.6599347,51.6045755 29.6599347,48.9785265 L29.6599347,48.2405184 C28.3341429,49.729302 26.6153388,50.4768857 24.4780571,50.4768857 C23.4348816,50.4719592 22.4051673,50.240898 21.4598286,49.7996612 C20.5144898,49.3584245 19.6760776,48.7175592 19.0023224,47.9210571 C17.900098,46.5952653 17.2835184,44.6816204 17.2835184,42.5443388 C17.2835184,37.6180163 20.3952122,34.3146735 25.0276082,34.3146735 C27.0370776,34.3146735 28.4619551,34.9535959 29.6599347,36.4200367 L29.6599347,34.8993347 L34.4520612,34.8993347 L34.4552531,48.2405184 Z M27.7462898,32.934551 C25.545102,32.934551 24.1842,32.3179714 22.9190531,30.7301714 L22.9190531,32.3498898 L18.0023755,32.3498898 L18.0023755,10.7471224 L22.9254367,10.7471224 L22.9254367,18.8489755 C24.3183265,17.3601918 25.6473796,16.7756 27.589751,16.7756 C28.6384776,16.7792082 29.6761714,16.9898694 30.643298,17.3955796 C31.6103551,17.8012898 32.4878327,18.394 33.2252857,19.1397102 C34.5862571,20.5326 35.3305821,22.5739878 35.3305821,24.938098 C35.3337714,29.7654041 32.3211633,32.9409347 27.7526735,32.9409347 L27.7462898,32.934551 Z M52.3042816,49.8922245 L47.6910367,49.8922245 L47.6910367,48.2086 C47.1361429,48.9414735 46.4131918,49.5301592 45.5830367,49.9249061 C44.7528816,50.3196531 43.8399469,50.5090122 42.9213224,50.4768857 C38.9118898,50.4768857 36.0270939,47.2022694 36.0270939,42.6018612 C36.0270939,37.8097347 39.0940327,34.2955224 43.3174571,34.2955224 C45.1096735,34.2955224 46.3236816,34.912102 47.6910367,36.499902 L47.6910367,34.8801837 L52.3106653,34.8801837 L52.3042816,49.8922245 Z M48.8539061,22.312049 C48.4690122,21.9233388 48.0091796,21.6167143 47.5023714,21.4107714 C46.9954939,21.2048286 46.4521878,21.1039388 45.9052041,21.114 C45.4189347,21.1033143 44.9354408,21.1903265 44.4833796,21.3698327 C44.0313184,21.5493388 43.6199184,21.8177306 43.2734653,22.1591184 C42.9270122,22.5005061 42.6525837,22.907951 42.4664163,23.3573061 C42.280249,23.8066612 42.1861592,24.2888367 42.189698,24.7751755 C42.189698,26.9476367 43.8892816,28.608849 46.183102,28.608849 C47.1192122,28.608849 47.7804776,28.350102 48.8539061,27.5386122 L52.0167388,30.7142122 C50.2670571,32.2070204 48.0288163,33.0031061 45.7295143,32.9505102 C43.367902,32.9622367 41.0820612,32.1177878 39.2952571,30.5736327 C37.6978816,29.1807429 36.8673102,27.2063837 36.8673102,24.938098 C36.8673102,20.1747673 40.5476367,16.7724082 45.6495796,16.7724082 C48.1159673,16.7724082 50.0967102,17.5519102 52.3585429,19.3632776 L48.8539061,22.312049 Z" id="Shape"></path>
                <g id="MEMBER" transform="translate(7.7451, 79.2408)">
                    <polygon id="Path" points="6.188 6.8 6.17828571 2.72 4.17714286 6.08114286 3.468 6.08114286 1.47657143 2.80742857 1.47657143 6.8 0 6.8 0 0 1.30171429 0 3.84685714 4.22571429 6.35314286 0 7.64514286 0 7.66457143 6.8"></polygon>
                    <polygon id="Path" points="15.9300408 5.53714286 15.9300408 6.8 10.664898 6.8 10.664898 0 15.8037551 0 15.8037551 1.26285714 12.228898 1.26285714 12.228898 2.73942857 15.3860408 2.73942857 15.3860408 3.96342857 12.228898 3.96342857 12.228898 5.53714286"></polygon>
                    <polygon id="Path" points="24.7589388 6.8 24.7492245 2.72 22.7480816 6.08114286 22.0389388 6.08114286 20.0475102 2.80742857 20.0475102 6.8 18.5709388 6.8 18.5709388 0 19.8726531 0 22.4177959 4.22571429 24.9240816 0 26.2160816 0 26.2355102 6.8"></polygon>
                    <path d="M34.2289796,3.264 C34.617551,3.38704762 34.921932,3.59266667 35.1421224,3.88085714 C35.3623129,4.16904762 35.4724082,4.52361905 35.4724082,4.94457143 C35.4724082,5.54038095 35.2408844,5.99857143 34.7778367,6.31914286 C34.3147891,6.63971429 33.6396463,6.8 32.7524082,6.8 L29.2358367,6.8 L29.2358367,0 L32.5581224,0 C33.3870748,0 34.0233605,0.158666667 34.4669796,0.476 C34.9105986,0.793333333 35.1324082,1.224 35.1324082,1.768 C35.1324082,2.09828571 35.0530748,2.39295238 34.8944082,2.652 C34.7357415,2.91104762 34.513932,3.11504762 34.2289796,3.264 Z M30.7998367,1.18514286 L30.7998367,2.788 L32.3638367,2.788 C32.7524082,2.788 33.0470748,2.72 33.2478367,2.584 C33.4485986,2.448 33.5489796,2.2472381 33.5489796,1.98171429 C33.5489796,1.71619048 33.4485986,1.51704762 33.2478367,1.38428571 C33.0470748,1.25152381 32.7524082,1.18514286 32.3638367,1.18514286 L30.7998367,1.18514286 Z M32.6358367,5.61485714 C33.0503129,5.61485714 33.3627891,5.54685714 33.5732653,5.41085714 C33.7837415,5.27485714 33.8889796,5.06438095 33.8889796,4.77942857 C33.8889796,4.216 33.4712653,3.93428571 32.6358367,3.93428571 L30.7998367,3.93428571 L30.7998367,5.61485714 L32.6358367,5.61485714 Z" id="Shape"></path>
                    <polygon id="Path" points="43.3201633 5.53714286 43.3201633 6.8 38.0550204 6.8 38.0550204 0 43.1938776 0 43.1938776 1.26285714 39.6190204 1.26285714 39.6190204 2.73942857 42.7761633 2.73942857 42.7761633 3.96342857 39.6190204 3.96342857 39.6190204 5.53714286"></polygon>
                    <path d="M50.2936327,6.8 L48.9822041,4.90571429 L48.9044898,4.90571429 L47.5347755,4.90571429 L47.5347755,6.8 L45.9610612,6.8 L45.9610612,0 L48.9044898,0 C49.5067755,0 50.0297279,0.100380952 50.4733469,0.301142857 C50.916966,0.501904762 51.258585,0.786857143 51.4982041,1.156 C51.7378231,1.52514286 51.8576327,1.96228571 51.8576327,2.46742857 C51.8576327,2.97257143 51.7362041,3.40809524 51.4933469,3.774 C51.2504898,4.13990476 50.9056327,4.42 50.4587755,4.61428571 L51.9839184,6.8 L50.2936327,6.8 Z M50.2644898,2.46742857 C50.2644898,2.08533333 50.1414422,1.79228571 49.8953469,1.58828571 C49.6492517,1.38428571 49.2898231,1.28228571 48.8170612,1.28228571 L47.5347755,1.28228571 L47.5347755,3.65257143 L48.8170612,3.65257143 C49.2898231,3.65257143 49.6492517,3.54895238 49.8953469,3.34171429 C50.1414422,3.13447619 50.2644898,2.84304762 50.2644898,2.46742857 Z" id="Shape"></path>
                </g>
            </g>
        </g>
    </g>
</svg>