<?xml version="1.0" encoding="UTF-8"?>
<svg width="38px" height="49px" viewBox="0 0 38 49" version="1.1" xmlns="http://www.w3.org/2000/svg" xmlns:xlink="http://www.w3.org/1999/xlink">
    <title>D83FD6D2-8C45-4DB5-AD49-231F358C7A42</title>
    <g id="Page-1" stroke="none" stroke-width="1" fill="none" fill-rule="evenodd">
        <g id="Index-White" transform="translate(-620, -2788)" fill="#FFFFFF" fill-rule="nonzero">
            <g id="Group-3" transform="translate(0, 2122)">
                <g id="bcga-member-logo" transform="translate(620, 666)">
                    <path d="M14.8179449,11.6544061 C13.7128429,11.6544061 12.7719939,12.7255796 12.7719939,13.9895837 C12.7719939,15.253549 13.621798,16.2354612 14.7626122,16.2354612 C15.9587592,16.2354612 16.8085742,15.2928286 16.8085742,13.9538714 C16.8121306,12.6505878 15.944451,11.6544061 14.8179449,11.6544061 Z" id="Path"></path>
                    <path d="M24.7673918,21.4574755 C23.6640735,21.4574755 22.8821265,22.4161612 22.8821265,23.756902 C22.8821265,25.042349 23.698002,26.0385306 24.7495551,26.0385306 C25.8010694,26.0385306 26.6865857,24.9869776 26.6865857,23.7176612 C26.6865857,22.380449 25.8867633,21.4574755 24.7673918,21.4574755 Z" id="Path"></path>
                    <path d="M14.584051,21.6020694 C13.4075633,21.6020694 12.5916878,22.4357816 12.5916878,23.6480204 C12.5916878,24.8977163 13.4254,25.7903673 14.6197633,25.7903673 C14.909998,25.7937408 15.1978286,25.7376714 15.4655735,25.6256102 C15.7333184,25.513549 15.9752776,25.3478612 16.1765612,25.1387449 C16.4122,24.8655714 16.5336355,24.4496265 16.5336355,23.9247224 C16.5389571,22.4714939 15.8141265,21.6020694 14.584051,21.6020694 Z" id="Path"></path>
                    <path d="M35.0096327,3.28137367 C35.0096327,3.28137367 28.5218694,0 19.0419551,0 C9.56204082,0 3.16532633,3.28137367 3.16532633,3.28137367 C3.16532633,3.28137367 0,10.1047816 0,19.0669653 C0,28.0291102 3.16532633,34.6186592 3.16532633,34.6186592 C3.16532633,34.6186592 10.7474857,38 19.0419551,38 C27.3364245,38 35.0096327,34.534749 35.0096327,34.534749 C35.0096327,34.534749 38,28.3861939 38,19.0669653 C38,9.74769796 35.0096327,3.28137367 35.0096327,3.28137367 Z M19.2544061,26.9579367 C19.2544061,28.8039612 18.9473429,29.8358551 18.1314673,30.6517306 C17.2816633,31.5015347 15.9605429,31.9906878 14.4751694,31.9906878 C12.8621857,32.0117816 11.3063959,31.3937 10.1476286,30.2714592 L11.8133082,28.5647163 C12.1249082,28.9262204 12.5115,29.2155633 12.9462122,29.4125429 C13.3809245,29.6095612 13.8533265,29.7095245 14.3305755,29.7055306 C15.7427408,29.7055306 16.5746694,28.837851 16.5746694,27.3703531 L16.5746694,26.9579367 C15.8337857,27.7899041 14.8732776,28.2076714 13.6789143,28.2076714 C13.0959633,28.2049184 12.5205347,28.0757959 11.9922571,27.8292224 C11.4639796,27.582649 10.9954551,27.2245184 10.6189449,26.7794143 C10.0029959,26.0385306 9.65843673,24.9691408 9.65843673,23.7747776 C9.65843673,21.0218327 11.3973245,19.1758469 13.9860163,19.1758469 C15.1089551,19.1758469 15.9052102,19.5328918 16.5746694,20.3523735 L16.5746694,19.5025694 L19.2526224,19.5025694 L19.2544061,26.9579367 Z M15.5052796,18.404602 C14.2752041,18.404602 13.5147,18.0600429 12.8077061,17.1727429 L12.8077061,18.0778796 L10.060151,18.0778796 L10.060151,6.0057449 L12.8112735,6.0057449 L12.8112735,10.533251 C13.5896531,9.70128367 14.3323592,9.3746 15.417802,9.3746 C16.0038551,9.37661633 16.5837429,9.49433878 17.1241959,9.72105918 C17.6646102,9.94777959 18.1549653,10.279 18.5670714,10.6957204 C19.3276143,11.4741 19.7435606,12.6148755 19.7435606,13.9359959 C19.7453429,16.6336082 18.0618265,18.4081694 15.5088469,18.4081694 L15.5052796,18.404602 Z M29.2288633,27.880949 L26.6508735,27.880949 L26.6508735,26.9401 C26.3407857,27.3496469 25.9367837,27.6786184 25.4728735,27.8992122 C25.0089633,28.1198061 24.4987939,28.2256245 23.9854449,28.2076714 C21.7448796,28.2076714 20.1327878,26.3777388 20.1327878,23.8069224 C20.1327878,21.1289694 21.8466653,19.1651449 24.2068143,19.1651449 C25.2083469,19.1651449 25.8867633,19.5097041 26.6508735,20.3970041 L26.6508735,19.4918673 L29.2324306,19.4918673 L29.2288633,27.880949 Z M27.3007122,12.468498 C27.0856245,12.2512776 26.8286592,12.0799286 26.5454429,11.9648429 C26.2621878,11.8497571 25.9585755,11.7933776 25.6529082,11.799 C25.3811694,11.7930286 25.1109816,11.8416531 24.8583592,11.9419653 C24.6057367,12.0422776 24.3758367,12.1922612 24.1822306,12.3830367 C23.9886245,12.5738122 23.8352673,12.801502 23.7312327,13.0526122 C23.627198,13.3037224 23.5746184,13.5731735 23.5765959,13.844951 C23.5765959,15.0589735 24.5263633,15.987298 25.8082041,15.987298 C26.3313245,15.987298 26.7008551,15.8427041 27.3007122,15.3892245 L29.0681776,17.1638245 C28.0904143,17.9980408 26.8396327,18.4429122 25.5547286,18.4135204 C24.2350041,18.4200735 22.9576224,17.9481755 21.9591143,17.0852653 C21.0664633,16.3068857 20.6023204,15.2035673 20.6023204,13.9359959 C20.6023204,11.2741347 22.6589735,9.37281633 25.5100592,9.37281633 C26.8883347,9.37281633 27.9952204,9.80842041 29.2591857,10.8206551 L27.3007122,12.468498 Z" id="Shape"></path>
                    <g id="MEMBER" transform="translate(4.3281, 44.2816)">
                        <polygon id="Path" points="3.458 3.8 3.45257143 1.52 2.33428571 3.39828571 1.938 3.39828571 0.825142857 1.56885714 0.825142857 3.8 0 3.8 0 0 0.727428571 0 2.14971429 2.36142857 3.55028571 0 4.27228571 0 4.28314286 3.8"></polygon>
                        <polygon id="Path" points="8.90208163 3.09428571 8.90208163 3.8 5.95979592 3.8 5.95979592 0 8.8315102 0 8.8315102 0.705714286 6.83379592 0.705714286 6.83379592 1.53085714 8.59808163 1.53085714 8.59808163 2.21485714 6.83379592 2.21485714 6.83379592 3.09428571"></polygon>
                        <polygon id="Path" points="13.8358776 3.8 13.830449 1.52 12.7121633 3.39828571 12.3158776 3.39828571 11.2030204 1.56885714 11.2030204 3.8 10.3778776 3.8 10.3778776 0 11.1053061 0 12.5275918 2.36142857 13.9281633 0 14.6501633 0 14.6610204 3.8"></polygon>
                        <path d="M19.1279592,1.824 C19.345102,1.8927619 19.5151973,2.00766667 19.6382449,2.16871429 C19.7612925,2.3297619 19.8228163,2.52790476 19.8228163,2.76314286 C19.8228163,3.09609524 19.6934354,3.35214286 19.4346735,3.53128571 C19.1759116,3.71042857 18.7986259,3.8 18.3028163,3.8 L16.3376735,3.8 L16.3376735,0 L18.1942449,0 C18.657483,0 19.0130544,0.0886666667 19.2609592,0.266 C19.5088639,0.443333333 19.6328163,0.684 19.6328163,0.988 C19.6328163,1.17257143 19.588483,1.3372381 19.4998163,1.482 C19.4111497,1.6267619 19.2871973,1.7407619 19.1279592,1.824 Z M17.2116735,0.662285714 L17.2116735,1.558 L18.0856735,1.558 C18.3028163,1.558 18.467483,1.52 18.5796735,1.444 C18.6918639,1.368 18.7479592,1.25580952 18.7479592,1.10742857 C18.7479592,0.959047619 18.6918639,0.847761905 18.5796735,0.773571429 C18.467483,0.699380952 18.3028163,0.662285714 18.0856735,0.662285714 L17.2116735,0.662285714 Z M18.2376735,3.13771429 C18.4692925,3.13771429 18.6439116,3.09971429 18.7615306,3.02371429 C18.8791497,2.94771429 18.9379592,2.83009524 18.9379592,2.67085714 C18.9379592,2.356 18.7045306,2.19857143 18.2376735,2.19857143 L17.2116735,2.19857143 L17.2116735,3.13771429 L18.2376735,3.13771429 Z" id="Shape"></path>
                        <polygon id="Path" points="24.2083265 3.09428571 24.2083265 3.8 21.2660408 3.8 21.2660408 0 24.1377551 0 24.1377551 0.705714286 22.1400408 0.705714286 22.1400408 1.53085714 23.9043265 1.53085714 23.9043265 2.21485714 22.1400408 2.21485714 22.1400408 3.09428571"></polygon>
                        <path d="M28.1052653,3.8 L27.3724082,2.74142857 L27.3289796,2.74142857 L26.563551,2.74142857 L26.563551,3.8 L25.6841224,3.8 L25.6841224,0 L27.3289796,0 C27.665551,0 27.9577891,0.0560952381 28.2056939,0.168285714 C28.4535986,0.28047619 28.6445034,0.439714286 28.7784082,0.646 C28.9123129,0.852285714 28.9792653,1.09657143 28.9792653,1.37885714 C28.9792653,1.66114286 28.9114082,1.90452381 28.7756939,2.109 C28.6399796,2.31347619 28.4472653,2.47 28.197551,2.57857143 L29.0498367,3.8 L28.1052653,3.8 Z M28.0889796,1.37885714 C28.0889796,1.16533333 28.0202177,1.00157143 27.8826939,0.887571429 C27.7451701,0.773571429 27.5443129,0.716571429 27.2801224,0.716571429 L26.563551,0.716571429 L26.563551,2.04114286 L27.2801224,2.04114286 C27.5443129,2.04114286 27.7451701,1.9832381 27.8826939,1.86742857 C28.0202177,1.75161905 28.0889796,1.5887619 28.0889796,1.37885714 Z" id="Shape"></path>
                    </g>
                </g>
            </g>
        </g>
    </g>
</svg>