<?xml version="1.0" encoding="UTF-8"?>
<svg width="45px" height="60px" viewBox="0 0 45 60" version="1.1" xmlns="http://www.w3.org/2000/svg" xmlns:xlink="http://www.w3.org/1999/xlink">
    <title>Group 17</title>
    <g id="Page-1" stroke="none" stroke-width="1" fill="none" fill-rule="evenodd">
        <g id="Service:-CYLINDER-TESTING" transform="translate(-541, -1211)" stroke="#FFFFFF" stroke-width="2">
            <g id="Group-17" transform="translate(542, 1212)">
                <path d="M40,6.5 C40,10.0893 31.4930667,13 21,13 C10.5069333,13 2,10.0893 2,6.5 C2,2.9107 10.5069333,0 21,0 C31.4930667,0 40,2.9107 40,6.5 Z" id="Stroke-1"></path>
                <path d="M10.25,11 C9.44875,10.5406009 9,10.025329 9,9.48025826 C9,7.55823193 14.59625,6 21.5,6 C28.40375,6 34,7.55823193 34,9.48025826 C34,10.025329 33.55125,10.5406009 32.75,11" id="Stroke-3"></path>
                <line x1="2.5" y1="17" x2="2.5" y2="6" id="Stroke-5"></line>
                <path d="M14,23.8064 C7.25647786,22.8285333 2.54568597,20.5966667 2.54568597,18 L0,20.5333333 L0,25.6 L2.54568597,28.1333333 L2.54568597,37" id="Stroke-7"></path>
                <path d="M13.5877993,42.6625882 C7.04282605,41.7089412 2.47073357,39.5323529 2.47073357,37 L0,39.4705882 L0,44.4117647 L2.46949821,46.8823529 L2.46949821,51.8235294 C2.46949821,55.2354118 10.7662215,58 21,58" id="Stroke-9"></path>
                <line x1="40.5" y1="17" x2="40.5" y2="6" id="Stroke-11"></line>
                <path d="M29,23.8064 C35.7416364,22.8285333 40.4545455,20.5966667 40.4545455,18 L43,20.5333333 L43,25.6 L40.4545455,28.1333333 L40.4545455,37" id="Stroke-13"></path>
                <path d="M29.4117647,42.6625882 C35.9551176,41.7089412 40.5294118,39.5323529 40.5294118,37 L43,39.4705882 L43,44.4117647 L40.5294118,46.8823529 L40.5294118,51.8235294 C40.5294118,55.2354118 32.2331765,58 22,58" id="Stroke-15"></path>
            </g>
        </g>
    </g>
</svg>