<?xml version="1.0" encoding="UTF-8"?>
<svg width="150px" height="67px" viewBox="0 0 150 67" version="1.1" xmlns="http://www.w3.org/2000/svg" xmlns:xlink="http://www.w3.org/1999/xlink">
    <title>7F34335F-3136-44C3-961F-4416CCCC3CA5</title>
    <g id="Page-1" stroke="none" stroke-width="1" fill="none" fill-rule="evenodd">
        <g id="Index-White" transform="translate(-351, -56)">
            <g id="Group-10" transform="translate(351, 56)">
                <polygon id="Fill-1" fill="#1086E2" points="114.711894 13.3282986 112.906663 23.5183742 124.727764 23.5183742 119.545304 52.9253155 131.249629 52.9253155 136.432089 23.5183742 148.195121 23.5183742 150.000032 13.3282986"></polygon>
                <g id="Group-9">
                    <g id="Group-4" fill="#1086E2">
                        <path d="M52.9033324,27.0207062 C51.8855373,24.7620944 49.7168998,23.3442005 46.468889,23.3442005 C40.6457607,23.3442005 36.3946314,27.8279231 35.4049134,33.126839 C34.4729448,38.5425301 37.2682123,42.9097965 42.9748844,42.9097965 C46.0088073,42.9097965 48.8155608,41.4746735 50.6970461,39.2329717 L63.5956054,39.2329717 C60.0180076,47.9330463 51.4315177,53.7405407 41.2280416,53.7405407 C28.7665918,53.7405407 21.4292141,45.0643955 23.5254254,33.126839 C25.6219558,21.2476701 36.0452628,12.5131372 48.5651003,12.5131372 C55.2512805,12.5131372 60.3322798,15.0068948 63.1782775,19.1744309 C57.9119055,7.85138021 46.4373022,0 33.126839,0 C14.8314129,0 0,14.8314129 0,33.126839 C0,51.422265 14.8314129,66.2536779 33.126839,66.2536779 C51.422265,66.2536779 66.2536779,51.422265 66.2536779,33.126839 C66.2536779,31.0405185 66.0587335,29.0001423 65.6899024,27.0207062 L52.9033324,27.0207062 Z" id="Fill-2"></path>
                    </g>
                    <path d="M91.3370319,23.3441366 C94.5853617,23.3441366 96.7539992,24.7620306 97.7714753,27.0206424 L110.589951,27.0206424 C110.103388,18.3202488 103.637038,12.5130734 93.4332432,12.5130734 C80.9137248,12.5130734 70.4904177,21.2479253 68.3938874,33.1267752 C66.297676,45.0643317 73.6347347,53.740796 86.0961845,53.740796 C96.2999796,53.740796 104.88647,47.9333016 108.464067,39.2329079 L95.565508,39.2329079 C93.6837037,41.4746097 90.8769502,42.9097327 87.8430273,42.9097327 C82.1366743,42.9097327 79.3414068,38.5424663 80.2730563,33.1267752 C81.2630933,27.8278593 85.5139036,23.3441366 91.3370319,23.3441366" id="Fill-5" fill="#1086E2"></path>
                    <path d="M46.4686975,23.3032653 C49.7170274,23.3032653 51.8856649,24.7211592 52.903141,26.9797711 L65.7216168,26.9797711 C65.2350532,18.2793774 58.768704,12.4722021 48.5649088,12.4722021 C36.0453905,12.4722021 25.6220834,21.207054 23.525553,33.0859038 C21.4293417,45.0234603 28.7664004,53.6999246 41.2278502,53.6999246 C51.4316453,53.6999246 60.0181353,47.8924302 63.595733,39.1920366 L50.6971737,39.1920366 C48.8153694,41.4337383 46.0086158,42.8688614 42.974693,42.8688614 C37.2683399,42.8688614 34.4730725,38.501595 35.4047219,33.0859038 C36.394759,27.7869879 40.6455693,23.3032653 46.4686975,23.3032653" id="Fill-7" fill="#FEFEFE"></path>
                </g>
            </g>
        </g>
    </g>
</svg>