<?xml version="1.0" encoding="UTF-8"?>
<svg width="40px" height="51px" viewBox="0 0 40 51" version="1.1" xmlns="http://www.w3.org/2000/svg" xmlns:xlink="http://www.w3.org/1999/xlink">
    <title>AE8EEB59-8B9B-46A0-B573-8956E966DEB9</title>
    <defs>
        <polygon id="path-1" points="0 50.2682514 40 50.2682514 40 0 0 0"></polygon>
    </defs>
    <g id="Page-1" stroke="none" stroke-width="1" fill="none" fill-rule="evenodd">
        <g id="Index-White" transform="translate(-398, -2786)">
            <g id="Group-3" transform="translate(0, 2122)">
                <g id="UKAS-logo" transform="translate(398, 664)">
                    <polygon id="Fill-1" fill="#FFFFFF" points="29.8451805 10.8088288 19.206095 25.6474212 13.806979 18.6227755 13.806979 26.2000591 19.206095 31.961419 29.8451805 16.4127922"></polygon>
                    <g id="Group-37">
                        <path d="M25.9548536,11.1244969 C25.9548536,11.5191701 25.9548536,11.5978456 25.7959799,11.6768393 C25.6371289,11.6768393 25.5575443,11.3611826 25.5575443,11.1244969 C25.5575443,11.0455032 25.6371289,10.8088175 25.7163953,10.5718591 L25.5575443,10.4928653 L24.6049382,12.7818424 L24.7637892,12.8608361 C24.8433738,12.7028486 25.0809458,12.3081982 25.5575443,12.3081982 C25.5575443,12.5448612 25.2397968,13.0185281 24.6049382,13.0185281 C24.1283171,13.0185281 23.6523095,12.7028486 23.6523095,12.0712171 C23.6523095,11.8345313 23.7318941,11.5978456 23.9694661,11.5978456 C24.0493233,11.5978456 24.2079016,11.7555376 24.2079016,11.8345313 C24.2079016,11.9135251 24.2079016,11.9135251 24.1283171,11.9925188 C24.1283171,12.0715125 24.2871908,12.1505062 24.4460645,12.1505062 C24.6049382,12.1505062 24.922663,11.9925188 24.922663,11.5978456 C24.922663,11.0455032 24.2076062,10.9662141 24.0493233,10.9662141 C24.1283171,10.4928653 24.2076062,10.3348779 24.0493233,9.86123377 C23.9694661,9.54555433 23.9694661,9.54555433 23.652014,9.78224005 C23.5724295,9.94020476 23.3342893,10.1768905 23.1760065,10.8082266 C23.0961264,10.7292329 22.8582817,10.6502619 22.699408,10.6502619 C22.3816605,10.6502619 22.0639358,10.8869249 22.0639358,11.1239061 C22.0639358,11.5972548 22.3816833,11.7552422 22.6201189,11.7552422 C22.5405343,11.5185792 22.6997034,11.3605918 22.8585772,11.3605918 C22.9381617,11.3605918 23.0964219,11.4395855 23.0964219,11.5975502 C23.0964219,11.6765439 22.8585772,12.7025532 21.7470974,12.7025532 C20.9533423,12.7025532 20.714884,12.1499153 20.6356176,11.5975502 C21.1912098,11.5975502 21.5882237,11.9922233 21.7470974,12.4658675 L21.9059484,12.4658675 L21.9059484,9.94020476 L21.6675128,9.94020476 C21.3497654,10.6505573 21.1113298,10.808522 20.556033,10.808522 C20.6356176,10.0981922 20.9533423,10.0981922 21.5086391,9.70354176 L21.5086391,9.54584976 C21.3497654,9.54584976 21.1909144,9.46685605 21.1113298,9.38786233 L21.1113298,7.57252946 C22.4612451,7.41456475 23.0174282,6.78320588 24.1283171,6.78320588 C25.398966,6.78320588 26.192721,8.04619633 26.192721,8.83522447 C26.192721,9.15088118 25.9548536,9.86121104 25.7166907,10.1771859 C25.875269,10.4931608 25.9548536,10.8875158 25.9548536,11.1244969 L25.9548536,11.1244969 Z M25.0809458,14.4394832 L25.0016567,14.1238038 L25.3193814,14.0448101 L25.3986706,14.3604895 L25.0809458,14.4394832 Z M23.3345847,14.0448328 C23.1763019,14.0448328 22.6997034,13.9658391 22.6201189,13.9658391 C22.3816605,13.8868454 22.2228095,13.8868454 22.2228095,13.6501596 C22.2228095,13.4921722 22.3816605,13.4134739 22.6204143,13.4131785 C23.1763019,13.4131785 23.5730203,13.5708705 23.5730203,13.8078516 C23.5730203,13.9658391 23.4141693,14.0448328 23.3345847,14.0448328 L23.3345847,14.0448328 Z M20.1587237,13.9658391 L19.6821026,13.5711659 L20.1587237,13.0978172 L20.6350268,13.5711659 L20.1587237,13.9658391 Z M18.6502074,12.7028486 C17.5387276,12.7028486 17.3005875,11.6768393 17.3005875,11.5978684 C17.3005875,11.4398809 17.4594385,11.3608872 17.5387276,11.3608872 C17.6976013,11.3608872 17.8564751,11.5188746 17.7768905,11.7555376 C18.0153261,11.7555376 18.3327781,11.5978684 18.3327781,11.1242015 C18.3327781,10.8872203 18.0153261,10.6505573 17.6976013,10.6505573 C17.5387276,10.6505573 17.3005875,10.7295511 17.2212983,10.8085448 C17.0624246,10.1768905 16.8242844,9.94022748 16.7446999,9.78253548 C16.4272478,9.54584976 16.4272478,9.54584976 16.3476633,9.8615292 C16.1888123,10.3351733 16.2683968,10.4931608 16.3476633,10.9665095 C16.1888123,10.9665095 15.5539309,11.0457986 15.5539309,11.5981638 C15.5539309,11.9928142 15.7920711,12.1508016 15.9509448,12.1508016 C16.1098185,12.1508016 16.2686923,12.0718079 16.3479814,11.9928142 C16.1891077,11.9138205 16.1891077,11.9138205 16.1891077,11.8348268 C16.1891077,11.7558331 16.3479814,11.5981638 16.4272478,11.5981638 C16.6654107,11.5981638 16.7446999,11.8348268 16.7446999,12.0715125 C16.7446999,12.7031441 16.2683968,13.0188235 15.7920711,13.0188235 C15.1569171,13.0188235 14.839465,12.5451566 14.839465,12.3084936 C15.3157681,12.3084936 15.5539309,12.7031441 15.6332201,12.8611315 L15.7920711,12.7821378 L14.839465,10.4931608 L14.6805913,10.5721545 C14.839465,10.8091356 14.9190496,11.0457986 14.9190496,11.1247923 C14.9190496,11.3614781 14.7601759,11.6771575 14.6013022,11.6771575 C14.4424512,11.5981638 14.4424512,11.5194655 14.4424512,11.1247923 C14.4424512,10.8878112 14.5220357,10.4931608 14.6805913,10.1774813 C14.4424512,9.86182463 14.2042883,9.15149477 14.2042883,8.8355199 C14.2042883,8.04649176 14.839465,6.86249503 16.1891077,6.86249503 C17.3005875,6.86249503 17.6183122,7.49414933 19.2853841,7.65181861 L19.2853841,9.38845319 C19.206095,9.46744691 19.0472212,9.54644062 18.9679548,9.54644062 L18.9679548,9.70442806 C19.4442578,10.0990785 19.7616871,10.0990785 19.8412717,10.8094083 C19.2853841,10.8094083 19.0472212,10.6514436 18.7297919,9.94111378 L18.4913336,9.94111378 L18.4913336,12.4667538 L18.6502074,12.4667538 L18.6502074,12.4661629 C18.8883702,11.9925188 19.206095,11.5978684 19.7616871,11.5978684 C19.6821026,12.1505062 19.4442578,12.7028486 18.6502074,12.7028486 L18.6502074,12.7028486 Z M17.7768905,13.9658391 C17.6180167,13.9658391 17.1417137,14.0448328 17.0624246,14.0448328 C16.9035509,14.0448328 16.823989,13.9658391 16.823989,13.8078516 C16.823989,13.5708705 17.2210029,13.4131785 17.776595,13.4131785 C18.0150306,13.4134739 18.1739043,13.4921722 18.1739043,13.6501596 C18.1739043,13.8868454 18.0150306,13.8868454 17.7768905,13.9658391 L17.7768905,13.9658391 Z M15.2362062,14.4394832 L14.9187542,14.3604895 L15.0773325,14.0448101 L15.3947618,14.1238038 L15.2362062,14.4394832 Z M20.2379902,7.02018703 C20.0791392,7.02018703 19.99985,6.94119331 20.0001446,6.78350131 C20.0001446,6.62580931 20.0794346,6.54683832 20.2379902,6.54683832 C20.3172793,6.54683832 20.3968639,6.62553661 20.3968639,6.78350131 C20.3968639,6.94119331 20.3175747,7.02018703 20.2379902,7.02018703 L20.2379902,7.02018703 Z M20.2379902,7.65152317 C20.0791392,7.65152317 19.99985,7.4938539 20.0001446,7.41486018 C20.0001446,7.25716818 20.0794346,7.17817446 20.2379902,7.17817446 C20.3172793,7.17817446 20.3968639,7.25716818 20.3968639,7.41486018 C20.3968639,7.4938539 20.3175747,7.65152317 20.2379902,7.65152317 L20.2379902,7.65152317 Z M20.2379902,8.20418376 C20.0791392,8.20418376 19.99985,8.12519004 20.0001446,8.04619633 C20.0001446,7.88850432 20.0794346,7.80951061 20.2379902,7.80951061 C20.3172793,7.80951061 20.3968639,7.88820889 20.3968639,8.04619633 C20.3968639,8.12519004 20.3175747,8.20418376 20.2379902,8.20418376 L20.2379902,8.20418376 Z M20.3968639,9.15117661 C20.3968639,9.30916404 20.3175747,9.38815776 20.2379902,9.38815776 C20.0791392,9.38815776 19.99985,9.30916404 20.0001446,9.15117661 C20.0001446,9.07250105 20.0794346,8.99350733 20.2379902,8.99350733 C20.3172793,8.99350733 20.3968639,9.07220562 20.3968639,9.15117661 L20.3968639,9.15117661 Z M20.2379902,8.8355199 C20.0791392,8.8355199 19.99985,8.75652619 20.0001446,8.59883418 C20.0001446,8.51984047 20.0794346,8.36185303 20.2379902,8.36185303 C20.3172793,8.36185303 20.3968639,8.51984047 20.3968639,8.59883418 C20.3968639,8.75652619 20.3175747,8.8355199 20.2379902,8.8355199 L20.2379902,8.8355199 Z M19.4439624,5.83650846 C19.2850887,5.83650846 19.2850887,5.75751474 19.2850887,5.67852103 C19.2850887,5.59952731 19.3646733,5.52053359 19.6821026,5.52053359 C19.99985,5.52053359 19.99985,5.52053359 19.99985,5.28384788 L19.99985,5.04716216 C19.99985,4.81020373 20.0791392,4.81020373 20.2379902,4.81020373 C20.3175747,4.81020373 20.3968639,4.81020373 20.3968639,5.04716216 L20.3968639,5.28384788 C20.3968639,5.52053359 20.3968639,5.52053359 20.7146113,5.52053359 C21.0323361,5.52053359 21.1906189,5.59952731 21.1906189,5.67852103 C21.1906189,5.75751474 21.1110343,5.83650846 20.9527515,5.83650846 C20.9527515,5.83650846 20.3172793,5.75751474 20.2376947,5.75751474 C20.0791392,5.75751474 19.4439624,5.83650846 19.4439624,5.83650846 L19.4439624,5.83650846 Z M27.1456225,8.91421819 C27.0666288,8.91421819 26.8284886,8.91421819 26.6696149,8.9932119 L26.6696149,8.59853875 C26.8284886,8.59853875 26.9080505,8.67753247 27.0669242,8.67753247 C27.3047689,8.59853875 27.4636427,8.44055132 27.3840581,8.20418376 C27.3840581,7.96720261 27.1456225,7.80951061 26.9867488,7.80951061 C26.8284659,7.88850432 26.6696149,7.96720261 26.5900303,8.04619633 C26.5900303,7.96720261 26.5104458,7.80951061 26.4311566,7.73051689 C26.5900303,7.73051689 26.6696149,7.73051689 26.7489041,7.65152317 C26.9867488,7.57252946 27.0666288,7.33586647 26.9867488,7.17817446 C26.9077551,6.94119331 26.6696149,6.86249503 26.4311566,6.94119331 C26.351572,7.02018703 26.192721,7.09918075 26.1134319,7.25716818 C26.0338473,7.17817446 25.955149,7.02018703 25.8755644,6.94119331 C25.955149,6.94119331 26.1134319,6.8621996 26.1926983,6.78350131 C26.351572,6.62553661 26.2722829,6.38885089 26.1131365,6.23086345 C25.9659663,6.07744384 25.7222812,6.07237606 25.5688616,6.21954617 C25.565021,6.2232277 25.5612258,6.22700012 25.5575443,6.23086345 C25.4779597,6.38885089 25.3986706,6.54654289 25.3986706,6.70423489 C25.319086,6.62524117 25.1602123,6.54654289 25.0013613,6.46754917 C25.1602123,6.38855546 25.2397968,6.30956174 25.319086,6.15186974 C25.3986706,5.99417774 25.319086,5.75721931 25.0806504,5.67852103 C24.842783,5.59952731 24.6046428,5.67852103 24.5250582,5.91547945 C24.4454737,5.99447317 24.5250582,6.23115889 24.6046201,6.38885089 C24.3661845,6.30985717 24.2073108,6.30985717 24.0490279,6.30985717 C24.1280216,6.23086345 24.2073108,6.07317145 24.2073108,5.99417774 C24.2073108,5.75721931 23.9688752,5.59952731 23.8105923,5.59952731 C23.572134,5.59952731 23.3339939,5.75721931 23.3339939,5.99417774 C23.3339939,6.15186974 23.4928449,6.30985717 23.5724295,6.38885089 C23.4135785,6.4678446 23.175711,6.54683832 23.0168373,6.54683832 C23.0168373,6.4678446 23.095831,6.30985717 23.0168373,6.23115889 C22.9372527,5.99447317 22.6991126,5.83650846 22.5402388,5.91547945 C22.3018033,5.99447317 22.1435204,6.23115889 22.2225141,6.38885089 C22.3020987,6.54683832 22.3813878,6.7045076 22.5402388,6.78350131 C22.3813878,6.78350131 22.2225141,6.86249503 22.1435204,6.94119331 C22.0636404,6.94119331 21.9846467,6.94119331 21.9050621,7.02018703 C22.063345,6.8621996 22.063345,6.62553661 21.9846467,6.46754917 C21.9846467,6.30956174 21.7462111,6.15186974 21.5080482,6.23086345 C21.2696126,6.30985717 21.1903235,6.46754917 21.2696126,6.70423489 C21.2696126,6.8621996 21.4284636,7.0198916 21.5873374,7.09888532 C21.1900281,7.17787903 21.0317452,7.09888532 21.0317452,7.09888532 L21.0317452,6.7045076 L20.8728715,6.54683832 C21.1107389,6.23115889 21.2696126,6.15216517 21.2696126,5.67852103 C21.2696126,5.28384788 21.1107389,4.88919745 20.8728715,4.73150545 C20.5551467,4.57351802 20.396273,4.17884486 20.396273,4.02088016 L20.396273,3.86318816 C20.5551467,3.86318816 20.8728715,3.86318816 21.0317452,3.94218187 L21.0317452,3.07416001 C20.7140205,3.31084573 20.5551467,3.31084573 20.396273,3.31084573 L20.396273,3.07416001 C20.396273,2.99516629 20.5551467,2.75848058 20.6347313,2.60051587 L19.7616871,2.60051587 C19.8412717,2.75848058 20.0001454,2.99516629 20.0001454,3.07416001 L20.0001454,3.31084573 C19.8412717,3.31084573 19.6031316,3.31084573 19.2853841,3.1528583 L19.2853841,3.94218187 C19.5238424,3.86318816 19.7616871,3.86318816 20.0001454,3.86318816 L20.0001454,4.02088016 C20.0001454,4.17884486 19.7616871,4.57351802 19.5238424,4.81020373 C19.2853841,4.88919745 19.1268058,5.28384788 19.1268058,5.67852103 C19.1268058,6.15186974 19.2853841,6.23115889 19.5238424,6.54683832 L19.2853841,6.7045076 L19.2853841,7.09918075 C19.2853841,7.09918075 19.206095,7.17817446 18.8090811,7.09918075 C18.9679548,7.02018703 19.1268285,6.86249503 19.1268285,6.7045076 C19.206095,6.54683832 19.047244,6.30985717 18.8883702,6.23115889 C18.6502074,6.15216517 18.4120672,6.3101526 18.3324826,6.4678446 C18.3324826,6.60833343 18.332619,6.81095367 18.3885918,6.96521413 C18.4031816,6.97691775 18.4120672,6.99430273 18.4120672,7.02048246 C18.4032497,7.00300658 18.3955685,6.98441715 18.3885918,6.96521413 C18.3592078,6.9416251 18.3061893,6.94148875 18.2531935,6.94148875 C18.0946152,6.86249503 18.0150306,6.86249503 17.8561796,6.78379674 C18.0150306,6.70480303 18.0946152,6.54713375 18.1739043,6.46814003 C18.1739043,6.23145432 18.0946152,5.9947686 17.8561796,5.91577488 C17.6180167,5.83680389 17.4591657,5.9947686 17.3798766,6.23145432 C17.3005875,6.31044803 17.3005875,6.46814003 17.3798766,6.62610474 C17.2210029,6.54713375 16.98284,6.46814003 16.7446999,6.38944175 C16.9035736,6.31044803 16.9831354,6.1524606 16.9831354,5.9947686 C16.9831354,5.75781017 16.8242844,5.60011817 16.5861216,5.60011817 C16.347686,5.60011817 16.1891077,5.75781017 16.1891077,5.9947686 C16.1891077,6.07376231 16.2686923,6.23145432 16.3479814,6.38944175 C16.1891077,6.31044803 15.9509448,6.38944175 15.7920938,6.38944175 C15.8716557,6.23145432 15.8716557,6.07376231 15.8716557,5.91607031 C15.7920938,5.67911189 15.4746418,5.6004136 15.3160635,5.67911189 C15.0779233,5.75808288 14.9983388,5.9947686 15.0779233,6.23174975 C15.1572125,6.31074346 15.2367971,6.46843547 15.3160635,6.46843547 C15.2365016,6.54742918 15.0779233,6.62640017 14.9190496,6.70509846 C14.9983388,6.54742918 14.9190496,6.38944175 14.839465,6.23174975 C14.680614,6.07376231 14.4424512,6.07376231 14.2042883,6.23174975 C14.0454373,6.38973718 14.0454373,6.62640017 14.2042883,6.78438761 C14.2838729,6.86338132 14.4424512,6.94207961 14.5220357,7.02107332 C14.4424512,7.10006704 14.363162,7.17906076 14.2042883,7.25805447 C14.2042883,7.10006704 14.0454373,7.02107332 13.9661481,6.94207961 C13.7279853,6.86308589 13.4898451,6.94207961 13.4102605,7.17906076 C13.330676,7.41574647 13.4102605,7.65240947 13.6484234,7.73169861 L13.9661481,7.73169861 C13.886859,7.81069233 13.8072744,7.96838433 13.8072744,8.04737805 C13.7276898,7.96838433 13.5691343,7.88939062 13.4102605,7.88939062 C13.1720977,7.8103969 13.0132467,7.96838433 13.0132467,8.20507005 C12.9336621,8.44173304 13.0928085,8.67841876 13.330676,8.67841876 C13.4895497,8.67841876 13.5691343,8.67841876 13.7276898,8.59942505 L13.7276898,8.9940982 C13.5688388,8.91510448 13.330676,8.91510448 13.1720977,8.9940982 C13.0132467,9.07306919 12.9336621,9.30975491 13.0132467,9.46744691 C13.0928085,9.70442806 13.330676,9.78312634 13.4895497,9.70442806 C13.6484234,9.70442806 13.7276898,9.54644062 13.8072744,9.46744691 C13.886859,9.70442806 13.9661481,9.86212006 13.9661481,9.86212006 L13.9661481,9.94111378 L13.4898451,9.94111378 C13.3309714,10.0197893 13.1723931,10.2567705 13.2516823,10.4937516 C13.3309714,10.6517391 13.5694297,10.7307328 13.7279853,10.7307328 L13.6484234,10.9673958 L14.9190496,13.9667254 L14.7598805,14.4394832 L15.1569171,14.5974707 L15.3950572,15.0711148 C16.823989,14.5971752 18.6502074,14.3604895 20.2379902,14.3604895 L20.2379902,14.3604895 C21.746802,14.3604895 23.5727249,14.5971752 25.0016567,15.0708194 L25.2400923,14.5971752 L25.6374016,14.4391878 L25.4785506,13.9658391 L26.7491768,10.9665095 L26.6696149,10.7298465 C26.8284659,10.7298465 27.0669242,10.6508528 27.1456225,10.4928653 C27.2252071,10.2558842 27.0666288,10.0192212 26.9077551,9.94022748 C26.7586987,9.86125649 26.5802129,9.86125649 26.4311566,9.94022748 L26.4311566,9.86123377 C26.4311566,9.86123377 26.5107412,9.70354176 26.5900303,9.46656061 L26.8284659,9.70354176 C27.0669242,9.78253548 27.3044962,9.70354176 27.3840581,9.46656061 C27.4636427,9.30886861 27.3840581,9.07191019 27.1456225,8.91421819 L27.1456225,8.91421819 Z" id="Fill-2" fill="#FFFFFF"></path>
                        <path d="M15.9506539,33.7770427 C15.9506539,33.7770427 16.0302385,34.960744 16.0302385,36.2237118 C16.0302385,37.4080039 15.9506539,38.9073619 15.9506539,38.9073619 L17.2210074,38.9073619 C17.2210074,38.9073619 17.1414228,37.2500165 17.1414228,36.2237118 C17.1414228,35.1979979 17.2210074,33.7770427 17.2210074,33.7770427 L15.9506539,33.7770427 Z" id="Fill-4" fill="#FFFFFF"></path>
                        <path d="M17.0624291,36.2237118 C17.0624291,36.2237118 17.8561842,35.3556899 18.1739089,34.9607213 L19.1268104,33.7770427 L19.9205654,33.7770427 C19.9205654,33.7770427 18.4913382,35.4343882 18.1739089,35.7497722 C17.9092709,35.9603691 17.6445874,36.1709205 17.3798584,36.3814038 L17.0624291,36.2237118 Z" id="Fill-6" fill="#FFFFFF"></path>
                        <path d="M18.1739066,43.327633 C18.1739066,43.327633 18.3327803,42.9326872 18.4916313,42.3806175 C18.7297942,41.7489859 18.9679571,41.433011 18.9679571,41.433011 C18.9679571,41.433011 19.2060972,42.0646653 19.364971,42.5383095 L19.6824003,43.327633 L20.3968662,43.327633 C20.3968662,43.327633 20.0794369,42.6173032 19.7616894,41.9856716 C19.6028384,41.590703 19.2853864,40.6436874 19.2853864,40.6436874 L18.9679571,40.6436874 C18.9679571,40.6436874 18.3327803,42.0643699 18.1739066,42.4593157 C18.0150329,42.8536935 17.7768927,43.3273376 17.7768927,43.3273376 L18.1739066,43.3273376 L18.1739066,43.327633 Z M15.0773348,40.6436874 L15.7125115,40.6436874 C15.7125115,40.6436874 15.6329269,41.2753417 15.6329269,41.6694013 C15.6329269,42.0643472 15.5536378,43.1696456 16.4269547,43.1696456 C17.0621314,43.1696456 17.2210051,42.6170077 17.2210051,42.0643472 C17.2210051,41.590703 17.1414206,40.6436874 17.1414206,40.6436874 L17.5384344,40.6436874 L17.5384344,41.9066779 C17.5384344,42.538014 17.5384344,43.4063313 16.2681037,43.4063313 C15.0770393,43.4063313 15.0770393,42.4593157 15.0770393,42.2220392 L15.0773348,40.6436874 Z M8.64630086,33.7770518 L9.75778063,33.7770518 L9.75778063,35.8293431 C9.75778063,36.6186667 9.51964048,38.5913961 11.1074233,38.5913961 C12.3777768,38.5913961 12.5366278,37.5656823 12.5366278,36.539673 L12.5366278,33.7770518 L13.2510937,33.7770518 L13.2510937,36.2237208 C13.1718045,37.4079903 13.2510937,38.986342 10.8692604,38.986342 C8.48744986,38.986342 8.64630086,37.2500028 8.64630086,36.8553524 L8.64630086,33.7770518 Z M17.9357437,35.9083368 L20.0791414,38.907371 L18.7294988,38.907371 L17.141716,36.539673 L17.0624269,36.2237208 L17.9357437,35.9083368 Z" id="Fill-8" fill="#FFFFFF"></path>
                        <path d="M22.4612519,38.9073551 C22.4612519,38.9073551 22.6997103,38.1180315 23.1763087,37.0917268 C23.5730271,35.9870192 23.8907519,35.2766894 23.8907519,35.2766894 C23.8907519,35.2766894 24.446344,36.5396798 24.7640915,37.3290034 C25.0019362,38.118327 25.3196837,38.9073551 25.3196837,38.9073551 L26.5903099,38.9073551 C26.5903099,38.9073551 26.0341268,37.5653937 25.4788301,36.3024032 C25.1611054,35.5920734 24.5262241,33.7770359 24.5262241,33.7770359 L23.8913427,33.7770359 C23.8913427,33.7770359 22.7002784,36.5396798 22.4618428,37.3290034 C22.1446862,38.0393332 21.7473769,38.9073551 21.7473769,38.9073551 L22.4612519,38.9073551 Z" id="Fill-10" fill="#FFFFFF"></path>
                        <path d="M9.83707432,47.1159749 C9.83707432,47.1159749 9.99594805,46.6423307 10.2340882,46.090261 C10.3929619,45.5376231 10.6311021,45.1426773 10.6311021,45.1426773 C10.6311021,45.1426773 10.8692649,45.8530071 11.0281387,46.247953 C11.1412888,46.5345893 11.2472349,46.8240208 11.3458634,47.1159749 L12.0603293,47.1159749 L11.4251525,45.6953151 C11.2662788,45.3003466 10.9488495,44.3533537 10.9488495,44.3533537 L10.6314202,44.3533537 C10.6314202,44.3533537 9.99624348,45.8530071 9.83736975,46.247953 C9.67849603,46.6423307 9.44035588,47.1159749 9.44035588,47.1159749 L9.83707432,47.1159749 Z M22.8582658,37.4079971 L25.0809299,37.4079971 L25.0809299,36.9340575 L22.8582658,36.9340575 L22.8582658,37.4079971 Z" id="Fill-12" fill="#FFFFFF"></path>
                        <path d="M15.7125001,47.1159749 C15.7125001,47.1159749 15.8713739,46.6423307 16.109514,46.090261 C16.3476769,45.5376231 16.5065506,45.1426773 16.5065506,45.1426773 C16.5065506,45.1426773 16.8239799,45.8530071 16.9828536,46.247953 C17.1417046,46.6423307 17.2209938,47.1159749 17.2209938,47.1159749 L17.9354597,47.1159749 C17.9354597,47.1159749 17.617735,46.405645 17.3795721,45.6953151 C17.2206984,45.3003466 16.8236845,44.3533537 16.8236845,44.3533537 L16.5062325,44.3533537 C16.5062325,44.3533537 15.8710784,45.8530071 15.7122047,46.247953 C15.553331,46.6423307 15.3151908,47.1159749 15.3151908,47.1159749 L15.7125001,47.1159749 Z M10.0755167,46.3266513 L11.2662856,46.3266513 L11.2662856,46.090261 L10.0755167,46.090261 L10.0755167,46.3266513 Z" id="Fill-14" fill="#FFFFFF"></path>
                        <mask id="mask-2" fill="white">
                            <use xlink:href="#path-1"></use>
                        </mask>
                        <g id="Clip-17"></g>
                        <polygon id="Fill-16" fill="#FFFFFF" mask="url(#mask-2)" points="18.4120581 42.5383208 19.602827 42.5383208 19.602827 42.3016351 18.4120581 42.3016351"></polygon>
                        <path d="M5.90602508,47.1551167 C5.90602508,47.1551167 5.90612508,47.1541167 5.90622508,47.1538167 L5.90602508,47.1538167 L5.90602508,47.1551167 Z" id="Fill-18" fill="#FFFFFF" mask="url(#mask-2)"></path>
                        <path d="M8.88446146,44.3530492 L8.56703217,44.3530492 L8.09041099,45.3000648 C7.93155999,45.6160169 7.53481882,46.2476712 7.53481882,46.2476712 C7.53481882,46.2476712 7.29667867,45.7740043 7.13780495,45.3796493 C6.97893122,45.0636745 6.58191735,44.3533446 6.58191735,44.3533446 L6.26448805,44.3533446 C6.26448805,44.3533446 6.10561433,45.3003602 6.10561433,45.6953061 C6.02648426,46.0089175 5.86926949,47.1033759 5.8674969,47.1156931 L6.18490347,47.1156931 C6.18490347,47.1156931 6.26419262,46.5630552 6.3437772,46.1686775 C6.3437772,45.7737089 6.42306635,45.3000648 6.42306635,45.3000648 C6.42306635,45.3000648 6.66120649,45.8527026 6.82008022,46.0899792 C6.97865852,46.4053405 7.37567239,47.1156931 7.37567239,47.1156931 L7.45525697,47.1156931 C7.45525697,47.1156931 7.77298169,46.5630325 7.93155999,46.1686775 L8.40786301,45.2210711 C8.40786301,45.2210711 8.48744759,45.8527026 8.48744759,46.1686775 C8.48744759,46.4053405 8.56703217,47.1156931 8.56703217,47.1156931 L9.20218619,47.1156931 C9.20218619,47.1156931 9.12291977,46.2473758 9.04333519,45.7737089 C8.96404604,45.3793539 8.88446146,44.3530492 8.88446146,44.3530492" id="Fill-19" fill="#FFFFFF" mask="url(#mask-2)"></path>
                        <path d="M12.1396139,41.9856648 C12.1396139,41.1963412 12.5366278,40.8013726 13.0922199,40.8013726 C13.568523,40.8013726 13.9655596,41.1963412 13.9655596,41.9856648 C13.9655596,42.7749884 13.568523,43.1699569 13.0922199,43.1699569 C12.5366278,43.1696615 12.1396139,42.8536866 12.1396139,41.9856648 L12.1396139,41.9856648 Z M14.0451214,44.1956481 L14.601009,43.9589851 L13.5688184,43.3276262 L13.5688184,43.3276262 C14.2039951,43.1699342 14.601009,42.6172964 14.601009,41.9856648 C14.601009,41.1176429 13.965855,40.5650051 13.0925154,40.5650051 C12.2191985,40.5650051 11.5044371,41.1966366 11.5044371,41.9856648 C11.5044371,42.8536866 12.218903,43.4063245 13.0129308,43.4063245 L14.0451214,44.1956481 Z" id="Fill-20" fill="#FFFFFF" mask="url(#mask-2)"></path>
                        <path d="M24.6845069,40.8800777 C24.6845069,40.8800777 24.7640915,41.6694013 24.7640915,42.0643699 C24.7640915,42.380322 24.6845069,43.3273376 24.6845069,43.3273376 L25.3193882,43.3273376 L25.3193882,41.9853762 L25.3193882,40.8800777 L25.637113,40.8800777 C25.7959867,40.8800777 26.0338541,40.9596623 26.0338541,40.9596623 L26.0338541,40.6436874 L23.9694502,40.6436874 L23.9694502,40.6436874 L23.9694502,40.9596623 C23.9694502,40.9596623 24.2079085,40.8800777 24.3667822,40.8800777 L24.6845069,40.8800777 Z" id="Fill-21" fill="#FFFFFF" mask="url(#mask-2)"></path>
                        <polygon id="Fill-22" fill="#FFFFFF" mask="url(#mask-2)" points="27.1453248 43.3276376 27.780797 43.3276376 27.780797 42.0643744 28.6541139 40.643692 28.2571 40.643692 27.6219233 41.8279841 26.9864511 40.643692 26.3515698 40.643692 26.3515698 40.7226857 27.1453248 42.1433454"></polygon>
                        <path d="M14.6806027,45.2216551 L14.6806027,46.2479598 C14.6806027,46.2479598 14.1250105,45.6952992 13.9661368,45.4586362 C13.7279966,45.2213597 12.9339462,44.3533378 12.9339462,44.3533378 L12.5369323,44.3533378 L12.5369323,45.6952992 C12.5369323,46.1689661 12.4573477,47.1159817 12.4573477,47.1159817 L12.4573477,47.1165498 L12.8543616,47.1165498 C12.8543616,47.1165498 12.7750952,46.327249 12.7750952,46.0112741 C12.7750952,45.6955947 12.8543616,45.2219505 12.8543616,45.2219505 C12.8543616,45.2219505 13.4099538,45.6955947 13.7277012,46.0905633 C14.1247151,46.5636165 14.6803072,47.1162771 14.6803072,47.1162771 L14.9983274,47.1162771 L14.9983274,44.3536332 L14.6806027,44.3536332 L14.6806027,45.2216551 Z" id="Fill-23" fill="#FFFFFF" mask="url(#mask-2)"></path>
                        <path d="M22.3816696,43.0903655 L21.4290636,43.0903655 C21.4290636,43.0903655 21.349479,42.3016328 21.349479,41.9066642 C21.349479,41.5907121 21.4290636,40.6436965 21.4290636,40.6436965 L20.7938868,40.6436965 L20.7938868,43.3276421 L22.3816696,43.3276421 L22.3816696,43.0903655 Z" id="Fill-24" fill="#FFFFFF" mask="url(#mask-2)"></path>
                        <polygon id="Fill-25" fill="#FFFFFF" mask="url(#mask-2)" points="23.4931494 41.9856648 23.4931494 40.6437033 22.8582681 40.6437033 22.8582681 43.3276262 23.4931494 43.3276262"></polygon>
                        <path d="M27.0666242,44.3533355 L27.0666242,44.3533355 L27.0666242,47.1159794 L28.654407,47.1159794 L28.654407,46.8000045 L27.701801,46.8000045 L27.701801,45.852989 C27.701801,45.852989 27.8606747,45.7739953 28.0985194,45.7739953 C28.2573932,45.7739953 28.6547025,45.852989 28.6547025,45.852989 L28.6547025,45.5376277 L27.7020964,45.5376277 L27.7020964,44.5906121 L28.0988149,44.5906121 C28.3372732,44.5906121 28.6549979,44.6696058 28.6549979,44.6696058 L28.6549979,44.353631 L27.8612429,44.353631 L27.0666242,44.3533355 Z" id="Fill-26" fill="#FFFFFF" mask="url(#mask-2)"></path>
                        <polygon id="Fill-27" fill="#FFFFFF" mask="url(#mask-2)" points="15.950663 46.3266558 17.1417274 46.3266558 17.1417274 46.0902655 15.950663 46.0902655"></polygon>
                        <path d="M26.1924074,44.3530492 L25.8752736,44.3530492 L25.3986751,45.3000648 L24.9226448,46.2476712 C24.9226448,46.2476712 24.6845046,45.7740043 24.4460463,45.3796493 C24.2871953,45.0636745 23.9694479,44.3533446 23.9694479,44.3533446 L23.652314,44.3533446 C23.652314,44.3533446 23.4934403,45.3003602 23.4934403,45.6953061 C23.4143102,46.0089175 23.2568,47.1033759 23.2550274,47.1156931 L23.572434,47.1156931 C23.572434,47.1156931 23.6520186,46.5630552 23.6520186,46.1686775 C23.7313077,45.7737089 23.8108696,45.3000648 23.8108696,45.3000648 C23.8108696,45.3000648 24.0493279,45.8527026 24.2076108,46.0899792 C24.3664618,46.4053405 24.6842092,47.1156931 24.6842092,47.1156931 L24.8430829,47.1156931 C24.8430829,47.1156931 25.0809277,46.5630325 25.2398014,46.1686775 C25.478237,45.8527026 25.7959844,45.2210711 25.7959844,45.2210711 L25.7959844,46.1686775 C25.8752736,46.4053405 25.9548354,47.1156931 25.9548354,47.1156931 L26.5897167,47.1156931 C26.5897167,47.1156931 26.4308657,46.2473758 26.4308657,45.7737089 C26.3512811,45.3793539 26.1924074,44.3530492 26.1924074,44.3530492" id="Fill-28" fill="#FFFFFF" mask="url(#mask-2)"></path>
                        <path d="M30.4010681,35.8293431 C29.7661868,35.513391 29.5277512,35.1190133 29.5277512,34.8817367 C29.5277512,34.5663754 29.6866022,34.1714068 30.3214835,34.1714068 C30.9563648,34.1714068 31.1948004,34.7240447 31.1948004,34.7240447 L31.3536741,34.8030384 L31.5125479,34.0137148 L31.5125479,34.0137148 C31.5125479,34.0137148 31.1152386,33.6983308 30.3214835,33.698626 C29.0508346,33.698626 28.574827,34.6456418 28.574827,35.276978 C28.574827,35.9083368 29.0508346,36.3816855 29.6070176,36.6976604 C30.1626325,36.934028 30.8776665,37.2502983 30.8776665,37.7233516 C30.8776665,38.2760121 30.6392082,38.5913734 29.8454759,38.5913734 C29.05113,38.5124024 28.892279,37.8020498 28.892279,37.8020498 L28.8132853,37.8020498 L28.574827,38.6700717 C28.574827,38.6700717 28.8132853,38.9860466 29.8454759,38.9860466 C30.9566603,38.9860466 31.7509834,38.354415 31.7509834,37.4076948 C31.7509834,36.4609747 31.0359494,36.0660288 30.4010681,35.8293431" id="Fill-29" fill="#FFFFFF" mask="url(#mask-2)"></path>
                        <polygon id="Fill-30" fill="#FFFFFF" mask="url(#mask-2)" points="32.1474224 44.3533401 32.1474224 44.6693149 32.8618883 44.6693149 32.8618883 47.115984 33.4973604 47.115984 33.4973604 45.7739998 33.4973604 44.6693149 34.2118036 44.6693149 34.2118036 44.3533401"></polygon>
                        <path d="M31.3536787,45.2216551 L31.3536787,46.2479598 C31.3536787,46.2479598 30.7980865,45.6952992 30.6392128,45.4586362 C30.4007772,45.2213597 29.6070222,44.3533378 29.6070222,44.3533378 L29.2097129,44.3533378 L29.2097129,45.6952992 C29.2097129,46.1689661 29.1301283,47.1159817 29.2097129,47.1159817 L29.2097129,47.1159817 L29.2097129,47.1165498 L29.527733,47.1165498 L29.527733,45.2219505 C29.527733,45.2219505 30.0830298,45.6955947 30.4803618,46.0905633 C30.7980865,46.5636165 31.3536787,47.1162771 31.3536787,47.1162771 L31.6714034,47.1162771 L31.6714034,44.3536332 L31.3536787,44.3536332 L31.3536787,45.2216551 Z" id="Fill-31" fill="#FFFFFF" mask="url(#mask-2)"></path>
                        <path d="M20.7532372,44.5496671 L20.7532372,44.5496671 L20.7532372,44.5496671 Z" id="Fill-32" fill="#FFFFFF" mask="url(#mask-2)"></path>
                        <path d="M20.1587146,46.405645 L20.1587146,46.8000227 C20.1587146,46.8000227 20.1587146,46.8795846 19.6031225,46.8795846 C19.0475303,46.8795846 18.6505164,46.405645 18.6505164,45.6953151 C18.6505164,45.0636836 19.0472349,44.5906076 19.6824116,44.511023 C20.3172929,44.511023 20.5557285,44.9059916 20.5557285,44.9059916 L20.7146022,44.5110457 C20.7144886,44.5109775 20.3171793,44.27436 19.6031225,44.2746551 C19.206404,44.2746551 18.0153397,44.5906076 18.0153397,45.7743089 C18.0153397,46.8003182 18.8886566,47.1162703 19.6824116,47.1162703 C20.3968775,47.1162703 20.7146022,46.9585783 20.7146022,46.9585783 L20.7146022,46.3269467 C20.7146022,46.090261 20.7941868,45.9320009 20.7941868,45.9320009 L20.1587146,45.9320009 L20.1587146,46.405645 Z" id="Fill-33" fill="#FFFFFF" mask="url(#mask-2)"></path>
                        <path d="M21.9852398,45.8529981 C21.9852398,45.8529981 22.1441135,45.7740043 22.3819583,45.7740043 C22.540832,45.7740043 22.8585567,45.8529981 22.8585567,45.8529981 L22.8585567,45.5376141 L21.9852398,45.5376141 L21.9852398,44.5905985 L22.3819583,44.5905985 C22.540832,44.5905985 22.8585567,44.6695922 22.8585567,44.6695922 L22.8585567,44.3536401 L22.1441135,44.3536401 L21.3494722,44.3533446 L21.3494722,44.3533446 L21.3494722,47.1159885 L22.9378459,47.1159885 L22.9378459,46.8000136 L21.9852398,46.8000136 L21.9852398,45.8529981 Z" id="Fill-34" fill="#FFFFFF" mask="url(#mask-2)"></path>
                        <path d="M23.2935511,47.1551235 L23.2935511,47.1551235 C23.2935511,47.1551235 23.2937511,47.1541235 23.2937511,47.1538235 L23.2935511,47.1538235 L23.2935511,47.1551235 Z" id="Fill-35" fill="#FFFFFF" mask="url(#mask-2)"></path>
                        <path d="M1.09586737,49.172384 L38.9041326,49.172384 L38.9041326,1.09582192 L1.09586737,1.09582192 L1.09586737,49.172384 Z M0,50.2682514 L40,50.2682514 L40,0 L0,0 L0,50.2682514 Z" id="Fill-36" fill="#FFFFFF" mask="url(#mask-2)"></path>
                    </g>
                </g>
            </g>
        </g>
    </g>
</svg>