<?xml version="1.0" encoding="UTF-8"?>
<svg width="140px" height="176px" viewBox="0 0 140 176" version="1.1" xmlns="http://www.w3.org/2000/svg" xmlns:xlink="http://www.w3.org/1999/xlink">
    <title>UKAS logo Copy</title>
    <defs>
        <polygon id="path-1" points="0 175.93888 140 175.93888 140 0 0 0"></polygon>
    </defs>
    <g id="Page-1" stroke="none" stroke-width="1" fill="none" fill-rule="evenodd">
        <g id="Accreditations" transform="translate(-392, -447)">
            <g id="UKAS-logo-Copy" transform="translate(392, 447)">
                <polygon id="Fill-1" fill="#0B0F17" points="104.458132 37.830901 67.2213324 89.7659743 48.3244265 65.1797141 48.3244265 91.7002068 67.2213324 111.864966 104.458132 57.4447726"></polygon>
                <g id="Group-37">
                    <path d="M90.8419876,38.9357392 C90.8419876,40.3170952 90.8419876,40.5924597 90.2859295,40.8689377 C89.729951,40.8689377 89.451405,39.7641392 89.451405,38.9357392 C89.451405,38.6592612 89.729951,37.8308612 90.0073835,37.0015067 L89.451405,36.7250287 L86.1172839,44.7364482 L86.6732624,45.0129262 C86.9518084,44.4599702 87.7833104,43.0786937 89.451405,43.0786937 C89.451405,43.9070142 88.3392889,45.5648483 86.1172839,45.5648483 C84.4491097,45.5648483 82.7830832,44.4599702 82.7830832,42.2492597 C82.7830832,41.4208597 83.0616292,40.5924597 83.8931312,40.5924597 C84.1726317,40.5924597 84.7276558,41.1443817 84.7276558,41.4208597 C84.7276558,41.6973377 84.7276558,41.6973377 84.4491097,41.9738157 C84.4491097,42.2502937 85.0051678,42.5267717 85.5612258,42.5267717 C86.1172839,42.5267717 87.2293204,41.9738157 87.2293204,40.5924597 C87.2293204,38.6592612 84.7266217,38.3817492 84.1726317,38.3817492 C84.4491097,36.7250287 84.7266217,36.1720727 84.1726317,34.5143182 C83.8931312,33.4094402 83.8931312,33.4094402 82.7820492,34.2378402 C82.5035031,34.7907166 81.6700126,35.6191167 81.1160226,37.8287932 C80.8364426,37.5523152 80.003986,37.2759167 79.447928,37.2759167 C78.3358119,37.2759167 77.2237754,38.1042372 77.2237754,38.9336712 C77.2237754,40.5903917 78.3358915,41.1433477 79.170416,41.1433477 C78.89187,40.3150272 79.448962,39.7620712 80.0050201,39.7620712 C80.2835661,39.7620712 80.8374766,40.0385492 80.8374766,40.5914257 C80.8374766,40.8679037 80.0050201,44.4589362 76.1148409,44.4589362 C73.3366982,44.4589362 72.5020942,42.5247037 72.2246617,40.5914257 C74.1692343,40.5914257 75.5587828,41.9727817 76.1148409,43.6305362 L76.6708194,43.6305362 L76.6708194,34.7907166 L75.8362948,34.7907166 C74.7241788,37.2769507 73.8896542,37.8298272 71.9461156,37.8298272 C72.2246617,35.3436727 73.3366982,35.3436727 75.2802368,33.9623962 L75.2802368,33.4104742 C74.7241788,33.4104742 74.1682003,33.1339962 73.8896542,32.8575182 L73.8896542,26.5038531 C78.6143579,25.9509766 80.5609986,23.7412206 84.4491097,23.7412206 C88.896381,23.7412206 91.6745236,28.1616871 91.6745236,30.9232856 C91.6745236,32.0280841 90.8419876,34.5142386 90.0084175,35.6201507 C90.5634415,36.7260627 90.8419876,38.1063052 90.8419876,38.9357392 L90.8419876,38.9357392 Z M87.7833104,50.5381913 L87.5057984,49.4333133 L88.6178349,49.1568353 L88.895347,50.2617133 L87.7833104,50.5381913 Z M81.6710466,49.1569148 C81.1170566,49.1569148 79.448962,48.8804368 79.170416,48.8804368 C78.3358119,48.6039588 77.7798334,48.6039588 77.7798334,47.7755588 C77.7798334,47.2226027 78.3358119,46.9471587 79.17145,46.9461247 C81.1170566,46.9461247 82.5055711,47.4980467 82.5055711,48.3274808 C82.5055711,48.8804368 81.9495926,49.1569148 81.6710466,49.1569148 L81.6710466,49.1569148 Z M70.5555331,48.8804368 L68.887359,47.4990808 L70.5555331,45.8423603 L72.2225937,47.4990808 L70.5555331,48.8804368 Z M65.2757258,44.4599702 C61.3855466,44.4599702 60.5520561,40.8689377 60.5520561,40.5925392 C60.5520561,40.0395832 61.1080346,39.7631052 61.3855466,39.7631052 C61.9416046,39.7631052 62.4976627,40.3160612 62.2191167,41.1443817 C63.0536412,41.1443817 64.1647233,40.5925392 64.1647233,38.9347052 C64.1647233,38.1052712 63.0536412,37.2769507 61.9416046,37.2769507 C61.3855466,37.2769507 60.5520561,37.5534287 60.2745441,37.8299067 C59.718486,35.6191167 58.8849955,34.7907962 58.6064495,34.2388742 C57.4953674,33.4104742 57.4953674,33.4104742 57.2168214,34.5153522 C56.6608429,36.1731067 56.9393889,36.7260627 57.2168214,38.3827832 C56.6608429,38.3827832 54.4387583,38.6602952 54.4387583,40.5935732 C54.4387583,41.9748497 55.2722488,42.5278057 55.8283068,42.5278057 C56.3843649,42.5278057 56.9404229,42.2513277 57.2179349,41.9748497 C56.6618769,41.6983717 56.6618769,41.6983717 56.6618769,41.4218937 C56.6618769,41.1454157 57.2179349,40.5935732 57.4953674,40.5935732 C58.3289375,40.5935732 58.6064495,41.4218937 58.6064495,42.2502937 C58.6064495,44.4610042 56.9393889,45.5658823 55.2722488,45.5658823 C53.0492097,45.5658823 51.9381276,43.9080482 51.9381276,43.0797277 C53.6051882,43.0797277 54.4387583,44.4610042 54.7162703,45.0139603 L55.2722488,44.7374822 L51.9381276,36.7260627 L51.3820696,37.0025407 C51.9381276,37.8319747 52.2166737,38.6602952 52.2166737,38.9367732 C52.2166737,39.7651732 51.6606156,40.8700512 51.1045576,40.8700512 C50.5485791,40.5935732 50.5485791,40.3181292 50.5485791,38.9367732 C50.5485791,38.1073392 50.8271251,36.7260627 51.3820696,35.6211847 C50.5485791,34.5163862 49.715009,32.0302317 49.715009,30.9243197 C49.715009,28.1627211 51.9381276,24.0187326 56.6618769,24.0187326 C60.5520561,24.0187326 61.6640926,26.2295227 67.4988444,26.7813651 L67.4988444,32.8595862 C67.2213324,33.1360642 66.6652744,33.4125422 66.3878419,33.4125422 L66.3878419,33.9654982 C68.0549025,35.3467747 69.165905,35.3467747 69.444451,37.8329292 C67.4988444,37.8329292 66.6652744,37.2800527 65.5542718,34.7938982 L64.7196678,34.7938982 L64.7196678,43.6336382 L65.2757258,43.6336382 L65.2757258,43.6315702 C66.1092959,41.9738157 67.2213324,40.5925392 69.165905,40.5925392 C68.887359,42.5267717 68.0549025,44.4599702 65.2757258,44.4599702 L65.2757258,44.4599702 Z M62.2191167,48.8804368 C61.6630586,48.8804368 59.995998,49.1569148 59.718486,49.1569148 C59.162428,49.1569148 58.8839615,48.8804368 58.8839615,48.3274808 C58.8839615,47.4980467 60.2735101,46.9461247 62.2180827,46.9461247 C63.0526072,46.9471587 63.6086652,47.2226027 63.6086652,47.7755588 C63.6086652,48.6039588 63.0526072,48.6039588 62.2191167,48.8804368 L62.2191167,48.8804368 Z M53.3267217,50.5381913 L52.2156397,50.2617133 L52.7706637,49.1568353 L53.8816662,49.4333133 L53.3267217,50.5381913 Z M70.8329656,24.5706546 C70.2769871,24.5706546 69.999475,24.2941766 70.0005062,23.7422546 C70.0005062,23.1903326 70.2780211,22.9139341 70.8329656,22.9139341 C71.1104776,22.9139341 71.3890236,23.1893781 71.3890236,23.7422546 C71.3890236,24.2941766 71.1115116,24.5706546 70.8329656,24.5706546 L70.8329656,24.5706546 Z M70.8329656,26.7803311 C70.2769871,26.7803311 69.999475,26.2284886 70.0005062,25.9520106 C70.0005062,25.4000886 70.2780211,25.1236106 70.8329656,25.1236106 C71.1104776,25.1236106 71.3890236,25.4000886 71.3890236,25.9520106 C71.3890236,26.2284886 71.1115116,26.7803311 70.8329656,26.7803311 L70.8329656,26.7803311 Z M70.8329656,28.7146432 C70.2769871,28.7146432 69.999475,28.4381651 70.0005062,28.1616871 C70.0005062,27.6097651 70.2780211,27.3332871 70.8329656,27.3332871 C71.1104776,27.3332871 71.3890236,27.6087311 71.3890236,28.1616871 C71.3890236,28.4381651 71.1115116,28.7146432 70.8329656,28.7146432 L70.8329656,28.7146432 Z M71.3890236,32.0291181 C71.3890236,32.5820742 71.1115116,32.8585522 70.8329656,32.8585522 C70.2769871,32.8585522 69.999475,32.5820742 70.0005062,32.0291181 C70.0005062,31.7537537 70.2780211,31.4772757 70.8329656,31.4772757 C71.1104776,31.4772757 71.3890236,31.7527197 71.3890236,32.0291181 L71.3890236,32.0291181 Z M70.8329656,30.9243197 C70.2769871,30.9243197 69.999475,30.6478416 70.0005062,30.0959196 C70.0005062,29.8194416 70.2780211,29.2664856 70.8329656,29.2664856 C71.1104776,29.2664856 71.3890236,29.8194416 71.3890236,30.0959196 C71.3890236,30.6478416 71.1115116,30.9243197 70.8329656,30.9243197 L70.8329656,30.9243197 Z M68.0538684,20.4277796 C67.4978104,20.4277796 67.4978104,20.1513016 67.4978104,19.8748236 C67.4978104,19.5983456 67.7763564,19.3218676 68.887359,19.3218676 C69.999475,19.3218676 69.999475,19.3218676 69.999475,18.4934676 L69.999475,17.6650676 C69.999475,16.8357131 70.2769871,16.8357131 70.8329656,16.8357131 C71.1115116,16.8357131 71.3890236,16.8357131 71.3890236,17.6650676 L71.3890236,18.4934676 C71.3890236,19.3218676 71.3890236,19.3218676 72.5011397,19.3218676 C73.6131762,19.3218676 74.1671662,19.5983456 74.1671662,19.8748236 C74.1671662,20.1513016 73.8886202,20.4277796 73.3346302,20.4277796 C73.3346302,20.4277796 71.1104776,20.1513016 70.8319316,20.1513016 C70.2769871,20.1513016 68.0538684,20.4277796 68.0538684,20.4277796 L68.0538684,20.4277796 Z M95.0096788,31.1997637 C94.7332008,31.1997637 93.8997103,31.1997637 93.3436522,31.4762417 L93.3436522,30.0948856 C93.8997103,30.0948856 94.1781767,30.3713636 94.7342348,30.3713636 C95.5666913,30.0948856 96.1227493,29.5419296 95.8442033,28.7146432 C95.8442033,27.8852091 95.0096788,27.3332871 94.4536207,27.3332871 C93.8996307,27.6097651 93.3436522,27.8852091 93.0651062,28.1616871 C93.0651062,27.8852091 92.7865602,27.3332871 92.5090481,27.0568091 C93.0651062,27.0568091 93.3436522,27.0568091 93.6211642,26.7803311 C94.4536207,26.5038531 94.7332008,25.6755326 94.4536207,25.1236106 C94.1771427,24.2941766 93.3436522,24.0187326 92.5090481,24.2941766 C92.2305021,24.5706546 91.6745236,24.8471326 91.3970116,25.4000886 C91.1184656,25.1236106 90.8430216,24.5706546 90.5644756,24.2941766 C90.8430216,24.2941766 91.3970116,24.0176986 91.6744441,23.7422546 C92.2305021,23.1893781 91.9529901,22.3609781 91.3959776,21.8080221 C90.8808822,21.2710534 90.0279841,21.2533162 89.4910155,21.7684116 C89.4775734,21.7812969 89.4642903,21.7945004 89.451405,21.8080221 C89.172859,22.3609781 88.895347,22.9129001 88.895347,23.4648221 C88.6168009,23.1883441 88.0607429,22.9129001 87.5047644,22.6364221 C88.0607429,22.3599441 88.3392889,22.0834661 88.6168009,21.5315441 C88.895347,20.9796221 88.6168009,20.1502676 87.7822764,19.8748236 C86.9497404,19.5983456 86.1162498,19.8748236 85.8377038,20.7041781 C85.5591578,20.9806561 85.8377038,21.8090561 86.1161703,22.3609781 C85.2816458,22.0845001 84.7255877,22.0845001 84.1715977,22.0845001 C84.4480757,21.8080221 84.7255877,21.2561001 84.7255877,20.9796221 C84.7255877,20.1502676 83.8910632,19.5983456 83.3370732,19.5983456 C82.5024691,19.5983456 81.6689786,20.1502676 81.6689786,20.9796221 C81.6689786,21.5315441 82.2249571,22.0845001 82.5035031,22.3609781 C81.9475246,22.6374561 81.1149886,22.9139341 80.5589305,22.9139341 C80.5589305,22.6374561 80.8354085,22.0845001 80.5589305,21.8090561 C80.2803845,20.9806561 79.446894,20.4277796 78.890836,20.7041781 C78.0563114,20.9806561 77.5023214,21.8090561 77.7787994,22.3609781 C78.0573454,22.9139341 78.3348575,23.4657766 78.890836,23.7422546 C78.3348575,23.7422546 77.7787994,24.0187326 77.5023214,24.2941766 C77.2227414,24.2941766 76.9462634,24.2941766 76.6677173,24.5706546 C77.2217074,24.0176986 77.2217074,23.1893781 76.9462634,22.6364221 C76.9462634,22.0834661 76.1117388,21.5315441 75.2781688,21.8080221 C74.4436443,22.0845001 74.1661322,22.6364221 74.4436443,23.4648221 C74.4436443,24.0176986 74.9996228,24.5696206 75.5556808,24.8460986 C74.1650982,25.1225766 73.6111082,24.8460986 73.6111082,24.8460986 L73.6111082,23.4657766 L73.0550502,22.9139341 C73.8875862,21.8090561 74.4436443,21.5325781 74.4436443,19.8748236 C74.4436443,18.4934676 73.8875862,17.1121911 73.0550502,16.5602691 C71.9430136,16.0073131 71.3869556,14.625957 71.3869556,14.0730806 L71.3869556,13.5211585 C71.9430136,13.5211585 73.0550502,13.5211585 73.6111082,13.7976366 L73.6111082,10.75956 C72.4990717,11.58796 71.9430136,11.58796 71.3869556,11.58796 L71.3869556,10.75956 C71.3869556,10.483082 71.9430136,9.65468201 72.2215596,9.10180554 L69.165905,9.10180554 C69.444451,9.65468201 70.0005091,10.483082 70.0005091,10.75956 L70.0005091,11.58796 C69.444451,11.58796 68.6109605,11.58796 67.4988444,11.035004 L67.4988444,13.7976366 C68.3334485,13.5211585 69.165905,13.5211585 70.0005091,13.5211585 L70.0005091,14.0730806 C70.0005091,14.625957 69.165905,16.0073131 68.3334485,16.8357131 C67.4988444,17.1121911 66.9438204,18.4934676 66.9438204,19.8748236 C66.9438204,21.5315441 67.4988444,21.8090561 68.3334485,22.9139341 L67.4988444,23.4657766 L67.4988444,24.8471326 C67.4988444,24.8471326 67.2213324,25.1236106 65.8317838,24.8471326 C66.3878419,24.5706546 66.9438999,24.0187326 66.9438999,23.4657766 C67.2213324,22.9139341 66.6653539,22.0845001 66.1092959,21.8090561 C65.2757258,21.5325781 64.4422353,22.0855341 64.1636893,22.6374561 C64.1636893,23.129167 64.1641665,23.8383379 64.3600714,24.3782495 C64.4111355,24.4192121 64.4422353,24.4800595 64.4422353,24.5716886 C64.4113741,24.510523 64.3844899,24.44546 64.3600714,24.3782495 C64.2572273,24.2956878 64.0716625,24.2952106 63.8861772,24.2952106 C63.3311532,24.0187326 63.0526072,24.0187326 62.4966287,23.7432886 C63.0526072,23.4668106 63.3311532,22.9149681 63.6086652,22.6384901 C63.6086652,21.8100901 63.3311532,20.9816901 62.4966287,20.7052121 C61.6630586,20.4288136 61.1070801,20.9816901 60.8295681,21.8100901 C60.5520561,22.0865681 60.5520561,22.6384901 60.8295681,23.1913666 C60.2735101,22.9149681 59.43994,22.6384901 58.6064495,22.3630461 C59.1625075,22.0865681 59.440974,21.5336121 59.440974,20.9816901 C59.440974,20.1523356 58.8849955,19.6004136 58.0514255,19.6004136 C57.2169009,19.6004136 56.6618769,20.1523356 56.6618769,20.9816901 C56.6618769,21.2581681 56.9404229,21.8100901 57.2179349,22.3630461 C56.6618769,22.0865681 55.8283068,22.3630461 55.2723283,22.3630461 C55.5507948,21.8100901 55.5507948,21.2581681 55.5507948,20.7062461 C55.2723283,19.8768916 54.1612463,19.6014476 53.6062222,19.8768916 C52.7727317,20.1532901 52.4941857,20.9816901 52.7727317,21.8111241 C53.0502437,22.0876021 53.3287898,22.6395241 53.6062222,22.6395241 C53.3277557,22.9160021 52.7727317,23.1924006 52.2166737,23.4678446 C52.4941857,22.9160021 52.2166737,22.3630461 51.9381276,21.8111241 C51.3821491,21.2581681 50.5485791,21.2581681 49.715009,21.8111241 C49.1590305,22.3640801 49.1590305,23.1924006 49.715009,23.7453566 C49.9935551,24.0218346 50.5485791,24.2972786 50.8271251,24.5737566 C50.5485791,24.8502346 50.2710671,25.1267126 49.715009,25.4031907 C49.715009,24.8502346 49.1590305,24.5737566 48.8815185,24.2972786 C48.0479485,24.0208006 47.2144579,24.2972786 46.9359119,25.1267126 C46.6573659,25.9551127 46.9359119,26.7834331 47.769482,27.0609452 L48.8815185,27.0609452 C48.6040065,27.3374232 48.3254605,27.8893452 48.3254605,28.1658232 C48.0469144,27.8893452 47.49197,27.6128672 46.9359119,27.6128672 C46.1023419,27.3363892 45.5463634,27.8893452 45.5463634,28.7177452 C45.2678173,29.5460657 45.8248298,30.3744657 46.6573659,30.3744657 C47.2134239,30.3744657 47.49197,30.3744657 48.0469144,30.0979877 L48.0469144,31.4793437 C47.4909359,31.2028657 46.6573659,31.2028657 46.1023419,31.4793437 C45.5463634,31.7557422 45.2678173,32.5841422 45.5463634,33.1360642 C45.8248298,33.9654982 46.6573659,34.2409422 47.2134239,33.9654982 C47.769482,33.9654982 48.0469144,33.4125422 48.3254605,33.1360642 C48.6040065,33.9654982 48.8815185,34.5174202 48.8815185,34.5174202 L48.8815185,34.7938982 L47.2144579,34.7938982 C46.6583999,35.0692627 46.1033759,35.8986967 46.3808879,36.7281307 C46.6583999,37.2810867 47.493004,37.5575647 48.0479485,37.5575647 L47.769482,38.3858852 L52.2166737,48.8835388 L51.6595816,50.5381913 L53.0492097,51.0911473 L53.8827002,52.7489018 C58.8839615,51.0901133 65.2757258,50.2617133 70.8329656,50.2617133 L70.8329656,50.2617133 C76.1138069,50.2617133 82.5045371,51.0901133 87.5057984,52.7478678 L88.3403229,51.0901133 L89.7309055,50.5371573 L89.174927,48.8804368 L93.6221187,38.3827832 L93.3436522,37.5544627 C93.8996307,37.5544627 94.7342348,37.2779847 95.0096788,36.7250287 C95.2882248,35.8955947 94.7332008,35.0672742 94.1771427,34.7907962 C93.6554456,34.5143977 93.0307453,34.5143977 92.5090481,34.7907962 L92.5090481,34.5143182 C92.5090481,34.5143182 92.7875942,33.9623962 93.0651062,33.1329622 L93.8996307,33.9623962 C94.7342348,34.2388742 95.5657368,33.9623962 95.8442033,33.1329622 C96.1227493,32.5810401 95.8442033,31.7516857 95.0096788,31.1997637 L95.0096788,31.1997637 Z" id="Fill-2" fill="#0B0F17"></path>
                    <path d="M55.8272887,118.21965 C55.8272887,118.21965 56.1058348,122.362604 56.1058348,126.782991 C56.1058348,130.928014 55.8272887,136.175767 55.8272887,136.175767 L60.273526,136.175767 C60.273526,136.175767 59.9949799,130.375058 59.9949799,126.782991 C59.9949799,123.192993 60.273526,118.21965 60.273526,118.21965 L55.8272887,118.21965 Z" id="Fill-4" fill="#0B0F17"></path>
                    <path d="M59.7185019,126.782991 C59.7185019,126.782991 62.4966446,123.744915 63.6086811,122.362525 L66.9438363,118.21965 L69.7219789,118.21965 C69.7219789,118.21965 64.7196837,124.020359 63.6086811,125.124203 C62.682448,125.861292 61.7560558,126.598222 60.8295045,127.334913 L59.7185019,126.782991 Z" id="Fill-6" fill="#0B0F17"></path>
                    <path d="M63.6086732,151.646716 C63.6086732,151.646716 64.1647312,150.264405 64.7207097,148.332161 C65.5542798,146.121451 66.3878498,145.015539 66.3878498,145.015539 C66.3878498,145.015539 67.2213403,147.226329 67.7773984,148.884083 L68.8884009,151.646716 L71.3890316,151.646716 C71.3890316,151.646716 70.278029,149.160561 69.1659129,146.949851 C68.6099344,145.567461 67.4988524,142.252906 67.4988524,142.252906 L66.3878498,142.252906 C66.3878498,142.252906 64.1647312,147.225295 63.6086732,148.607605 C63.0526151,149.987927 62.2191246,151.645682 62.2191246,151.645682 L63.6086732,151.645682 L63.6086732,151.646716 Z M52.7706717,142.252906 L54.9937903,142.252906 C54.9937903,142.252906 54.7152442,144.463696 54.7152442,145.842905 C54.7152442,147.225215 54.4377322,151.09376 57.4943414,151.09376 C59.71746,151.09376 60.273518,149.159527 60.273518,147.225215 C60.273518,145.567461 59.994972,142.252906 59.994972,142.252906 L61.3845205,142.252906 L61.3845205,146.673373 C61.3845205,148.883049 61.3845205,151.92216 56.9383629,151.92216 C52.7696376,151.92216 52.7696376,148.607605 52.7696376,147.777137 L52.7706717,142.252906 Z M30.262053,118.219681 L34.1522322,118.219681 L34.1522322,125.402701 C34.1522322,128.165333 33.3187417,135.069886 38.8759815,135.069886 C43.3222187,135.069886 43.8781972,131.479888 43.8781972,127.888855 L43.8781972,118.219681 L46.3788278,118.219681 L46.3788278,126.783023 C46.1013158,130.927966 46.3788278,136.452197 38.0424114,136.452197 C29.7060745,136.452197 30.262053,130.37501 30.262053,128.993733 L30.262053,118.219681 Z M62.7751031,125.679179 L70.276995,136.175799 L65.5532458,136.175799 L59.996006,127.888855 L59.718494,126.783023 L62.7751031,125.679179 Z" id="Fill-8" fill="#0B0F17"></path>
                    <path d="M78.6143818,136.175743 C78.6143818,136.175743 79.4489859,133.41311 81.1170805,129.821044 C82.505595,125.954567 83.6176316,123.468413 83.6176316,123.468413 C83.6176316,123.468413 85.5622041,127.888879 86.6743202,130.651512 C87.5067767,133.414144 88.6188928,136.175743 88.6188928,136.175743 L93.0660845,136.175743 C93.0660845,136.175743 91.1194439,131.478878 89.1759053,127.058411 C88.0638688,124.572257 85.8417842,118.219626 85.8417842,118.219626 L83.6196996,118.219626 C83.6196996,118.219626 79.4509744,127.888879 78.6164498,130.651512 C77.5064018,133.137666 76.1158192,136.175743 76.1158192,136.175743 L78.6143818,136.175743 Z" id="Fill-10" fill="#0B0F17"></path>
                    <path d="M34.4297601,164.905912 C34.4297601,164.905912 34.9858182,163.248158 35.8193087,161.315914 C36.3753667,159.381681 37.2088572,157.999371 37.2088572,157.999371 C37.2088572,157.999371 38.0424273,160.485525 38.5984853,161.867836 C38.9945107,162.871063 39.3653221,163.884073 39.7105219,164.905912 L42.2111525,164.905912 L39.9880339,159.933603 C39.4319759,158.551213 38.3209733,155.236738 38.3209733,155.236738 L37.2099708,155.236738 C37.2099708,155.236738 34.9868522,160.485525 34.4307941,161.867836 C33.8747361,163.248158 33.0412456,164.905912 33.0412456,164.905912 L34.4297601,164.905912 Z M80.0039304,130.92799 L87.7832547,130.92799 L87.7832547,129.269201 L80.0039304,129.269201 L80.0039304,130.92799 Z" id="Fill-12" fill="#0B0F17"></path>
                    <path d="M54.9937505,164.905912 C54.9937505,164.905912 55.5498085,163.248158 56.3832991,161.315914 C57.2168691,159.381681 57.7729272,157.999371 57.7729272,157.999371 C57.7729272,157.999371 58.8839297,160.485525 59.4399877,161.867836 C59.9959662,163.248158 60.2734782,164.905912 60.2734782,164.905912 L62.7741089,164.905912 C62.7741089,164.905912 61.6620723,162.419758 60.8285023,159.933603 C60.2724442,158.551213 58.8828957,155.236738 58.8828957,155.236738 L57.7718136,155.236738 C57.7718136,155.236738 55.5487745,160.485525 54.9927165,161.867836 C54.4366584,163.248158 53.6031679,164.905912 53.6031679,164.905912 L54.9937505,164.905912 Z M35.2643085,162.14328 L39.4319997,162.14328 L39.4319997,161.315914 L35.2643085,161.315914 L35.2643085,162.14328 Z" id="Fill-14" fill="#0B0F17"></path>
                    <mask id="mask-2" fill="white">
                        <use xlink:href="#path-1"></use>
                    </mask>
                    <g id="Clip-17"></g>
                    <polygon id="Fill-16" fill="#0B0F17" mask="url(#mask-2)" points="64.4422035 148.884123 68.6098947 148.884123 68.6098947 148.055723 64.4422035 148.055723"></polygon>
                    <path d="M20.5962378,164.966933 C20.5962378,164.966933 20.5964378,164.964933 20.5966378,164.964333 L20.5962378,164.964333 L20.5962378,164.966933 Z" id="Fill-18" fill="#0B0F17" mask="url(#mask-2)"></path>
                    <path d="M31.0956151,155.235672 L29.9846126,155.235672 L28.3164385,158.550227 C27.76046,159.656059 26.3718659,161.866849 26.3718659,161.866849 C26.3718659,161.866849 25.5383754,160.209015 24.9823173,158.828773 C24.4262593,157.722861 23.0367107,155.236706 23.0367107,155.236706 L21.9257082,155.236706 C21.9257082,155.236706 21.3696501,158.551261 21.3696501,159.933571 C21.0926949,161.031211 20.5424432,164.861816 20.5362392,164.904926 L21.6471622,164.904926 C21.6471622,164.904926 21.9246742,162.970693 22.2032202,161.590371 C22.2032202,160.207981 22.4807322,158.550227 22.4807322,158.550227 C22.4807322,158.550227 23.3142227,160.484459 23.8702808,161.314927 C24.4253048,162.418692 25.8148534,164.904926 25.8148534,164.904926 L26.0933994,164.904926 C26.0933994,164.904926 27.2054359,162.970614 27.76046,161.590371 L29.4275205,158.273749 C29.4275205,158.273749 29.7060666,160.484459 29.7060666,161.590371 C29.7060666,162.418692 29.9846126,164.904926 29.9846126,164.904926 L32.2076517,164.904926 C32.2076517,164.904926 31.9302192,161.865815 31.6516732,160.207981 C31.3741611,158.827739 31.0956151,155.235672 31.0956151,155.235672" id="Fill-19" fill="#0B0F17" mask="url(#mask-2)"></path>
                    <path d="M42.4886486,146.949827 C42.4886486,144.187194 43.8781972,142.804804 45.8227698,142.804804 C47.4898304,142.804804 48.8794585,144.187194 48.8794585,146.949827 C48.8794585,149.712459 47.4898304,151.094849 45.8227698,151.094849 C43.8781972,151.093815 42.4886486,149.987903 42.4886486,146.949827 L42.4886486,146.949827 Z M49.1579249,154.684768 L51.1035315,153.856448 L47.4908644,151.646692 L47.4908644,151.646692 C49.713983,151.09477 51.1035315,149.160537 51.1035315,146.949827 C51.1035315,143.91175 48.8804925,141.977518 45.8238038,141.977518 C42.7671947,141.977518 40.26553,144.188228 40.26553,146.949827 C40.26553,149.987903 42.7661606,151.922136 45.5452578,151.922136 L49.1579249,154.684768 Z" id="Fill-20" fill="#0B0F17" mask="url(#mask-2)"></path>
                    <path d="M86.3957742,143.080272 C86.3957742,143.080272 86.6743202,145.842905 86.6743202,147.225295 C86.6743202,148.331127 86.3957742,151.645682 86.3957742,151.645682 L88.6178588,151.645682 L88.6178588,146.948817 L88.6178588,143.080272 L89.7298953,143.080272 C90.2859534,143.080272 91.1184894,143.358818 91.1184894,143.358818 L91.1184894,142.252906 L83.8930756,142.252906 L83.8930756,142.252906 L83.8930756,143.358818 C83.8930756,143.358818 84.7276796,143.080272 85.2837377,143.080272 L86.3957742,143.080272 Z" id="Fill-21" fill="#0B0F17" mask="url(#mask-2)"></path>
                    <polygon id="Fill-22" fill="#0B0F17" mask="url(#mask-2)" points="95.0086368 151.646732 97.2327894 151.646732 97.2327894 147.22531 100.289399 142.252922 98.89985 142.252922 96.6767314 146.397944 94.4525788 142.252922 92.2304942 142.252922 92.2304942 142.5294 95.0086368 147.501709"></polygon>
                    <path d="M51.3821094,158.275793 L51.3821094,161.867859 C51.3821094,161.867859 49.4375368,159.933547 48.8814787,159.105227 C48.0479882,158.274759 45.2688116,155.236682 45.2688116,155.236682 L43.879263,155.236682 L43.879263,159.933547 C43.879263,161.591381 43.600717,164.905936 43.600717,164.905936 L43.600717,164.907924 L44.9902655,164.907924 C44.9902655,164.907924 44.7128331,162.145371 44.7128331,161.039459 C44.7128331,159.934581 44.9902655,158.276827 44.9902655,158.276827 C44.9902655,158.276827 46.9348381,159.934581 48.0469542,161.316971 C49.4365028,162.972658 51.3810754,164.90697 51.3810754,164.90697 L52.4941459,164.90697 L52.4941459,155.237716 L51.3821094,155.237716 L51.3821094,158.275793 Z" id="Fill-23" fill="#0B0F17" mask="url(#mask-2)"></path>
                    <path d="M78.3358437,150.816279 L75.0017226,150.816279 C75.0017226,150.816279 74.7231766,148.055715 74.7231766,146.673325 C74.7231766,145.567492 75.0017226,142.252938 75.0017226,142.252938 L72.778604,142.252938 L72.778604,151.646747 L78.3358437,151.646747 L78.3358437,150.816279 Z" id="Fill-24" fill="#0B0F17" mask="url(#mask-2)"></path>
                    <polygon id="Fill-25" fill="#0B0F17" mask="url(#mask-2)" points="82.2260229 146.949827 82.2260229 142.252962 80.0039383 142.252962 80.0039383 151.646692 82.2260229 151.646692"></polygon>
                    <path d="M94.7331849,155.236674 L94.7331849,155.236674 L94.7331849,164.905928 L100.290425,164.905928 L100.290425,163.800016 L96.9563035,163.800016 L96.9563035,160.485461 C96.9563035,160.485461 97.5123615,160.208983 98.344818,160.208983 C98.9008761,160.208983 100.291459,160.485461 100.291459,160.485461 L100.291459,159.381697 L96.9573375,159.381697 L96.9573375,156.067142 L98.345852,156.067142 C99.1804561,156.067142 100.292493,156.34362 100.292493,156.34362 L100.292493,155.237708 L97.51435,155.237708 L94.7331849,155.236674 Z" id="Fill-26" fill="#0B0F17" mask="url(#mask-2)"></path>
                    <polygon id="Fill-27" fill="#0B0F17" mask="url(#mask-2)" points="55.8273206 162.143295 59.9960458 162.143295 59.9960458 161.315929 55.8273206 161.315929"></polygon>
                    <path d="M91.673426,155.235672 L90.5634575,155.235672 L88.8953629,158.550227 L87.2292568,161.866849 C87.2292568,161.866849 86.3957662,160.209015 85.5611622,158.828773 C85.0051837,157.722861 83.8930676,155.236706 83.8930676,155.236706 L82.7830991,155.236706 C82.7830991,155.236706 82.227041,158.551261 82.227041,159.933571 C81.9500858,161.031211 81.3988001,164.861816 81.392596,164.904926 L82.503519,164.904926 C82.503519,164.904926 82.7820651,162.970693 82.7820651,161.590371 C83.0595771,160.207981 83.3380436,158.550227 83.3380436,158.550227 C83.3380436,158.550227 84.1726476,160.484459 84.7266377,161.314927 C85.2826162,162.418692 86.3947322,164.904926 86.3947322,164.904926 L86.9507903,164.904926 C86.9507903,164.904926 87.7832468,162.970614 88.3393048,161.590371 C89.1738294,160.484459 90.2859454,158.273749 90.2859454,158.273749 L90.2859454,161.590371 C90.5634575,162.418692 90.8419239,164.904926 90.8419239,164.904926 L93.0640085,164.904926 C93.0640085,164.904926 92.50803,161.865815 92.50803,160.207981 C92.229484,158.827739 91.673426,155.235672 91.673426,155.235672" id="Fill-28" fill="#0B0F17" mask="url(#mask-2)"></path>
                    <path d="M106.403738,125.402701 C104.181654,124.296868 103.347129,122.916546 103.347129,122.086078 C103.347129,120.982314 103.903108,119.599924 106.125192,119.599924 C108.347277,119.599924 109.181801,121.534156 109.181801,121.534156 L109.737859,121.810634 L110.293918,119.048002 L110.293918,119.048002 C110.293918,119.048002 108.903335,117.944158 106.125192,117.945191 C101.677921,117.945191 100.011895,121.259746 100.011895,123.469423 C100.011895,125.679179 101.677921,127.335899 103.624562,128.441811 C105.569214,129.269098 108.071833,130.376044 108.071833,132.03173 C108.071833,133.966042 107.237229,135.069807 104.459166,135.069807 C101.678955,134.793408 101.122977,132.307174 101.122977,132.307174 L100.846499,132.307174 L100.011895,135.345251 C100.011895,135.345251 100.846499,136.451163 104.459166,136.451163 C108.348311,136.451163 111.128442,134.240452 111.128442,130.926932 C111.128442,127.613411 108.625823,126.231101 106.403738,125.402701" id="Fill-29" fill="#0B0F17" mask="url(#mask-2)"></path>
                    <polygon id="Fill-30" fill="#0B0F17" mask="url(#mask-2)" points="112.515978 155.23669 112.515978 156.342602 115.016609 156.342602 115.016609 164.905944 117.240762 164.905944 117.240762 160.208999 117.240762 156.342602 119.741313 156.342602 119.741313 155.23669"></polygon>
                    <path d="M109.737875,158.275793 L109.737875,161.867859 C109.737875,161.867859 107.793303,159.933547 107.237245,159.105227 C106.40272,158.274759 103.624578,155.236682 103.624578,155.236682 L102.233995,155.236682 L102.233995,159.933547 C102.233995,161.591381 101.955449,164.905936 102.233995,164.905936 L102.233995,164.905936 L102.233995,164.907924 L103.347066,164.907924 L103.347066,158.276827 C103.347066,158.276827 105.290604,159.934581 106.681266,161.316971 C107.793303,162.972658 109.737875,164.90697 109.737875,164.90697 L110.849912,164.90697 L110.849912,155.237716 L109.737875,155.237716 L109.737875,158.275793 Z" id="Fill-31" fill="#0B0F17" mask="url(#mask-2)"></path>
                    <path d="M72.5613303,155.848835 L72.5613303,155.848835 L72.5613303,155.848835 Z" id="Fill-32" fill="#0B0F17" mask="url(#mask-2)"></path>
                    <path d="M70.5555013,162.419758 L70.5555013,163.80008 C70.5555013,163.80008 70.5555013,164.078546 68.6109287,164.078546 C66.6663561,164.078546 65.2768075,162.419758 65.2768075,159.933603 C65.2768075,157.722892 66.6653221,156.067126 68.8884407,155.78858 C71.1105253,155.78858 71.9450498,157.17097 71.9450498,157.17097 L72.5011079,155.78866 C72.5007102,155.788421 71.1101276,154.96026 68.6109287,154.961293 C67.2224141,154.961293 63.0536889,156.067126 63.0536889,160.210081 C63.0536889,163.801114 66.110298,164.906946 68.8884407,164.906946 C71.3890713,164.906946 72.5011079,164.355024 72.5011079,164.355024 L72.5011079,162.144314 C72.5011079,161.315914 72.7796539,160.762003 72.7796539,160.762003 L70.5555013,160.762003 L70.5555013,162.419758 Z" id="Fill-33" fill="#0B0F17" mask="url(#mask-2)"></path>
                    <path d="M76.9483393,160.485493 C76.9483393,160.485493 77.5043974,160.209015 78.3368539,160.209015 C78.8929119,160.209015 80.0049485,160.485493 80.0049485,160.485493 L80.0049485,159.381649 L76.9483393,159.381649 L76.9483393,156.067095 L78.3368539,156.067095 C78.8929119,156.067095 80.0049485,156.343573 80.0049485,156.343573 L80.0049485,155.23774 L77.5043974,155.23774 L74.7231527,155.236706 L74.7231527,155.236706 L74.7231527,164.90596 L80.2824605,164.90596 L80.2824605,163.800048 L76.9483393,163.800048 L76.9483393,160.485493 Z" id="Fill-34" fill="#0B0F17" mask="url(#mask-2)"></path>
                    <path d="M81.4525788,164.966957 L81.4525788,164.966957 C81.4525788,164.966957 81.4529788,164.964957 81.4529788,164.964357 L81.4525788,164.964357 L81.4525788,164.966957 Z" id="Fill-35" fill="#0B0F17" mask="url(#mask-2)"></path>
                    <path d="M3.83553581,172.103344 L136.164464,172.103344 L136.164464,3.83537673 L3.83553581,3.83537673 L3.83553581,172.103344 Z M0,175.93888 L140,175.93888 L140,0 L0,0 L0,175.93888 Z" id="Fill-36" fill="#0B0F17" mask="url(#mask-2)"></path>
                </g>
            </g>
        </g>
    </g>
</svg>