<?xml version="1.0" encoding="UTF-8"?>
<svg width="70px" height="88px" viewBox="0 0 70 88" version="1.1" xmlns="http://www.w3.org/2000/svg" xmlns:xlink="http://www.w3.org/1999/xlink">
    <title>5224B106-3637-448B-BE08-54804DDF449F</title>
    <defs>
        <polygon id="path-1" points="0 87.9694399 70 87.9694399 70 0 0 0"></polygon>
    </defs>
    <g id="Page-1" stroke="none" stroke-width="1" fill="none" fill-rule="evenodd">
        <g id="Service:-CYLINDER-TESTING" transform="translate(-1052, -505)">
            <g id="Group-Copy" transform="translate(1052, 505)">
                <g id="UKAS-logo-Copy" transform="translate(0, -0)">
                    <polygon id="Fill-1" fill="#0B0F17" points="52.2290659 18.9154505 33.6106662 44.8829871 24.1622132 32.5898571 24.1622132 45.8501034 33.6106662 55.9324832 52.2290659 28.7223863"></polygon>
                    <g id="Group-37">
                        <path d="M45.4209938,19.4678696 C45.4209938,20.1585476 45.4209938,20.2962298 45.1429648,20.4344688 C44.8649755,20.4344688 44.7257025,19.8820696 44.7257025,19.4678696 C44.7257025,19.3296306 44.8649755,18.9154306 45.0036918,18.5007533 L44.7257025,18.3625143 L43.0586419,22.3682241 L43.3366312,22.5064631 C43.4759042,22.2299851 43.8916552,21.5393469 44.7257025,21.5393469 C44.7257025,21.9535071 44.1696445,22.7824241 43.0586419,22.7824241 C42.2245549,22.7824241 41.3915416,22.2299851 41.3915416,21.1246299 C41.3915416,20.7104299 41.5308146,20.2962298 41.9465656,20.2962298 C42.0863159,20.2962298 42.3638279,20.5721908 42.3638279,20.7104299 C42.3638279,20.8486689 42.3638279,20.8486689 42.2245549,20.9869079 C42.2245549,21.1251469 42.5025839,21.2633859 42.7806129,21.2633859 C43.0586419,21.2633859 43.6146602,20.9869079 43.6146602,20.2962298 C43.6146602,19.3296306 42.3633109,19.1908746 42.0863159,19.1908746 C42.2245549,18.3625143 42.3633109,18.0860363 42.0863159,17.2571591 C41.9465656,16.7047201 41.9465656,16.7047201 41.3910246,17.1189201 C41.2517516,17.3953583 40.8350063,17.8095583 40.5580113,18.9143966 C40.4182213,18.7761576 40.001993,18.6379583 39.723964,18.6379583 C39.167906,18.6379583 38.6118877,19.0521186 38.6118877,19.4668356 C38.6118877,20.2951958 39.1679457,20.5716738 39.585208,20.5716738 C39.445935,20.1575136 39.724481,19.8810356 40.00251,19.8810356 C40.141783,19.8810356 40.4187383,20.0192746 40.4187383,20.2957128 C40.4187383,20.4339518 40.00251,22.2294681 38.0574204,22.2294681 C36.6683491,22.2294681 36.2510471,21.2623519 36.1123308,20.2957128 C37.0846171,20.2957128 37.7793914,20.9863909 38.0574204,21.8152681 L38.3354097,21.8152681 L38.3354097,17.3953583 L37.9181474,17.3953583 C37.3620894,18.6384753 36.9448271,18.9149136 35.9730578,18.9149136 C36.1123308,17.6718363 36.6683491,17.6718363 37.6401184,16.9811981 L37.6401184,16.7052371 C37.3620894,16.7052371 37.0841001,16.5669981 36.9448271,16.4287591 L36.9448271,13.2519266 C39.307179,12.9754883 40.2804993,11.8706103 42.2245549,11.8706103 C44.4481905,11.8706103 45.8372618,14.0808436 45.8372618,15.4616428 C45.8372618,16.0140421 45.4209938,17.2571193 45.0042088,17.8100753 C45.2817208,18.3630313 45.4209938,19.0531526 45.4209938,19.4678696 L45.4209938,19.4678696 Z M43.8916552,25.2690956 L43.7528992,24.7166566 L44.3089175,24.5784176 L44.4476735,25.1308566 L43.8916552,25.2690956 Z M40.8355233,24.5784574 C40.5585283,24.5784574 39.724481,24.4402184 39.585208,24.4402184 C39.167906,24.3019794 38.8899167,24.3019794 38.8899167,23.8877794 C38.8899167,23.6113014 39.167906,23.4735794 39.585725,23.4730624 C40.5585283,23.4730624 41.2527856,23.7490234 41.2527856,24.1637404 C41.2527856,24.4402184 40.9747963,24.5784574 40.8355233,24.5784574 L40.8355233,24.5784574 Z M35.2777665,24.4402184 L34.4436795,23.7495404 L35.2777665,22.9211801 L36.1112968,23.7495404 L35.2777665,24.4402184 Z M32.6378629,22.2299851 C30.6927733,22.2299851 30.276028,20.4344688 30.276028,20.2962696 C30.276028,20.0197916 30.5540173,19.8815526 30.6927733,19.8815526 C30.9708023,19.8815526 31.2488313,20.1580306 31.1095583,20.5721908 C31.5268206,20.5721908 32.0823616,20.2962696 32.0823616,19.4673526 C32.0823616,19.0526356 31.5268206,18.6384753 30.9708023,18.6384753 C30.6927733,18.6384753 30.276028,18.7767144 30.137272,18.9149534 C29.859243,17.8095583 29.4424978,17.3953981 29.3032247,17.1194371 C28.7476837,16.7052371 28.7476837,16.7052371 28.6084107,17.2576761 C28.3304214,18.0865533 28.4696945,18.3630313 28.6084107,19.1913916 C28.3304214,19.1913916 27.2193791,19.3301476 27.2193791,20.2967866 C27.2193791,20.9874249 27.6361244,21.2639029 27.9141534,21.2639029 C28.1921824,21.2639029 28.4702115,21.1256639 28.6089675,20.9874249 C28.3309384,20.8491859 28.3309384,20.8491859 28.3309384,20.7109469 C28.3309384,20.5727079 28.6089675,20.2967866 28.7476837,20.2967866 C29.1644687,20.2967866 29.3032247,20.7109469 29.3032247,21.1251469 C29.3032247,22.2305021 28.4696945,22.7829411 27.6361244,22.7829411 C26.5246049,22.7829411 25.9690638,21.9540241 25.9690638,21.5398639 C26.8025941,21.5398639 27.2193791,22.2305021 27.3581351,22.5069801 L27.6361244,22.3687411 L25.9690638,18.3630313 L25.6910348,18.5012704 C25.9690638,18.9159874 26.1083368,19.3301476 26.1083368,19.4683866 C26.1083368,19.8825866 25.8303078,20.4350256 25.5522788,20.4350256 C25.2742895,20.2967866 25.2742895,20.1590646 25.2742895,19.4683866 C25.2742895,19.0536696 25.4135626,18.3630313 25.6910348,17.8105923 C25.2742895,17.2581931 24.8575045,16.0151158 24.8575045,15.4621598 C24.8575045,14.0813606 25.9690638,12.0093663 28.3309384,12.0093663 C30.276028,12.0093663 30.8320463,13.1147613 33.7494222,13.3906826 L33.7494222,16.4297931 C33.6106662,16.5680321 33.3326372,16.7062711 33.1939209,16.7062711 L33.1939209,16.9827491 C34.0274512,17.6733873 34.5829525,17.6733873 34.7222255,18.9164646 C33.7494222,18.9164646 33.3326372,18.6400264 32.7771359,17.3969491 L32.3598339,17.3969491 L32.3598339,21.8168191 L32.6378629,21.8168191 L32.6378629,21.8157851 C33.0546479,20.9869079 33.6106662,20.2962696 34.5829525,20.2962696 C34.4436795,21.2633859 34.0274512,22.2299851 32.6378629,22.2299851 L32.6378629,22.2299851 Z M31.1095583,24.4402184 C30.8315293,24.4402184 29.997999,24.5784574 29.859243,24.5784574 C29.581214,24.5784574 29.4419808,24.4402184 29.4419808,24.1637404 C29.4419808,23.7490234 30.136755,23.4730624 31.1090413,23.4730624 C31.5263036,23.4735794 31.8043326,23.6113014 31.8043326,23.8877794 C31.8043326,24.3019794 31.5263036,24.3019794 31.1095583,24.4402184 L31.1095583,24.4402184 Z M26.6633609,25.2690956 L26.1078198,25.1308566 L26.3853318,24.5784176 L26.9408331,24.7166566 L26.6633609,25.2690956 Z M35.4164828,12.2853273 C35.1384935,12.2853273 34.9997375,12.1470883 35.0002531,11.8711273 C35.0002531,11.5951663 35.1390105,11.4569671 35.4164828,11.4569671 C35.5552388,11.4569671 35.6945118,11.5946891 35.6945118,11.8711273 C35.6945118,12.1470883 35.5557558,12.2853273 35.4164828,12.2853273 L35.4164828,12.2853273 Z M35.4164828,13.3901656 C35.1384935,13.3901656 34.9997375,13.1142443 35.0002531,12.9760053 C35.0002531,12.7000443 35.1390105,12.5618053 35.4164828,12.5618053 C35.5552388,12.5618053 35.6945118,12.7000443 35.6945118,12.9760053 C35.6945118,13.1142443 35.5557558,13.3901656 35.4164828,13.3901656 L35.4164828,13.3901656 Z M35.4164828,14.3573216 C35.1384935,14.3573216 34.9997375,14.2190826 35.0002531,14.0808436 C35.0002531,13.8048826 35.1390105,13.6666436 35.4164828,13.6666436 C35.5552388,13.6666436 35.6945118,13.8043656 35.6945118,14.0808436 C35.6945118,14.2190826 35.5557558,14.3573216 35.4164828,14.3573216 L35.4164828,14.3573216 Z M35.6945118,16.0145591 C35.6945118,16.2910371 35.5557558,16.4292761 35.4164828,16.4292761 C35.1384935,16.4292761 34.9997375,16.2910371 35.0002531,16.0145591 C35.0002531,15.8768768 35.1390105,15.7386378 35.4164828,15.7386378 C35.5552388,15.7386378 35.6945118,15.8763598 35.6945118,16.0145591 L35.6945118,16.0145591 Z M35.4164828,15.4621598 C35.1384935,15.4621598 34.9997375,15.3239208 35.0002531,15.0479598 C35.0002531,14.9097208 35.1390105,14.6332428 35.4164828,14.6332428 C35.5552388,14.6332428 35.6945118,14.9097208 35.6945118,15.0479598 C35.6945118,15.3239208 35.5557558,15.4621598 35.4164828,15.4621598 L35.4164828,15.4621598 Z M34.0269342,10.2138898 C33.7489052,10.2138898 33.7489052,10.0756508 33.7489052,9.9374118 C33.7489052,9.79917279 33.8881782,9.66093379 34.4436795,9.66093379 C34.9997375,9.66093379 34.9997375,9.66093379 34.9997375,9.24673378 L34.9997375,8.83253378 C34.9997375,8.41785653 35.1384935,8.41785653 35.4164828,8.41785653 C35.5557558,8.41785653 35.6945118,8.41785653 35.6945118,8.83253378 L35.6945118,9.24673378 C35.6945118,9.66093379 35.6945118,9.66093379 36.2505698,9.66093379 C36.8065881,9.66093379 37.0835831,9.79917279 37.0835831,9.9374118 C37.0835831,10.0756508 36.9443101,10.2138898 36.6673151,10.2138898 C36.6673151,10.2138898 35.5552388,10.0756508 35.4159658,10.0756508 C35.1384935,10.0756508 34.0269342,10.2138898 34.0269342,10.2138898 L34.0269342,10.2138898 Z M47.5048394,15.5998818 C47.3666004,15.5998818 46.9498551,15.5998818 46.6718261,15.7381208 L46.6718261,15.0474428 C46.9498551,15.0474428 47.0890884,15.1856818 47.3671174,15.1856818 C47.7833456,15.0474428 48.0613747,14.7709648 47.9221017,14.3573216 C47.9221017,13.9426046 47.5048394,13.6666436 47.2268104,13.6666436 C46.9498154,13.8048826 46.6718261,13.9426046 46.5325531,14.0808436 C46.5325531,13.9426046 46.3932801,13.6666436 46.2545241,13.5284046 C46.5325531,13.5284046 46.6718261,13.5284046 46.8105821,13.3901656 C47.2268104,13.2519266 47.3666004,12.8377663 47.2268104,12.5618053 C47.0885714,12.1470883 46.6718261,12.0093663 46.2545241,12.1470883 C46.1152511,12.2853273 45.8372618,12.4235663 45.6985058,12.7000443 C45.5592328,12.5618053 45.4215108,12.2853273 45.2822378,12.1470883 C45.4215108,12.1470883 45.6985058,12.0088493 45.837222,11.8711273 C46.1152511,11.5946891 45.9764951,11.1804891 45.6979888,10.904011 C45.4404411,10.6355267 45.0139921,10.6266581 44.7455077,10.8842058 C44.7387867,10.8906485 44.7321452,10.8972502 44.7257025,10.904011 C44.5864295,11.1804891 44.4476735,11.4564501 44.4476735,11.7324111 C44.3084005,11.5941721 44.0303714,11.4564501 43.7523822,11.3182111 C44.0303714,11.179972 44.1696445,11.041733 44.3084005,10.765772 C44.4476735,10.489811 44.3084005,10.0751338 43.8911382,9.9374118 C43.4748702,9.79917279 43.0581249,9.9374118 42.9188519,10.352089 C42.7795789,10.490328 42.9188519,10.904528 43.0580852,11.1804891 C42.6408229,11.04225 42.3627939,11.04225 42.0857989,11.04225 C42.2240379,10.904011 42.3627939,10.62805 42.3627939,10.489811 C42.3627939,10.0751338 41.9455316,9.79917279 41.6685366,9.79917279 C41.2512346,9.79917279 40.8344893,10.0751338 40.8344893,10.489811 C40.8344893,10.765772 41.1124786,11.04225 41.2517516,11.1804891 C40.9737623,11.3187281 40.5574943,11.4569671 40.2794653,11.4569671 C40.2794653,11.3187281 40.4177043,11.04225 40.2794653,10.904528 C40.1401923,10.490328 39.723447,10.2138898 39.445418,10.352089 C39.0281557,10.490328 38.7511607,10.904528 38.8893997,11.1804891 C39.0286727,11.4569671 39.1674287,11.7328883 39.445418,11.8711273 C39.1674287,11.8711273 38.8893997,12.0093663 38.7511607,12.1470883 C38.6113707,12.1470883 38.4731317,12.1470883 38.3338587,12.2853273 C38.6108537,12.0088493 38.6108537,11.5946891 38.4731317,11.3182111 C38.4731317,11.041733 38.0558694,10.765772 37.6390844,10.904011 C37.2218221,11.04225 37.0830661,11.3182111 37.2218221,11.7324111 C37.2218221,12.0088493 37.4998114,12.2848103 37.7778404,12.4230493 C37.0825491,12.5612883 36.8055541,12.4230493 36.8055541,12.4230493 L36.8055541,11.7328883 L36.5275251,11.4569671 C36.9437931,10.904528 37.2218221,10.766289 37.2218221,9.9374118 C37.2218221,9.24673378 36.9437931,8.55609554 36.5275251,8.28013453 C35.9715068,8.00365653 35.6934778,7.31297851 35.6934778,7.03654028 L35.6934778,6.76057927 C35.9715068,6.76057927 36.5275251,6.76057927 36.8055541,6.89881828 L36.8055541,5.37978002 C36.2495358,5.79398002 35.9715068,5.79398002 35.6934778,5.79398002 L35.6934778,5.37978002 C35.6934778,5.24154101 35.9715068,4.82734101 36.1107798,4.55090277 L34.5829525,4.55090277 C34.7222255,4.82734101 35.0002545,5.24154101 35.0002545,5.37978002 L35.0002545,5.79398002 C34.7222255,5.79398002 34.3054802,5.79398002 33.7494222,5.51750202 L33.7494222,6.89881828 C34.1667242,6.76057927 34.5829525,6.76057927 35.0002545,6.76057927 L35.0002545,7.03654028 C35.0002545,7.31297851 34.5829525,8.00365653 34.1667242,8.41785653 C33.7494222,8.55609554 33.4719102,9.24673378 33.4719102,9.9374118 C33.4719102,10.765772 33.7494222,10.904528 34.1667242,11.4569671 L33.7494222,11.7328883 L33.7494222,12.4235663 C33.7494222,12.4235663 33.6106662,12.5618053 32.9158919,12.4235663 C33.1939209,12.2853273 33.47195,12.0093663 33.47195,11.7328883 C33.6106662,11.4569671 33.3326769,11.04225 33.0546479,10.904528 C32.6378629,10.766289 32.2211176,11.0427671 32.0818446,11.3187281 C32.0818446,11.5645835 32.0820832,11.9191689 32.1800357,12.1891247 C32.2055677,12.2096061 32.2211176,12.2400298 32.2211176,12.2858443 C32.205687,12.2552615 32.1922449,12.22273 32.1800357,12.1891247 C32.1286136,12.1478439 32.0358312,12.1476053 31.9430886,12.1476053 C31.6655766,12.0093663 31.5263036,12.0093663 31.2483143,11.8716443 C31.5263036,11.7334053 31.6655766,11.4574841 31.8043326,11.3192451 C31.8043326,10.9050451 31.6655766,10.490845 31.2483143,10.352606 C30.8315293,10.2144068 30.5535401,10.490845 30.4147841,10.9050451 C30.276028,11.0432841 30.276028,11.3192451 30.4147841,11.5956833 C30.136755,11.4574841 29.71997,11.3192451 29.3032247,11.1815231 C29.5812538,11.0432841 29.720487,10.766806 29.720487,10.490845 C29.720487,10.0761678 29.4424978,9.8002068 29.0257127,9.8002068 C28.6084505,9.8002068 28.3309384,10.0761678 28.3309384,10.490845 C28.3309384,10.6290841 28.4702115,10.9050451 28.6089675,11.1815231 C28.3309384,11.0432841 27.9141534,11.1815231 27.6361642,11.1815231 C27.7753974,10.9050451 27.7753974,10.6290841 27.7753974,10.353123 C27.6361642,9.93844581 27.0806231,9.80072381 26.8031111,9.93844581 C26.3863659,10.076645 26.2470928,10.490845 26.3863659,10.9055621 C26.5251219,11.0438011 26.6643949,11.3197621 26.8031111,11.3197621 C26.6638779,11.4580011 26.3863659,11.5962003 26.1083368,11.7339223 C26.2470928,11.4580011 26.1083368,11.1815231 25.9690638,10.9055621 C25.6910746,10.6290841 25.2742895,10.6290841 24.8575045,10.9055621 C24.5795153,11.1820401 24.5795153,11.5962003 24.8575045,11.8726783 C24.9967775,12.0109173 25.2742895,12.1486393 25.4135626,12.2868783 C25.2742895,12.4251173 25.1355335,12.5633563 24.8575045,12.7015953 C24.8575045,12.4251173 24.5795153,12.2868783 24.4407593,12.1486393 C24.0239742,12.0104003 23.607229,12.1486393 23.467956,12.5633563 C23.3286829,12.9775563 23.467956,13.3917166 23.884741,13.5304726 L24.4407593,13.5304726 C24.3020032,13.6687116 24.1627302,13.9446726 24.1627302,14.0829116 C24.0234572,13.9446726 23.745985,13.8064336 23.467956,13.8064336 C23.0511709,13.6681946 22.7731817,13.9446726 22.7731817,14.3588726 C22.6339087,14.7730328 22.9124149,15.1872328 23.3286829,15.1872328 C23.606712,15.1872328 23.745985,15.1872328 24.0234572,15.0489938 L24.0234572,15.7396718 C23.745468,15.6014328 23.3286829,15.6014328 23.0511709,15.7396718 C22.7731817,15.8778711 22.6339087,16.2920711 22.7731817,16.5680321 C22.9124149,16.9827491 23.3286829,17.1204711 23.606712,16.9827491 C23.884741,16.9827491 24.0234572,16.7062711 24.1627302,16.5680321 C24.3020032,16.9827491 24.4407593,17.2587101 24.4407593,17.2587101 L24.4407593,17.3969491 L23.607229,17.3969491 C23.3292,17.5346313 23.0516879,17.9493483 23.1904439,18.3640654 C23.3292,18.6405434 23.746502,18.7787824 24.0239742,18.7787824 L23.884741,19.1929426 L26.1083368,24.4417694 L25.8297908,25.2690956 L26.5246049,25.5455736 L26.9413501,26.3744509 C29.4419808,25.5450566 32.6378629,25.1308566 35.4164828,25.1308566 L35.4164828,25.1308566 C38.0569034,25.1308566 41.2522686,25.5450566 43.7528992,26.3739339 L44.1701615,25.5450566 L44.8654527,25.2685786 L44.5874635,24.4402184 L46.8110593,19.1913916 L46.6718261,18.7772314 C46.9498154,18.7772314 47.3671174,18.6389924 47.5048394,18.3625143 C47.6441124,17.9477973 47.3666004,17.5336371 47.0885714,17.3953981 C46.8277228,17.2571989 46.5153726,17.2571989 46.2545241,17.3953981 L46.2545241,17.2571591 C46.2545241,17.2571591 46.3937971,16.9811981 46.5325531,16.5664811 L46.9498154,16.9811981 C47.3671174,17.1194371 47.7828684,16.9811981 47.9221017,16.5664811 C48.0613747,16.2905201 47.9221017,15.8758428 47.5048394,15.5998818 L47.5048394,15.5998818 Z" id="Fill-2" fill="#0B0F17"></path>
                        <path d="M27.9136444,59.1098248 C27.9136444,59.1098248 28.0529174,61.1813021 28.0529174,63.3914956 C28.0529174,65.4640068 27.9136444,68.0878834 27.9136444,68.0878834 L30.136763,68.0878834 C30.136763,68.0878834 29.99749,65.1875288 29.99749,63.3914956 C29.99749,61.5964963 30.136763,59.1098248 30.136763,59.1098248 L27.9136444,59.1098248 Z" id="Fill-4" fill="#0B0F17"></path>
                        <path d="M29.859251,63.3914956 C29.859251,63.3914956 31.2483223,61.8724573 31.8043406,61.1812623 L33.4719181,59.1098248 L34.8609895,59.1098248 C34.8609895,59.1098248 32.3598418,62.0101793 31.8043406,62.5621013 C31.341224,62.9306459 30.8780279,63.2991109 30.4147522,63.6674566 L29.859251,63.3914956 Z" id="Fill-6" fill="#0B0F17"></path>
                        <path d="M31.8043366,75.8233578 C31.8043366,75.8233578 32.0823656,75.1322026 32.3603549,74.1660805 C32.7771399,73.0607253 33.1939249,72.5077693 33.1939249,72.5077693 C33.1939249,72.5077693 33.6106702,73.6131643 33.8886992,74.4420415 L34.4442005,75.8233578 L35.6945158,75.8233578 C35.6945158,75.8233578 35.1390145,74.5802805 34.5829565,73.4749253 C34.3049672,72.7837303 33.7494262,71.126453 33.7494262,71.126453 L33.1939249,71.126453 C33.1939249,71.126453 32.0823656,73.6126473 31.8043366,74.3038025 C31.5263076,74.9939635 31.1095623,75.8228408 31.1095623,75.8228408 L31.8043366,75.8228408 L31.8043366,75.8233578 Z M26.3853358,71.126453 L27.4968951,71.126453 C27.4968951,71.126453 27.3576221,72.231848 27.3576221,72.9214523 C27.3576221,73.6126075 27.2188661,75.5468798 28.7471707,75.5468798 C29.85873,75.5468798 30.136759,74.5797635 30.136759,73.6126075 C30.136759,72.7837303 29.997486,71.126453 29.997486,71.126453 L30.6922603,71.126453 L30.6922603,73.3366863 C30.6922603,74.4415245 30.6922603,75.9610798 28.4691814,75.9610798 C26.3848188,75.9610798 26.3848188,74.3038025 26.3848188,73.8885685 L26.3853358,71.126453 Z M15.1310265,59.1098407 L17.0761161,59.1098407 L17.0761161,62.7013505 C17.0761161,64.0826667 16.6593708,67.5349432 19.4379907,67.5349432 C21.6611093,67.5349432 21.9390986,65.739944 21.9390986,63.9444277 L21.9390986,59.1098407 L23.1894139,59.1098407 L23.1894139,63.3915115 C23.0506579,65.463983 23.1894139,68.2260985 19.0212057,68.2260985 C14.8530373,68.2260985 15.1310265,65.187505 15.1310265,64.4968667 L15.1310265,59.1098407 Z M31.3875516,62.8395895 L35.1384975,68.0878993 L32.7766229,68.0878993 L29.998003,63.9444277 L29.859247,63.3915115 L31.3875516,62.8395895 Z" id="Fill-8" fill="#0B0F17"></path>
                        <path d="M39.3071909,68.0878714 C39.3071909,68.0878714 39.7244929,66.7065552 40.5585402,64.9105219 C41.2527975,62.9772836 41.8088158,61.7342064 41.8088158,61.7342064 C41.8088158,61.7342064 42.7811021,63.9444396 43.3371601,65.3257559 C43.7533884,66.7070722 44.3094464,68.0878714 44.3094464,68.0878714 L46.5330423,68.0878714 C46.5330423,68.0878714 45.559722,65.7394389 44.5879527,63.5292056 C44.0319344,62.2861284 42.9208921,59.1098129 42.9208921,59.1098129 L41.8098498,59.1098129 C41.8098498,59.1098129 39.7254872,63.9444396 39.3082249,65.3257559 C38.7532009,66.5688332 38.0579096,68.0878714 38.0579096,68.0878714 L39.3071909,68.0878714 Z" id="Fill-10" fill="#0B0F17"></path>
                        <path d="M17.2148801,82.452956 C17.2148801,82.452956 17.4929091,81.6240788 17.9096543,80.6579568 C18.1876834,79.6908405 18.6044286,78.9996853 18.6044286,78.9996853 C18.6044286,78.9996853 19.0212137,80.2427625 19.2992427,80.9339178 C19.4972553,81.4355313 19.682661,81.9420364 19.8552609,82.452956 L21.1055763,82.452956 L19.994017,79.9668015 C19.7159879,79.2756065 19.1604867,77.618369 19.1604867,77.618369 L18.6049854,77.618369 C18.6049854,77.618369 17.4934261,80.2427625 17.2153971,80.9339178 C16.9373681,81.6240788 16.5206228,82.452956 16.5206228,82.452956 L17.2148801,82.452956 Z M40.0019652,65.4639949 L43.8916274,65.4639949 L43.8916274,64.6346007 L40.0019652,64.6346007 L40.0019652,65.4639949 Z" id="Fill-12" fill="#0B0F17"></path>
                        <path d="M27.4968752,82.452956 C27.4968752,82.452956 27.7749043,81.6240788 28.1916495,80.6579568 C28.6084346,79.6908405 28.8864636,78.9996853 28.8864636,78.9996853 C28.8864636,78.9996853 29.4419648,80.2427625 29.7199939,80.9339178 C29.9979831,81.6240788 30.1367391,82.452956 30.1367391,82.452956 L31.3870544,82.452956 C31.3870544,82.452956 30.8310362,81.2098788 30.4142511,79.9668015 C30.1362221,79.2756065 29.4414478,77.618369 29.4414478,77.618369 L28.8859068,77.618369 C28.8859068,77.618369 27.7743873,80.2427625 27.4963582,80.9339178 C27.2183292,81.6240788 26.801584,82.452956 26.801584,82.452956 L27.4968752,82.452956 Z M17.6321543,81.0716398 L19.7159999,81.0716398 L19.7159999,80.6579568 L17.6321543,80.6579568 L17.6321543,81.0716398 Z" id="Fill-14" fill="#0B0F17"></path>
                        <mask id="mask-2" fill="white">
                            <use xlink:href="#path-1"></use>
                        </mask>
                        <g id="Clip-17"></g>
                        <polygon id="Fill-16" fill="#0B0F17" mask="url(#mask-2)" points="32.2211017 74.4420614 34.3049473 74.4420614 34.3049473 74.0278614 32.2211017 74.0278614"></polygon>
                        <path d="M10.2981189,82.4834667 C10.2981189,82.4834667 10.2982189,82.4824667 10.2983189,82.4821667 L10.2981189,82.4821667 L10.2981189,82.4834667 Z" id="Fill-18" fill="#0B0F17" mask="url(#mask-2)"></path>
                        <path d="M15.5478076,77.6178361 L14.9923063,77.6178361 L14.1582192,79.2751133 C13.88023,79.8280296 13.1859329,80.9334246 13.1859329,80.9334246 C13.1859329,80.9334246 12.7691877,80.1045076 12.4911587,79.4143864 C12.2131296,78.8614303 11.5183554,77.6183531 11.5183554,77.6183531 L10.9628541,77.6183531 C10.9628541,77.6183531 10.6848251,79.2756303 10.6848251,79.9667856 C10.5463474,80.5156056 10.2712216,82.4309078 10.2681196,82.4524629 L10.8235811,82.4524629 C10.8235811,82.4524629 10.9623371,81.4853466 11.1016101,80.7951856 C11.1016101,80.1039906 11.2403661,79.2751133 11.2403661,79.2751133 C11.2403661,79.2751133 11.6571114,80.2422296 11.9351404,80.6574636 C12.2126524,81.2093458 12.9074267,82.4524629 12.9074267,82.4524629 L13.0466997,82.4524629 C13.0466997,82.4524629 13.602718,81.4853069 13.88023,80.7951856 L14.7137603,79.1368743 C14.7137603,79.1368743 14.8530333,80.2422296 14.8530333,80.7951856 C14.8530333,81.2093458 14.9923063,82.4524629 14.9923063,82.4524629 L16.1038258,82.4524629 C16.1038258,82.4524629 15.9651096,80.9329076 15.8258366,80.1039906 C15.6870806,79.4138694 15.5478076,77.6178361 15.5478076,77.6178361" id="Fill-19" fill="#0B0F17" mask="url(#mask-2)"></path>
                        <path d="M21.2443243,73.4749134 C21.2443243,72.0935971 21.9390986,71.4024021 22.9113849,71.4024021 C23.7449152,71.4024021 24.4397292,72.0935971 24.4397292,73.4749134 C24.4397292,74.8562296 23.7449152,75.5474246 22.9113849,75.5474246 C21.9390986,75.5469076 21.2443243,74.9939516 21.2443243,73.4749134 L21.2443243,73.4749134 Z M24.5789625,77.3423841 L25.5517658,76.9282239 L23.7454322,75.8233459 L23.7454322,75.8233459 C24.8569915,75.5473849 25.5517658,74.5802686 25.5517658,73.4749134 C25.5517658,71.9558751 24.4402462,70.9887588 22.9119019,70.9887588 C21.3835973,70.9887588 20.132765,72.0941141 20.132765,73.4749134 C20.132765,74.9939516 21.3830803,75.9610679 22.7726289,75.9610679 L24.5789625,77.3423841 Z" id="Fill-20" fill="#0B0F17" mask="url(#mask-2)"></path>
                        <path d="M43.1978871,71.540136 C43.1978871,71.540136 43.3371601,72.9214523 43.3371601,73.6126473 C43.3371601,74.1655635 43.1978871,75.8228408 43.1978871,75.8228408 L44.3089294,75.8228408 L44.3089294,73.4744083 L44.3089294,71.540136 L44.8649477,71.540136 C45.1429767,71.540136 45.5592447,71.679409 45.5592447,71.679409 L45.5592447,71.126453 L41.9465378,71.126453 L41.9465378,71.126453 L41.9465378,71.679409 C41.9465378,71.679409 42.3638398,71.540136 42.6418688,71.540136 L43.1978871,71.540136 Z" id="Fill-21" fill="#0B0F17" mask="url(#mask-2)"></path>
                        <polygon id="Fill-22" fill="#0B0F17" mask="url(#mask-2)" points="47.5043184 75.8233658 48.6163947 75.8233658 48.6163947 73.6126552 50.1446993 71.126461 49.449925 71.126461 48.3383657 73.1989722 47.2262894 71.126461 46.1152471 71.126461 46.1152471 71.2647 47.5043184 73.7508545"></polygon>
                        <path d="M25.6910547,79.1378964 L25.6910547,80.9339297 C25.6910547,80.9339297 24.7187684,79.9667737 24.4407394,79.5526134 C24.0239941,79.1373794 22.6344058,77.6183412 22.6344058,77.6183412 L21.9396315,77.6183412 L21.9396315,79.9667737 C21.9396315,80.7956907 21.8003585,82.4529679 21.8003585,82.4529679 L21.8003585,82.4539622 L22.4951328,82.4539622 C22.4951328,82.4539622 22.3564165,81.0726857 22.3564165,80.5197297 C22.3564165,79.9672907 22.4951328,79.1384134 22.4951328,79.1384134 C22.4951328,79.1384134 23.4674191,79.9672907 24.0234771,80.6584857 C24.7182514,81.4863289 25.6905377,82.453485 25.6905377,82.453485 L26.247073,82.453485 L26.247073,77.6188582 L25.6910547,77.6188582 L25.6910547,79.1378964 Z" id="Fill-23" fill="#0B0F17" mask="url(#mask-2)"></path>
                        <path d="M39.1679219,75.4081397 L37.5008613,75.4081397 C37.5008613,75.4081397 37.3615883,74.0278574 37.3615883,73.3366624 C37.3615883,72.7837462 37.5008613,71.1264689 37.5008613,71.1264689 L36.389302,71.1264689 L36.389302,75.8233737 L39.1679219,75.8233737 L39.1679219,75.4081397 Z" id="Fill-24" fill="#0B0F17" mask="url(#mask-2)"></path>
                        <polygon id="Fill-25" fill="#0B0F17" mask="url(#mask-2)" points="41.1130115 73.4749134 41.1130115 71.1264808 40.0019692 71.1264808 40.0019692 75.8233459 41.1130115 75.8233459"></polygon>
                        <path d="M47.3665924,77.6183372 L47.3665924,77.6183372 L47.3665924,82.452964 L50.1452123,82.452964 L50.1452123,81.900008 L48.4781517,81.900008 L48.4781517,80.2427307 C48.4781517,80.2427307 48.7561808,80.1044917 49.172409,80.1044917 C49.450438,80.1044917 50.1457293,80.2427307 50.1457293,80.2427307 L50.1457293,79.6908485 L48.4786687,79.6908485 L48.4786687,78.0335712 L49.172926,78.0335712 C49.5902281,78.0335712 50.1462463,78.1718102 50.1462463,78.1718102 L50.1462463,77.6188542 L48.757175,77.6188542 L47.3665924,77.6183372 Z" id="Fill-26" fill="#0B0F17" mask="url(#mask-2)"></path>
                        <polygon id="Fill-27" fill="#0B0F17" mask="url(#mask-2)" points="27.9136603 81.0716477 29.9980229 81.0716477 29.9980229 80.6579647 27.9136603 80.6579647"></polygon>
                        <path d="M45.836713,77.6178361 L45.2817287,77.6178361 L44.4476814,79.2751133 L43.6146284,80.9334246 C43.6146284,80.9334246 43.1978831,80.1045076 42.7805811,79.4143864 C42.5025918,78.8614303 41.9465338,77.6183531 41.9465338,77.6183531 L41.3915495,77.6183531 C41.3915495,77.6183531 41.1135205,79.2756303 41.1135205,79.9667856 C40.9750429,80.5156056 40.6994,82.4309078 40.696298,82.4524629 L41.2517595,82.4524629 C41.2517595,82.4524629 41.3910325,81.4853466 41.3910325,80.7951856 C41.5297885,80.1039906 41.6690218,79.2751133 41.6690218,79.2751133 C41.6690218,79.2751133 42.0863238,80.2422296 42.3633188,80.6574636 C42.6413081,81.2093458 43.1973661,82.4524629 43.1973661,82.4524629 L43.4753951,82.4524629 C43.4753951,82.4524629 43.8916234,81.4853069 44.1696524,80.7951856 C44.5869147,80.2422296 45.1429727,79.1368743 45.1429727,79.1368743 L45.1429727,80.7951856 C45.2817287,81.2093458 45.420962,82.4524629 45.420962,82.4524629 L46.5320043,82.4524629 C46.5320043,82.4524629 46.254015,80.9329076 46.254015,80.1039906 C46.114742,79.4138694 45.836713,77.6178361 45.836713,77.6178361" id="Fill-28" fill="#0B0F17" mask="url(#mask-2)"></path>
                        <path d="M53.2018692,62.7013505 C52.0908269,62.1484342 51.6735646,61.4582732 51.6735646,61.0430392 C51.6735646,60.491157 51.9515539,59.7999619 53.0625962,59.7999619 C54.1736385,59.7999619 54.5909007,60.7670782 54.5909007,60.7670782 L54.8689297,60.9053172 L55.1469588,59.5240009 L55.1469588,59.5240009 C55.1469588,59.5240009 54.4516675,58.9720789 53.0625962,58.9725956 C50.8389605,58.9725956 50.0059473,60.6298732 50.0059473,61.7347114 C50.0059473,62.8395895 50.8389605,63.6679497 51.8122808,64.2209057 C52.7846069,64.634549 54.0359165,65.188022 54.0359165,66.0158652 C54.0359165,66.9830212 53.6186144,67.5349035 52.2295829,67.5349035 C50.8394775,67.3967042 50.5614883,66.1535872 50.5614883,66.1535872 L50.4232493,66.1535872 L50.0059473,67.6726255 C50.0059473,67.6726255 50.4232493,68.2255815 52.2295829,68.2255815 C54.1741555,68.2255815 55.564221,67.1202262 55.564221,65.463466 C55.564221,63.8067057 54.3129115,63.1155505 53.2018692,62.7013505" id="Fill-29" fill="#0B0F17" mask="url(#mask-2)"></path>
                        <polygon id="Fill-30" fill="#0B0F17" mask="url(#mask-2)" points="56.2579891 77.6183451 56.2579891 78.1713011 57.5083045 78.1713011 57.5083045 82.4529719 58.6203808 82.4529719 58.6203808 80.1044996 58.6203808 78.1713011 59.8706563 78.1713011 59.8706563 77.6183451"></polygon>
                        <path d="M54.8689377,79.1378964 L54.8689377,80.9339297 C54.8689377,80.9339297 53.8966514,79.9667737 53.6186224,79.5526134 C53.2013601,79.1373794 51.8122888,77.6183412 51.8122888,77.6183412 L51.1169975,77.6183412 L51.1169975,79.9667737 C51.1169975,80.7956907 50.9777245,82.4529679 51.1169975,82.4529679 L51.1169975,82.4529679 L51.1169975,82.4539622 L51.6735328,82.4539622 L51.6735328,79.1384134 C51.6735328,79.1384134 52.6453021,79.9672907 53.3406331,80.6584857 C53.8966514,81.4863289 54.8689377,82.453485 54.8689377,82.453485 L55.424956,82.453485 L55.424956,77.6188582 L54.8689377,77.6188582 L54.8689377,79.1378964 Z" id="Fill-31" fill="#0B0F17" mask="url(#mask-2)"></path>
                        <path d="M36.2806652,77.9244174 L36.2806652,77.9244174 L36.2806652,77.9244174 Z" id="Fill-32" fill="#0B0F17" mask="url(#mask-2)"></path>
                        <path d="M35.2777506,81.2098788 L35.2777506,81.9000398 C35.2777506,81.9000398 35.2777506,82.039273 34.3054643,82.039273 C33.333178,82.039273 32.6384038,81.2098788 32.6384038,79.9668015 C32.6384038,78.8614462 33.332661,78.0335632 34.4442203,77.8942902 C35.5552626,77.8942902 35.9725249,78.5854852 35.9725249,78.5854852 L36.2505539,77.89433 C36.2503551,77.8942107 35.5550638,77.48013 34.3054643,77.4806465 C33.6112071,77.4806465 31.5268445,78.0335632 31.5268445,80.1050405 C31.5268445,81.9005568 33.055149,82.453473 34.4442203,82.453473 C35.6945357,82.453473 36.2505539,82.177512 36.2505539,82.177512 L36.2505539,81.0721568 C36.2505539,80.6579568 36.3898269,80.3810015 36.3898269,80.3810015 L35.2777506,80.3810015 L35.2777506,81.2098788 Z" id="Fill-33" fill="#0B0F17" mask="url(#mask-2)"></path>
                        <path d="M38.4741697,80.2427466 C38.4741697,80.2427466 38.7521987,80.1045076 39.1684269,80.1045076 C39.446456,80.1045076 40.0024742,80.2427466 40.0024742,80.2427466 L40.0024742,79.6908246 L38.4741697,79.6908246 L38.4741697,78.0335473 L39.1684269,78.0335473 C39.446456,78.0335473 40.0024742,78.1717863 40.0024742,78.1717863 L40.0024742,77.6188701 L38.7521987,77.6188701 L37.3615764,77.6183531 L37.3615764,77.6183531 L37.3615764,82.4529799 L40.1412302,82.4529799 L40.1412302,81.9000239 L38.4741697,81.9000239 L38.4741697,80.2427466 Z" id="Fill-34" fill="#0B0F17" mask="url(#mask-2)"></path>
                        <path d="M40.7262894,82.4834786 L40.7262894,82.4834786 C40.7262894,82.4834786 40.7264894,82.4824786 40.7264894,82.4821786 L40.7262894,82.4821786 L40.7262894,82.4834786 Z" id="Fill-35" fill="#0B0F17" mask="url(#mask-2)"></path>
                        <path d="M1.9177679,86.051672 L68.0822321,86.051672 L68.0822321,1.91768837 L1.9177679,1.91768837 L1.9177679,86.051672 Z M0,87.9694399 L70,87.9694399 L70,0 L0,0 L0,87.9694399 Z" id="Fill-36" fill="#0B0F17" mask="url(#mask-2)"></path>
                    </g>
                </g>
            </g>
        </g>
    </g>
</svg>