<?xml version="1.0" encoding="UTF-8"?>
<svg width="112px" height="79px" viewBox="0 0 112 79" version="1.1" xmlns="http://www.w3.org/2000/svg" xmlns:xlink="http://www.w3.org/1999/xlink">
    <title>VCA logo</title>
    <defs>
        <polygon id="path-1" points="0 0 30.6434828 0 30.6434828 24.9377338 0 24.9377338"></polygon>
    </defs>
    <g id="Page-1" stroke="none" stroke-width="1" fill="none" fill-rule="evenodd">
        <g id="Index-White" transform="translate(-1211, -1804)">
            <g id="VCA-logo" transform="translate(1211, 1804)">
                <path d="M0,26.6190672 C0.188796445,26.6247036 0.377640254,26.635266 0.566436699,26.6353134 C4.98700172,26.636308 9.40756674,26.6374448 13.8281318,26.6315715 C14.0164072,26.6312874 14.0988695,26.684857 14.1685906,26.8623333 C16.0359513,31.6147841 17.9109851,36.3642035 19.7833192,41.1147123 C21.8087365,46.2536606 23.8327329,51.3931299 25.8574872,56.532315 C25.8919214,56.6197506 25.928345,56.7064284 25.9839041,56.8426971 C26.0359107,56.7229587 26.0731395,56.6431962 26.1057266,56.5615865 C27.6422435,52.7116263 29.1795183,48.8619503 30.7106357,45.0098113 C30.7765676,44.8438447 30.8558565,44.7837387 31.0356536,44.7878121 C31.7692883,44.8043898 32.503302,44.8071369 33.2371736,44.8109735 C36.3388159,44.827267 39.4404583,44.8425185 42.5421006,44.8571069 C43.1087268,44.8597593 43.6754003,44.8574858 44.2815288,44.8574858 C44.2254487,44.9966912 44.1871306,45.0969627 44.1450705,45.1956711 C41.1443154,52.2436612 38.1429445,59.2913671 35.1422841,66.339452 C33.7653868,69.5736213 32.3882053,72.8076958 31.0174655,76.0445176 C30.936282,76.2361086 30.8445363,76.3087189 30.6245264,76.3080603 C27.443311,76.2988197 24.2620483,76.2999564 21.0808329,76.3064928 C20.9016042,76.3068717 20.8225522,76.2515969 20.7545836,76.089609 C17.1765452,67.5577243 13.5930598,59.0281605 10.0122743,50.4974125 C6.72131447,42.6571973 3.43286501,34.8158927 0.141999935,26.9756775 C0.103729105,26.8845474 0.0477438074,26.800901 0,26.713797 C0,26.6822046 0,26.6506596 0,26.6190672" id="Fill-1" fill="#0B0F17"></path>
                <path d="M54.706446,78.0573359 C54.5144761,78.0284433 54.3231219,77.9939143 54.1303468,77.9716054 C53.2141678,77.8655554 52.2899841,77.8061125 51.3831833,77.6472033 C50.3912204,77.4733268 49.3991629,77.2614163 48.4363294,76.9697433 C47.29943,76.6253058 46.1767401,76.2189625 45.0786798,75.76497 C43.5226485,75.1216127 42.0661782,74.2851962 40.6776292,73.3276676 C39.2569193,72.3480196 37.94207,71.2471649 36.7463434,70.0049733 C36.3583303,69.6019455 35.9906366,69.1785034 35.6316582,68.7493301 C35.5696575,68.6752514 35.5520378,68.5060167 35.591398,68.4137499 C36.4790634,66.3316841 37.3797067,64.2551127 38.2732927,62.1755573 C38.846171,60.8423778 39.4103342,59.5054564 39.9807022,58.1712349 C40.5229354,56.9028979 41.0678211,55.6356977 41.612991,54.3686396 C41.6548142,54.2713995 41.7081944,54.17918 41.8163758,54.0903235 C41.8559255,54.2603161 41.9055639,54.4286509 41.9334144,54.6005381 C42.2209193,56.3722691 42.8883853,57.9983531 43.8643388,59.4930942 C44.9923337,61.2205864 46.4436412,62.6304497 48.1881848,63.7361356 C49.4705891,64.5489171 50.8439814,65.155235 52.3136665,65.5336331 C53.9955937,65.9666429 55.6968931,66.0879444 57.4276535,65.8719132 C59.1267742,65.6598606 60.7178081,65.1384205 62.2044972,64.3028091 C63.6350116,63.4987902 64.8803766,62.4621149 65.9006163,61.1745477 C66.3347629,60.6265833 66.71174,60.0326276 67.1032582,59.4519341 C67.2007825,59.3072817 67.3002487,59.2150149 67.4818931,59.2312611 C67.5679077,59.2389816 67.6553433,59.2292244 67.7421631,59.229177 C71.8310792,59.2284666 75.9199953,59.2279456 80.0089587,59.2274245 C80.0562763,59.2274245 80.1036885,59.2273298 80.151006,59.228135 C80.4157758,59.2327294 80.4126497,59.235145 80.3440653,59.4955098 C79.9264491,61.0803863 79.3281358,62.5979574 78.5922749,64.0581695 C77.7346863,65.7598478 76.7059209,67.3531553 75.4836226,68.8211827 C74.4509259,70.0614796 73.3204681,71.2012209 72.0775187,72.2283285 C70.2175943,73.7652244 68.1790569,75.0146628 65.9585435,75.9590713 C64.0278086,76.7802838 62.0319943,77.3898225 59.9498812,77.6808797 C59.0059937,77.8128383 58.0547646,77.8921271 57.1071827,77.9981298 C57.0319199,78.0065607 56.9591674,78.0370637 56.8852308,78.0573359 L54.706446,78.0573359 Z" id="Fill-3" fill="#0B0F17"></path>
                <g id="Group-7" transform="translate(40.3416, 0)">
                    <mask id="mask-2" fill="white">
                        <use xlink:href="#path-1"></use>
                    </mask>
                    <g id="Clip-6"></g>
                    <path d="M16.4865967,21.5685444 C16.4428789,21.495792 16.4173492,21.4276339 16.3707895,21.3801269 C16.0786429,21.0820123 15.7814756,20.7888236 15.4866765,20.4932667 C15.3457186,20.3519773 15.2128127,20.3686971 15.078107,20.5044922 C14.7952913,20.7897236 14.512286,21.0748128 14.2249706,21.3554972 C14.0766712,21.5004337 14.0742556,21.6402549 14.2176764,21.784102 C14.5068391,22.0741173 14.7981805,22.3619537 15.08758,22.6517794 C15.2177861,22.7822223 15.3466659,22.785159 15.4773456,22.654574 C15.7725236,22.3594907 16.069312,22.0659231 16.360985,21.7673349 C16.4123285,21.7147598 16.4418842,21.6408233 16.4865967,21.5685444 L16.4865967,21.5685444 Z M9.17397895,23.1786191 C9.64464384,23.1692408 10.0995836,23.0402189 10.4622565,22.6839402 C10.8866459,22.2670344 10.8033311,21.7458786 10.2658344,21.4953657 C9.73942098,21.2499682 9.20040856,21.286676 8.69440945,21.5437726 C8.47193657,21.6568326 8.26121019,21.8361561 8.10921626,22.0344728 C7.88380676,22.3285141 7.96688477,22.6798194 8.26064181,22.9090655 C8.52105396,23.1123082 8.82632067,23.1729353 9.17397895,23.1786191 L9.17397895,23.1786191 Z M21.0517667,21.3111636 C20.8050904,21.3804111 20.542831,21.4168821 20.3150059,21.5256318 C19.8146432,21.7645877 19.7416065,22.2694027 20.1234149,22.6703938 C20.5920905,23.1626098 21.4938232,23.3407965 22.1168136,23.0642329 C22.6986912,22.8059521 22.7925211,22.2511672 22.3210984,21.8188205 C21.9676142,21.4946552 21.5371621,21.3664858 21.0517667,21.3111636 L21.0517667,21.3111636 Z M15.8680586,8.32058519 C15.8355663,8.10308562 15.723122,7.91949931 15.5438459,7.82770616 C15.3280042,7.71715651 15.0588295,7.77063147 14.897552,7.95611237 C14.722302,8.15769734 14.7182286,8.42450375 14.8869897,8.65048163 C15.0643712,8.88796918 15.0830329,9.09268023 14.943496,9.26958809 C14.6992353,9.57921236 14.6971038,9.75337306 14.9335967,10.0692495 C15.0717127,10.253641 15.0674499,10.4732246 14.9223239,10.6525955 C14.7017456,10.9253225 14.7014614,11.1265759 14.9212345,11.4168279 C15.0742231,11.6188865 15.0719969,11.8200926 14.9147455,12.0151886 C14.7069084,12.2729957 14.7048243,12.5082571 14.9082091,12.7636485 C15.0812331,12.981006 15.0780596,13.099134 14.8932892,13.314218 C14.6977669,13.5418536 14.711787,13.8567354 14.9264446,14.059694 C15.1370763,14.258816 15.4421062,14.2630314 15.6547272,14.0697353 C15.8755423,13.8690503 15.8973301,13.5597102 15.7071601,13.3265329 C15.5214424,13.0988025 15.5207319,12.9901474 15.7032288,12.7496285 C15.8814629,12.5146987 15.8852521,12.2794846 15.7143595,12.0550224 C15.5205898,11.8005309 15.5201635,11.6400587 15.7124649,11.3807833 C15.8776737,11.1581209 15.8819839,10.9159916 15.7244956,10.7027549 C15.5188373,10.4242493 15.5182689,10.2882647 15.7214169,10.0100908 C15.8821733,9.79012821 15.8809892,9.54326241 15.7182435,9.33282021 C15.5312469,9.09106982 15.5359834,8.91311994 15.7127018,8.6530867 C15.7805757,8.55319415 15.8171887,8.43203477 15.8680586,8.32058519 L15.8680586,8.32058519 Z M15.9573414,5.43615822 C15.9330432,5.24740914 15.9218178,5.0417508 15.8769632,4.8437182 C15.8303562,4.63810722 15.7746077,4.42766502 15.6779359,4.24279986 C15.6154617,4.12329825 15.4684884,3.96604682 15.3660855,3.97078331 C15.246726,3.97627763 15.0731811,4.11846703 15.0310263,4.23905803 C14.9103879,4.5843007 14.8366882,4.94697365 14.7612359,5.30633106 C14.7371272,5.42114355 14.7116922,5.4757079 14.5834281,5.50313217 C14.346651,5.55371787 14.1123843,5.627465 13.8869748,5.71660572 C13.71774,5.78357968 13.52056,5.90028676 13.5644673,6.10045078 C13.5955386,6.24188233 13.7441223,6.4033966 13.8812436,6.46582353 C14.142461,6.58475676 14.429587,6.65599355 14.712829,6.71302088 C14.8462559,6.73992413 14.9147455,6.77885807 14.9638155,6.90622226 C15.0339156,7.0880087 15.1124939,7.30143489 15.3487973,7.30162441 C15.5862375,7.30176644 15.6478119,7.07839363 15.7387051,6.90664854 C15.7423522,6.89973327 15.7419733,6.88893407 15.7472308,6.88495542 C15.8192254,6.83039107 15.8842574,6.75370732 15.9656776,6.72689879 C16.2555981,6.63145854 16.5619542,6.57803095 16.8397493,6.45720312 C16.9705711,6.40027052 17.1385744,6.21999976 17.1305223,6.10698713 C17.121002,5.97346551 16.9635137,5.80280982 16.8271976,5.73621479 C16.5622858,5.60681391 16.267392,5.53875057 15.9573414,5.43615822 L15.9573414,5.43615822 Z M18.5347965,17.2975577 C18.5386805,17.2975577 18.5425644,17.2975577 18.5464483,17.2975577 C18.5464483,17.652747 18.5548319,18.0082205 18.5438906,18.3630783 C18.5346545,18.6610034 18.5224343,18.9618178 18.4696225,19.2537276 C18.4531395,19.3445735 18.3073504,19.4546495 18.2062737,19.4722218 C18.1415732,19.4834473 18.0224979,19.35542 17.9761751,19.2650005 C17.8471531,19.0133034 17.7622752,18.7381608 17.625296,18.4915318 C17.4021126,18.0897355 17.0091261,17.9249057 16.5844052,18.0197775 C16.3321398,18.0761418 16.2135381,18.2043112 16.2708496,18.4556766 C16.3488596,18.7977932 16.4353005,19.1500459 16.5938782,19.4591018 C16.8676472,19.9925725 17.2993308,20.4043155 17.784963,20.7539157 C18.0438595,20.9402966 18.3353904,21.0239903 18.6552928,20.9894139 C19.2321972,20.9270818 19.7504638,20.6992566 20.2288018,20.3877851 C20.3879004,20.2841981 20.5201906,20.1192262 20.6254354,19.9568594 C20.9266287,19.4921625 21.0621396,18.9634756 21.1443177,18.4235632 C21.191872,18.1111918 21.0743598,17.8493587 20.8086901,17.6658197 C20.4160825,17.394561 20.207156,17.4956377 20.141082,17.9683393 C20.1275356,18.065532 20.0476311,18.2120316 19.9743102,18.2284199 C19.8654657,18.2527654 19.704283,18.2162945 19.6211103,18.1426894 C19.4887254,18.0256034 19.3928115,17.8624314 19.2981291,17.7084481 C19.0408904,17.2900267 19.1106589,16.6339283 19.4497441,16.1960873 C19.7077406,15.86297 20.0943329,15.7829233 20.636424,15.9528212 C20.7189336,15.9786824 20.8000697,16.0101327 20.8794059,16.0446143 C21.2624931,16.2111019 21.3461869,16.1767624 21.4284597,15.7718873 C21.5495717,15.1760844 21.8359398,14.6653962 22.2121591,14.2000835 C22.412702,13.9521283 22.6015932,13.9482918 22.7901055,14.2051515 C22.9133963,14.3732495 23.0445497,14.5664983 23.0768525,14.7640572 C23.1475683,15.1962618 23.1756557,15.6379394 23.1856023,16.0765856 C23.1919018,16.3524861 23.264228,16.4514787 23.545386,16.4250018 C23.6229223,16.4177076 23.7028269,16.4115028 23.7793212,16.4219704 C24.489605,16.5189263 24.8842966,16.9658614 24.8814548,17.6648251 C24.8785655,18.3734512 24.3719506,18.9979572 23.7294933,19.0848718 C23.4345995,19.124753 23.3694728,19.047643 23.4565768,18.7592382 C23.4793593,18.6838333 23.5067362,18.6097546 23.5323133,18.5352023 C23.5998556,18.3380222 23.5225087,18.1960697 23.3569211,18.0940931 C23.1370533,17.9587242 22.8988553,17.9946268 22.7205738,18.2064899 C22.3990136,18.5885351 22.2226267,19.0248605 22.2626974,19.5346488 C22.2981737,19.986273 22.4715766,20.3874536 22.6983597,20.7721038 C23.054591,21.3764324 23.587446,21.6696685 24.2812943,21.6764417 C24.4700433,21.6782889 24.6595029,21.6607639 24.847731,21.643002 C25.8138799,21.5517773 26.4105354,20.9576321 26.8337881,20.1506291 C26.9911342,19.8506673 26.8661383,19.6823799 26.5241638,19.689532 C25.9900773,19.7007101 25.5415792,19.8935325 25.2155667,20.3326998 C25.1263312,20.4529592 25.0498369,20.5901753 24.9372506,20.682821 C24.8670558,20.7406062 24.7342447,20.7571365 24.64122,20.7372906 C24.5964129,20.7277229 24.5564369,20.5918331 24.5545897,20.5122127 C24.5524582,20.4215089 24.5894028,20.3278212 24.6195743,20.2388226 C25.0873973,18.8583255 25.5544151,17.4774969 26.0319005,16.1003155 C26.0607457,16.0170006 26.1755582,15.9634783 26.2503474,15.8960781 C26.2966702,15.9783982 26.3744434,16.0574029 26.3836322,16.1437017 C26.4162666,16.448921 26.4090198,16.7587821 26.4475274,17.0630542 C26.5001972,17.4791547 26.5734233,17.8947816 26.9177187,18.1932751 C27.2236958,18.4585185 27.4612781,18.4094011 27.5224736,18.0163673 C27.5920052,17.5700006 27.6157824,17.1081455 27.5886897,16.6572792 C27.5576183,16.140102 27.2723869,15.7088446 26.9827033,15.2899022 C26.924255,15.2054033 26.9143084,15.0873699 26.8820055,14.9847776 C26.9847873,14.964316 27.0870955,14.9298343 27.1903983,14.9265662 C27.3550387,14.921356 27.539146,14.965879 27.6368598,14.7882607 C27.8103573,14.473 28.0110897,14.1629968 28.1216868,13.8250009 C28.3199562,13.2188725 28.3310869,12.5818147 28.2747701,11.9496356 C28.2169849,11.3014944 27.9990591,10.7099543 27.6124195,10.1781414 C26.8149369,9.08136002 24.8299218,8.31542241 23.3313914,8.78092454 C23.053028,8.86736546 22.767844,8.93386576 22.4938381,9.03205317 C20.9211343,9.59569534 19.359514,10.1927298 17.6962959,10.4541839 C17.3538478,10.5079905 17.1384323,10.7621504 17.1349746,11.1211763 C17.1270173,11.9489251 17.1300013,12.7778106 17.1692668,13.6042806 C17.180066,13.8313478 17.2983835,14.0768401 17.4323314,14.2683837 C17.5935615,14.4988612 17.6211279,14.5473155 17.3950552,14.7316123 C17.1688879,14.9160985 16.9281795,15.0844807 16.7149902,15.2827027 C16.5858735,15.4027254 16.443542,15.5514511 16.39954,15.7125391 C16.2456989,16.2759918 16.4165914,16.570412 16.9864857,16.5318569 C17.2949732,16.510969 17.5383814,16.3972933 17.703448,16.1420439 C17.8484793,15.9177238 17.9634339,15.6737946 18.110644,15.4510849 C18.1643558,15.3698068 18.2728213,15.3247154 18.3563256,15.263141 C18.4147739,15.3573498 18.4773903,15.4493798 18.5292549,15.5470936 C18.5457852,15.578307 18.5346545,15.6247246 18.5346545,15.6641322 C18.5348913,16.2085916 18.5347965,16.753051 18.5347965,17.2975577 L18.5347965,17.2975577 Z M12.0903772,17.3169773 C12.0903772,16.7488355 12.0803832,16.1803621 12.0984292,15.6127887 C12.1022184,15.4926713 12.2086473,15.3758221 12.2678061,15.2575046 C12.364241,15.3382144 12.4677806,15.4121036 12.5543163,15.5023337 C12.6009233,15.5509775 12.6114857,15.6321135 12.6502302,15.6907039 C12.7842255,15.8937098 12.9038692,16.1108778 13.0652887,16.2899171 C13.3059023,16.5567235 13.9542329,16.611951 14.1532602,16.4094187 C14.3850166,16.1736363 14.3071013,15.6355238 13.9892356,15.3418615 C13.8272477,15.1921884 13.6496767,15.0593773 13.4806314,14.9171879 C13.3542619,14.8109011 13.2228717,14.7090666 13.1077276,14.5915543 C13.0289598,14.5111287 13.0110085,14.4175831 13.1289471,14.3332736 C13.3600404,14.1680648 13.4506021,13.9127207 13.4598856,13.6525928 C13.4903412,12.8016825 13.5099029,11.9497303 13.5020877,11.0984412 C13.4985353,10.7142172 13.2422913,10.5080852 12.8357585,10.416292 C12.0754573,10.2445943 11.308004,10.0911321 10.5642331,9.86273858 C9.60864653,9.56921837 8.67323735,9.20990833 7.72944458,8.87797519 C6.80450305,8.5527205 5.87904049,8.53529022 4.94699422,8.85415065 C3.87602673,9.22056543 3.02734267,9.83810884 2.59693793,10.9246594 C2.2887346,11.7028645 2.29157649,12.5102464 2.40108411,13.3260592 C2.47089996,13.8459362 2.65505464,14.3182115 2.97604649,14.7298124 C3.04373092,14.8166322 3.17867348,14.8579818 3.29017043,14.9007049 C3.3433612,14.9211192 3.4154032,14.8857376 3.47674073,14.8932686 C3.56602354,14.9042099 3.65331703,14.9310658 3.74151045,14.9511485 C3.71905949,15.0398156 3.71110219,15.1358716 3.67074731,15.2154446 C3.61045181,15.3342357 3.52765798,15.4417067 3.45376876,15.5535825 C2.95662689,16.306258 2.8790432,17.1254811 3.09152209,17.9801805 C3.19345133,18.3902183 3.39470474,18.4371096 3.71418091,18.1558569 C3.97160908,17.9292159 4.08642157,17.6261753 4.12957098,17.3016311 C4.1824302,16.9040502 4.19626074,16.501354 4.24409928,16.1028732 C4.25404591,16.0199846 4.33878169,15.9460954 4.3890832,15.868038 C4.45866223,15.9330227 4.56504376,15.9853609 4.59232594,16.0648865 C5.07037976,17.4582668 5.53924479,18.8548205 6.00806245,20.2513743 C6.03790233,20.3403255 6.05684829,20.4339185 6.07077356,20.5268958 C6.09630324,20.6975041 5.9907269,20.7836135 5.85081102,20.7363907 C5.73093049,20.6959411 5.61081313,20.5936803 5.53815539,20.4866357 C5.21337435,20.0080608 4.79050063,19.6942684 4.20023939,19.6668915 C4.05525547,19.6601657 3.84557111,19.6908582 3.77736567,19.7851617 C3.71427564,19.8724078 3.76036168,20.0903336 3.82795137,20.212014 C4.28729606,21.0388629 4.94164199,21.5863063 5.93441005,21.644423 C6.62456384,21.6848252 7.26560023,21.6050154 7.72963404,21.0201538 C8.03812156,20.6314301 8.2518793,20.1914103 8.33249434,19.6995733 C8.43058703,19.1013548 8.26670451,18.5731415 7.84430444,18.1358689 C7.67814841,17.9638396 7.43947674,17.956356 7.23874434,18.0906354 C7.04705864,18.2188048 7.03261235,18.3908341 7.1128011,18.589293 C7.1422147,18.6620928 7.16518667,18.7382082 7.18356425,18.8145604 C7.23239745,19.0173768 7.15992917,19.0993654 6.95559704,19.0777671 C6.33724842,19.0124982 5.77175902,18.4070802 5.74362428,17.7802533 C5.70876372,17.0029008 6.0441545,16.5532659 6.77840499,16.4096555 C6.89946965,16.3859731 7.02882316,16.4044454 7.15434011,16.4039244 C7.37183968,16.4029771 7.45378094,16.3126996 7.43933464,16.0984209 C7.42872491,15.9413115 7.41110517,15.7827339 7.42152545,15.6264771 C7.45515452,15.1227989 7.47523723,14.613579 7.82327443,14.1962943 C8.03314825,13.9447394 8.2316545,13.9294405 8.42286655,14.1905158 C8.61782043,14.4567538 8.80690106,14.7336963 8.95027458,15.029348 C9.07223917,15.2808555 9.13154001,15.5639555 9.20756065,15.8362088 C9.2872284,16.1214876 9.39181007,16.1743468 9.66870521,16.063655 C9.836519,15.9965863 10.0062748,15.9245917 10.1820932,15.889447 C10.5262939,15.8206258 10.8746153,15.8227572 11.1187339,16.12414 C11.6513047,16.7816594 11.6130339,17.5660219 10.9559881,18.1711557 C10.8874511,18.2342931 10.7299629,18.2448081 10.6317281,18.2167208 C10.5639016,18.1973485 10.5160157,18.0740577 10.4798763,17.9884694 C10.449989,17.9178483 10.4567149,17.8327336 10.4362059,17.7570445 C10.3721212,17.5212147 10.2390732,17.4579352 10.0079325,17.5475022 C9.58827963,17.7101059 9.39389412,18.0867989 9.49283938,18.5664631 C9.53414156,18.7668639 9.59566855,18.9630019 9.64729628,19.1612714 C9.84547097,19.9225198 10.2977583,20.4249192 11.0405345,20.7388063 C11.9342625,21.1164466 12.6804964,21.0465834 13.3568196,20.3183956 C13.8437306,19.7941136 14.2650887,19.2488017 14.3492561,18.507778 C14.3851113,18.1917595 14.286545,18.0428916 13.9728,18.0035788 C13.5453319,17.9500564 13.2064834,18.1044186 12.9989779,18.4824378 C12.8593935,18.7367399 12.7682635,19.0172821 12.635926,19.2761312 C12.5931555,19.3597776 12.4814691,19.4716535 12.4136426,19.4638383 C12.3184865,19.452897 12.2148048,19.3564147 12.1525199,19.2695001 C12.1025974,19.199779 12.0934559,19.0899398 12.0926507,18.997673 C12.0875827,18.4374885 12.0901404,17.8772566 12.0903772,17.3169773 L12.0903772,17.3169773 Z M16.259482,-4.73648879e-06 C16.2429517,0.105429505 16.2464093,0.219294696 16.2061492,0.314687581 C16.0848477,0.602002993 15.9179338,0.873403803 15.8280353,1.16900807 C15.7887698,1.29798266 15.8469812,1.53414399 15.9455476,1.60680173 C16.056713,1.68869563 16.2801805,1.68916927 16.4237908,1.63801519 C16.6015513,1.57464097 16.7419408,1.41284252 16.9093283,1.31143429 C16.9903223,1.2623169 17.0960407,1.25393332 17.1905337,1.22712479 C17.2104743,1.31394463 17.2460927,1.40052764 17.247561,1.48767904 C17.2539079,1.86645605 17.2615336,2.24594354 17.2445296,2.62405744 C17.2380406,2.76908873 17.1669933,2.91123076 17.1254069,3.054699 C17.0111628,2.96982112 16.8677893,2.90578379 16.7890215,2.79561306 C16.645127,2.59426492 16.4622511,2.54007949 16.2355628,2.55462051 C15.9754348,2.57134032 15.8783368,2.6632282 15.8844942,2.92553495 C15.8970933,3.45985826 16.1298917,3.89111556 16.5091424,4.25966176 C16.7288207,4.47313531 16.9382683,4.70048678 17.1277752,4.94091095 C17.3463641,5.21813764 17.4437937,5.55049706 17.3754935,5.89853426 C17.294168,6.31297703 17.1645303,6.71775737 17.0742055,7.13077919 C17.0465918,7.25719608 17.0641641,7.39976439 17.088557,7.52978101 C17.1255964,7.7271505 17.2157318,7.91774681 17.2309359,8.11521103 C17.2556604,8.43696072 17.2234996,8.76302061 17.2462348,9.08505448 C17.2544289,9.20086163 17.3275603,9.342009 17.4175062,9.4113512 C17.4763334,9.45677413 17.6758817,9.42920776 17.7110738,9.37199098 C17.7752058,9.26774086 17.7802265,9.11693105 17.7782372,8.9860145 C17.7770531,8.90587311 17.7122579,8.82819469 17.6840284,8.74663236 C17.5785468,8.44202876 17.6393633,8.16731241 17.8602732,7.93764006 C18.0843091,7.70465218 18.3672669,7.6526929 18.6673709,7.74562281 C18.9641119,7.83755806 19.1283733,8.0565733 19.1939263,8.35909284 C19.2251872,8.50350838 19.2612318,8.65190258 19.3267848,8.78267704 C19.4193832,8.9674001 19.5767767,9.00818127 19.7651469,8.91042014 C19.9558379,8.81138016 19.9668266,8.66440691 19.8762649,8.49394068 C19.8245898,8.39674793 19.7592263,8.3069441 19.7059408,8.21055655 C19.5415846,7.91334188 19.5485473,7.61693241 19.7480482,7.34273707 C19.9427652,7.07512545 20.2189025,6.97660648 20.5413153,7.04609077 C20.8754272,7.11813277 21.0708548,7.33468504 21.1454545,7.66822858 C21.1795572,7.82074352 21.2140862,7.97714238 21.2787866,8.1178161 C21.3602542,8.29505551 21.5182161,8.33848911 21.6979185,8.26843644 C21.8810785,8.19701019 21.9854708,8.06367803 21.9338904,7.86228253 C21.9031979,7.742402 21.8401553,7.6294841 21.7825122,7.51817661 C21.62114,7.20646828 21.6524956,6.86250447 21.870753,6.61246522 C22.0861685,6.36569415 22.4475626,6.27986898 22.7569974,6.40207039 C23.065627,6.52389288 23.2422033,6.81220295 23.23723,7.17179719 C23.2354775,7.29665103 23.2366143,7.42472569 23.261765,7.54607453 C23.3005095,7.73302375 23.4254581,7.8329163 23.6219276,7.80909176 C23.8134712,7.78588296 23.9185739,7.66339736 23.9300836,7.47654288 C23.9356727,7.38555493 23.9094325,7.29044623 23.8857974,7.20026348 C23.7957568,6.85686804 23.8979228,6.53042923 24.1625031,6.33377022 C24.4223943,6.1406162 24.7838357,6.12697512 25.0518736,6.30018851 C25.3398521,6.48623779 25.4644218,6.81324498 25.388117,7.16791327 C25.365145,7.27476845 25.323606,7.39284912 25.3489462,7.49065761 C25.3744759,7.58922395 25.4605852,7.72302976 25.5424791,7.74126524 C25.6191155,7.75836396 25.7477586,7.66235533 25.8113222,7.5825455 C25.8697705,7.50917729 25.8740807,7.39157027 25.8985684,7.29253029 C25.9887037,6.92819957 26.2260018,6.70406891 26.5752705,6.65575673 C26.8891103,6.61232313 27.1962716,6.76649584 27.3503496,7.04485929 C27.5173108,7.34652626 27.4743035,7.68395372 27.2461942,7.96890089 C27.1690841,8.06519371 27.0761068,8.17706957 27.0646919,8.28941909 C27.0543664,8.39144306 27.1180721,8.54391063 27.1997292,8.59852235 C27.2631508,8.64091393 27.4241914,8.59459107 27.5056117,8.53671117 C27.5875055,8.47849972 27.6346336,8.36188737 27.6795355,8.26294212 C27.8440338,7.90050599 28.1394486,7.72587165 28.5326245,7.76868951 C28.8387438,7.80203439 29.1222227,8.0672304 29.1812393,8.37543373 C29.2503447,8.736591 29.092146,9.05620927 28.7565657,9.24472152 C28.6819187,9.28668681 28.6075558,9.33509373 28.5467866,9.39458403 C28.3927086,9.54539383 28.4149228,9.70638709 28.5517599,9.85345507 C28.6825344,9.99403405 28.8214083,10.0178586 28.9869012,9.88500008 C29.3118243,9.62425637 29.6423365,9.60194751 29.9468454,9.80045376 C30.2334503,9.98726087 30.3609566,10.3284775 30.2723842,10.6718256 C30.1959373,10.9682824 29.9272837,11.1922236 29.6064813,11.227321 C29.5596848,11.2324364 29.5117041,11.2339047 29.466518,11.2456986 C29.2237256,11.3088834 29.1116603,11.4636244 29.1570359,11.6683355 C29.2097056,11.905823 29.3451218,11.978765 29.6247168,11.9201746 C30.0420962,11.8327864 30.387623,11.9722286 30.5499425,12.3049196 C30.6937897,12.5998134 30.6751752,12.889876 30.4701326,13.1502881 C30.2722421,13.4017009 30.0040148,13.4910311 29.6909329,13.4320618 C29.3231445,13.3628144 29.1551413,13.4247676 29.1171546,13.6534453 C29.0840466,13.8528515 29.2396402,13.9969355 29.5759309,14.0612096 C29.9201316,14.1269995 30.1516038,14.3165064 30.2293296,14.6604228 C30.3076711,15.0071812 30.168892,15.3223472 29.883708,15.4993971 C29.6012238,15.6748367 29.2685802,15.6537119 28.9760546,15.4433644 C28.8353809,15.3422404 28.6905391,15.2112291 28.512826,15.3534185 C28.3761783,15.4627367 28.4013291,15.7711768 28.5545545,15.9355804 C28.6887866,16.0795696 28.8419646,16.2058444 28.9774756,16.3487917 C29.1486049,16.5293466 29.1925595,16.7304106 29.1053134,16.9788394 C28.6510841,18.2721377 28.2087434,19.5696041 27.7613821,20.8653179 C27.6818564,21.0955587 27.5698858,21.3191683 27.5266417,21.5556138 C27.4995963,21.7035817 27.5421773,21.8843261 27.607683,22.0251893 C27.7635135,22.3604854 27.9555307,22.6787774 28.1241497,23.008437 C28.1772458,23.1122135 28.2148535,23.2278312 28.2375886,23.3424069 C28.2810222,23.5616116 28.2153745,23.7162579 27.9812972,23.8015147 C27.6634315,23.9173219 27.3523862,24.0548222 27.0465985,24.2003271 C26.768093,24.3328067 26.5211798,24.4997205 26.3705595,24.7957985 C26.2685829,24.9963414 26.0529305,24.9390773 25.879054,24.8944122 C25.4822784,24.7923882 25.0918022,24.6659239 24.6946003,24.5659367 C22.8764517,24.1082971 21.0268054,23.8345754 19.1580237,23.7355828 C17.4654868,23.6459684 15.7679292,23.5790892 14.0739714,23.6023454 C11.031393,23.6441212 8.01140776,23.9258476 5.06839043,24.7679953 C4.97749721,24.7939986 4.88811967,24.8251647 4.79732118,24.8515469 C4.43426931,24.9568864 4.39344077,24.9206049 4.15723208,24.6321528 C4.01651099,24.4602656 3.82340434,24.3144765 3.62589276,24.209658 C3.30655868,24.0401864 2.96444209,23.9136274 2.6315143,23.7699697 C2.36395004,23.6544941 2.27973527,23.5461233 2.3862589,23.2735857 C2.54308405,22.872263 2.73292252,22.4788976 2.95387972,22.1091673 C3.12647738,21.8202888 3.13149806,21.5547139 3.02592172,21.2548468 C2.51575451,19.8058128 2.00426108,18.3571576 1.51427131,16.9013031 C1.46539075,16.7559876 1.52180233,16.5442192 1.59625993,16.3971986 C1.6707649,16.2500359 1.83095295,16.1469699 1.95031247,16.0214529 C2.02036514,15.9478005 2.09846984,15.8761848 2.14739777,15.7892702 C2.24061187,15.6237773 2.23819626,15.4397174 2.10022234,15.3087534 C1.96087484,15.1764633 1.81110707,15.2877708 1.69738397,15.3780956 C1.47817927,15.552209 1.24073908,15.6269034 0.969243541,15.5596926 C0.60936512,15.4706466 0.375998316,15.1631064 0.379029668,14.7982547 C0.382155751,14.4212302 0.624569249,14.1224524 0.99733092,14.0324118 C1.10385455,14.0066927 1.23387117,14.0028561 1.30804459,13.9376347 C1.40144815,13.8555039 1.50408786,13.7202772 1.50314056,13.6087802 C1.50167225,13.4287937 1.34262096,13.3480365 1.16457634,13.356799 C1.02380789,13.3637143 0.883892013,13.4044955 0.743786673,13.4033587 C0.288468002,13.3995222 -0.037497159,13.0173349 0.00347346937,12.5490856 C0.0414601098,12.1147969 0.454671395,11.7893528 0.885076135,11.8559952 C0.962896646,11.8680259 1.03934358,11.8893874 1.11735355,11.899713 C1.28734613,11.9221639 1.41276836,11.8634315 1.46430135,11.6899339 C1.5172553,11.5116524 1.48954684,11.3534063 1.30785513,11.2694758 C1.21028346,11.2244318 1.09760239,11.2087066 0.989989362,11.1893344 C0.675202315,11.1327333 0.419147729,10.8961457 0.354636751,10.5955681 C0.284063068,10.2664769 0.423836853,9.93321754 0.70703152,9.75555184 C0.968059419,9.59176406 1.32950088,9.60322636 1.57740871,9.78316557 C1.85349864,9.98351905 2.00203493,9.97565648 2.14095615,9.75327833 C2.26211553,9.55927174 2.18415293,9.37942726 1.91204164,9.22534928 C1.5002513,8.99212457 1.33580041,8.57446099 1.51488705,8.18962127 C1.65361881,7.8914593 1.89446927,7.72662949 2.22554984,7.72648739 C2.55502,7.7263453 2.7912287,7.88923315 2.94431202,8.18147451 C3.00915455,8.30523896 3.07091836,8.44236031 3.17137929,8.53135894 C3.23319047,8.58616011 3.39645724,8.60524816 3.45822106,8.56148301 C3.53481008,8.50715548 3.59785275,8.36558183 3.58591679,8.27198881 C3.57137577,8.15783943 3.48507695,8.04463735 3.40834583,7.94810771 C3.16825321,7.64610918 3.12174089,7.32791186 3.28870212,7.02624488 C3.45102159,6.73291413 3.75832499,6.58575142 4.10920408,6.63330577 C4.43038539,6.6768341 4.67133057,6.92891004 4.75284555,7.30190853 C4.77127049,7.38617067 4.77865941,7.48715261 4.83023977,7.54635872 C4.89901359,7.62531599 5.01529439,7.72805043 5.0940622,7.71521455 C5.17723495,7.70171556 5.27025959,7.57463556 5.30322555,7.47810592 C5.33268651,7.39175973 5.29441568,7.27761035 5.27177526,7.17894928 C5.18419758,6.79695146 5.29526825,6.47340191 5.58613603,6.28308979 C5.86227332,6.1024401 6.22987222,6.11617592 6.49615762,6.31709778 C6.76324823,6.51868274 6.8493576,6.84265858 6.75292268,7.21210471 C6.72450375,7.32109131 6.69788468,7.46749618 6.74757045,7.55071629 C6.81028156,7.65567688 6.95119211,7.77323654 7.05979979,7.77465748 C7.16504458,7.77607843 7.31419661,7.65851878 7.36719792,7.55417393 C7.42578829,7.43893516 7.40485301,7.27926812 7.40475828,7.13897332 C7.40456882,6.78866261 7.59147067,6.50196294 7.90696819,6.38369281 C8.21436631,6.2685014 8.56562432,6.35210043 8.77208787,6.58968271 C8.9915294,6.84218493 9.0278109,7.19571645 8.86951745,7.49515728 C8.81462154,7.59893375 8.75551016,7.70375225 8.72297048,7.81529656 C8.66016464,8.03038052 8.7499211,8.18085877 8.9621158,8.25825299 C9.1654059,8.33237904 9.30522705,8.24622231 9.3882577,8.07111432 C9.44121165,7.95952264 9.46640977,7.83215846 9.48833971,7.70905711 C9.55095609,7.35742018 9.77385526,7.10354438 10.0960312,7.03041299 C10.4031925,6.96069188 10.7332311,7.08687194 10.9089074,7.34131612 C11.10083,7.61925329 11.1000721,7.94749196 10.9079128,8.25214292 C10.8575165,8.33204749 10.8048468,8.41105212 10.7617921,8.49484061 C10.6703779,8.67274313 10.7083171,8.81431678 10.8919508,8.90781507 C11.0725531,8.99979768 11.2212789,8.95333273 11.3126457,8.78158764 C11.3741727,8.66592259 11.4162328,8.53457975 11.4402468,8.40527361 C11.5034315,8.06500425 11.6736136,7.81913311 12.016488,7.7262032 C12.3346853,7.63999911 12.6152749,7.72246138 12.8255276,7.97827914 C13.0488531,8.25005887 13.0605996,8.55201003 12.9063321,8.86376573 C12.9028271,8.87087046 12.8959592,8.8778331 12.8960066,8.8848431 C12.8968592,9.04157352 12.8701454,9.20716117 12.9149526,9.35029786 C12.9310093,9.40154667 13.1327837,9.44010169 13.2277029,9.41144593 C13.4112419,9.35598164 13.4044687,9.17400574 13.4043266,9.0135335 C13.403995,8.72939154 13.3822545,8.44307079 13.4104366,8.16177072 C13.4325561,7.94114507 13.5285173,7.72885564 13.5684933,7.50870364 C13.5920336,7.37906594 13.6107901,7.22399329 13.562099,7.11008074 C13.3534567,6.62170137 13.2527589,6.11698112 13.275873,5.58919417 C13.292356,5.2129275 13.5001457,4.92205972 13.7409962,4.6553954 C13.8941269,4.48587647 14.0602356,4.3278672 14.2243549,4.16862645 C14.5433574,3.8590969 14.7249544,3.48515111 14.7621832,3.04200521 C14.7767242,2.86888655 14.8101165,2.68733693 14.6056422,2.59071256 C14.4185509,2.50228231 14.0919227,2.55111551 13.963327,2.68771585 C13.914778,2.73924885 13.8811489,2.80726483 13.8269635,2.85055633 C13.7340809,2.92468238 13.6303992,2.98526208 13.5312171,3.05152556 C13.4927568,2.93865503 13.4249777,2.8267318 13.4211411,2.71267714 C13.4074527,2.31059661 13.4156468,1.90771087 13.4155521,1.50515668 C13.4155521,1.46570173 13.4176361,1.42610468 13.415031,1.38679183 C13.4020057,1.18838031 13.5077241,1.16777658 13.6487768,1.24564446 C13.7577634,1.30584523 13.8550035,1.3893969 13.9514858,1.46972775 C14.2290914,1.70067894 14.5198644,1.76807918 14.7068136,1.63948351 C14.8733486,1.52490784 14.9148402,1.21324688 14.7749717,0.891970839 C14.68441,0.684086345 14.5424575,0.498936997 14.4448858,0.293468111 C14.4050046,0.209442799 14.4214402,0.0986563258 14.4122514,-4.73648879e-06 L16.259482,-4.73648879e-06 Z" id="Fill-5" fill="#0B0F17" mask="url(#mask-2)"></path>
                </g>
                <path d="M67.6888682,58.0187389 C68.0419734,57.1925532 68.3798272,56.4038804 68.7163073,55.6146393 C72.2306873,47.3719646 75.7447357,39.1291952 79.2592104,30.8865205 C79.8465351,29.5089601 80.4378383,28.1330101 81.0196686,26.7531288 C81.0780222,26.614776 81.1449487,26.566369 81.2945271,26.5665585 C84.51515,26.5706792 87.7358203,26.5721949 90.9564906,26.5632881 C91.160207,26.5627219 91.2039722,26.6716612 91.2622783,26.8106298 C92.8109207,30.5022965 94.3602262,34.1936791 95.9097212,37.8850143 C98.3192678,43.6253546 100.728956,49.3656475 103.138645,55.1059404 C105.97836,61.8707832 108.818122,68.6355312 111.657741,75.4004214 C111.766633,75.6598863 111.87382,75.920109 112,76.2237179 L111.710269,76.2237179 C107.195022,76.22386 102.679774,76.2229601 98.1645267,76.2276971 C97.9900818,76.2276971 97.9066722,76.1821315 97.8391773,76.0105285 C94.9089958,68.5597001 91.9726569,61.1112872 89.0368864,53.6626849 C88.0632064,51.1923217 87.0890528,48.7221007 86.1150412,46.2518797 C86.092164,46.1938104 86.0680552,46.1362147 86.0224428,46.0242441 C85.9704362,46.1386303 85.9353388,46.210246 85.9047411,46.2837563 C84.3003976,50.1395424 82.6946805,53.9947601 81.0976786,57.8535775 C81.0225579,58.0351272 80.9308121,58.075861 80.7500677,58.0748663 C78.5874816,58.0627409 76.4248008,58.0608463 74.2621674,58.0520838 C72.1392257,58.0434634 70.016284,58.0300591 67.8933424,58.0187863 C67.8384939,58.0185021 67.7836453,58.0187389 67.6888682,58.0187389" id="Fill-8" fill="#0B0F17"></path>
                <path d="M66.3017258,42.8525585 C65.8589589,42.4903119 65.4762979,42.1627836 65.078575,41.8545803 C63.936276,40.9694253 62.6780751,40.2868499 61.3381224,39.753095 C59.3736163,38.9706744 57.336784,38.5570368 55.2181525,38.6081435 C53.7165908,38.6443777 52.260831,38.9404082 50.8486469,39.4541278 C49.2993887,40.0177226 47.8768317,40.8103266 46.6154573,41.8683161 C46.0135443,42.3731785 45.4660062,42.9453937 44.9182313,43.510741 C44.7608378,43.6732026 44.612112,43.7231728 44.4041802,43.7231728 C40.2364963,43.7199517 36.068765,43.7207569 31.9010811,43.7207096 C31.6830132,43.7207096 31.4649452,43.7207096 31.19686,43.7207096 C31.2518506,43.5378337 31.2882742,43.3812928 31.3453015,43.2326617 C31.840833,41.9413528 32.4333204,40.6952773 33.1381099,39.5055661 C33.8054812,38.3790395 34.5543201,37.308451 35.3848634,36.2936582 C36.416518,35.0331365 37.5563067,33.8805593 38.8022875,32.834932 C40.500745,31.4095804 42.3486387,30.2145643 44.3495211,29.2515888 C45.9181514,28.4966872 47.5403515,27.893069 49.2236049,27.4598698 C50.744823,27.068399 52.2894394,26.8158494 53.8604854,26.7043051 C55.2966835,26.6023758 56.7276242,26.6239742 58.1624013,26.7056313 C60.4088706,26.8334691 62.6095381,27.2014943 64.7506205,27.9017368 C66.959482,28.6241934 68.9926199,29.6827513 70.8383348,31.0973984 C71.29138,31.4445831 71.2869751,31.4439673 71.0706596,31.9380305 C70.2609095,33.7872978 69.4544275,35.6379387 68.6454826,37.4875376 C67.956655,39.0624675 67.2660276,40.6365449 66.576679,42.2112379 C66.4866384,42.4168489 66.3997238,42.6237861 66.3017258,42.8525585" id="Fill-10" fill="#0B0F17"></path>
            </g>
        </g>
    </g>
</svg>