<?xml version="1.0" encoding="UTF-8"?>
<svg width="169px" height="118px" viewBox="0 0 169 118" version="1.1" xmlns="http://www.w3.org/2000/svg" xmlns:xlink="http://www.w3.org/1999/xlink">
    <title>VCA logo Copy</title>
    <defs>
        <polygon id="path-1" points="0 0 46.2388267 0 46.2388267 37.6292591 0 37.6292591"></polygon>
    </defs>
    <g id="Page-1" stroke="none" stroke-width="1" fill="none" fill-rule="evenodd">
        <g id="Accreditations" transform="translate(-377, -804)">
            <g id="VCA-logo-Copy" transform="translate(377, 804)">
                <path d="M0,40.1662711 C0.28488035,40.174776 0.569832169,40.1907139 0.854712519,40.1907853 C7.52502938,40.1922862 14.1953462,40.1940015 20.8656631,40.1851392 C21.1497573,40.1847104 21.274187,40.2655432 21.3793911,40.5333422 C24.1971051,47.704451 27.0263972,54.8709857 29.8516155,62.0391642 C32.9078256,69.7934701 35.9618916,77.5485621 39.0171012,85.3032254 C39.06906,85.4351594 39.1240206,85.5659499 39.2078552,85.7715698 C39.2863295,85.5908931 39.3425051,85.4705372 39.3916767,85.347394 C41.710171,79.538079 44.0298089,73.7291929 46.3401557,67.9165903 C46.4396422,67.6661586 46.5592834,67.5754628 46.8305844,67.5816093 C47.9375869,67.6066239 49.0451611,67.6107691 50.1525209,67.6165582 C54.8326776,67.641144 59.5128344,67.6641574 64.1929911,67.6861702 C65.0479895,67.6901726 65.9030594,67.686742 66.817664,67.686742 C66.7330432,67.896793 66.6752238,68.0480955 66.6117582,68.1970395 C62.0838331,78.8319531 57.5549788,89.4664379 53.0271966,100.101494 C50.9495569,104.981625 48.8714884,109.861612 46.8031399,114.745745 C46.6806399,115.034842 46.542202,115.144406 46.2102228,115.143412 C41.4099961,115.129469 36.6096978,115.131184 31.8094711,115.141047 C31.5390277,115.141619 31.4197439,115.058213 31.3171841,114.813785 C25.9181798,101.93978 20.5109563,89.0692778 15.1078067,76.1969885 C10.1419834,64.3666638 5.17994809,52.5346952 0.214267759,40.7043704 C0.156519811,40.5668617 0.0720419951,40.4406453 0,40.3092115 C0,40.2615409 0,40.2139417 0,40.1662711" id="Fill-1" fill="#0B0F17"></path>
                <path d="M82.5481193,117.782944 C82.2584505,117.739347 81.9697107,117.687246 81.6788269,117.653583 C80.2963782,117.493561 78.901851,117.403866 77.5335534,117.164084 C76.0367523,116.901716 74.5398082,116.581959 73.0869613,116.141845 C71.3714613,115.622113 69.6774024,115.00897 68.020508,114.323928 C65.6725679,113.353148 63.4748582,112.091055 61.3796369,110.646213 C59.2358872,109.167994 57.2518735,107.506883 55.4476075,105.632504 C54.8621233,105.024364 54.3072999,104.38542 53.765627,103.737828 C53.6720725,103.626049 53.6454856,103.370686 53.7048773,103.231462 C55.044301,100.089773 56.4033075,96.9563754 57.7516649,93.8184748 C58.6160973,91.8068022 59.4673793,89.7894834 60.3280238,87.7762384 C61.1462151,85.8624085 61.9684086,83.9502938 62.791031,82.0383936 C62.8541392,81.8916653 62.9346862,81.7525127 63.0979242,81.6184345 C63.1576018,81.8749412 63.2325026,82.1289464 63.2745271,82.3883119 C63.7083515,85.0617274 64.71551,87.515372 66.1881541,89.7708296 C67.8902177,92.377492 70.0801372,94.5048749 72.7125288,96.1732761 C74.6475854,97.3997053 76.7199362,98.3145957 78.9375861,98.8855714 C81.4754941,99.5389523 84.0426334,99.7219876 86.6542272,99.3960118 C89.2180789,99.0760396 91.6188355,98.2892238 93.8621431,97.0283459 C96.0206871,95.8151387 97.899854,94.2508697 99.4393228,92.3080229 C100.094419,91.4811838 100.663251,90.5849471 101.254023,89.708722 C101.401181,89.4904519 101.551268,89.3512279 101.825357,89.3757422 C101.955146,89.3873918 102.087081,89.372669 102.218085,89.3725975 C108.387968,89.3715254 114.55785,89.3707393 120.727804,89.3699531 C120.799203,89.3699531 120.870744,89.3698102 120.942143,89.3710252 C121.341662,89.3779578 121.336945,89.3816028 121.233456,89.7744746 C120.603303,92.1659401 119.700491,94.4558464 118.590129,96.6592022 C117.296089,99.2269133 115.743756,101.6311 113.899395,103.846249 C112.341129,105.717768 110.635349,107.437557 108.759827,108.987389 C105.953334,111.306455 102.877327,113.191768 99.5267309,114.616813 C96.6133898,115.855964 93.6018486,116.775714 90.4600886,117.214899 C89.0358298,117.414015 87.6004931,117.533656 86.1706596,117.693607 C86.0570934,117.706328 85.9473151,117.752355 85.8357501,117.782944 L82.5481193,117.782944 Z" id="Fill-3" fill="#0B0F17"></path>
                <g id="Group-7" transform="translate(60.8725, 0)">
                    <mask id="mask-2" fill="white">
                        <use xlink:href="#path-1"></use>
                    </mask>
                    <g id="Clip-6"></g>
                    <path d="M24.8770968,32.5453929 C24.8111298,32.4356147 24.7726073,32.332769 24.7023521,32.2610844 C24.2615237,31.8112507 23.8131194,31.36885 23.3682887,30.9228757 C23.1555933,30.70968 22.9550478,30.734909 22.7517865,30.9398142 C22.3250377,31.3702079 21.8980031,31.8003872 21.4644646,32.2239198 C21.2406913,32.4426187 21.2370463,32.6535989 21.4534582,32.870654 C21.889784,33.3082662 22.3293974,33.7425908 22.7660805,34.1799172 C22.9625522,34.3767462 23.1570227,34.3811774 23.3542091,34.1841339 C23.7996115,33.7388744 24.247444,33.2959019 24.6875577,32.8453535 C24.7650315,32.7660216 24.8096289,32.6544565 24.8770968,32.5453929 L24.8770968,32.5453929 Z M13.8428789,34.9748806 C14.5530787,34.9607295 15.2395502,34.7660446 15.7867978,34.2284455 C16.4271711,33.5993645 16.301455,32.8129775 15.4904108,32.4349714 C14.6960906,32.0646842 13.8827593,32.1200736 13.1192428,32.508014 C12.7835472,32.6786135 12.4655761,32.9491998 12.2362281,33.2484456 C11.8961013,33.6921328 12.0214601,34.2222276 12.4647184,34.5681435 C12.8576618,34.8748223 13.3182874,34.9663042 13.8428789,34.9748806 L13.8428789,34.9748806 Z M31.7656123,32.1570237 C31.3933953,32.2615132 30.9976646,32.3165453 30.6538928,32.4806409 C29.8988812,32.8412082 29.7886741,33.602938 30.3647957,34.208005 C31.0719937,34.9507236 32.432644,35.2195947 33.3726919,34.80228 C34.2507037,34.4125528 34.3922863,33.5754219 33.680943,32.9230417 C33.1475607,32.4338994 32.4980392,32.2405009 31.7656123,32.1570237 L31.7656123,32.1570237 Z M23.943767,12.5551687 C23.8947384,12.2269774 23.7250681,11.9499588 23.4545533,11.8114495 C23.1288634,11.6446379 22.7226981,11.7253278 22.4793419,12.0052053 C22.2149021,12.3093826 22.2087556,12.7119744 22.4634041,13.0529589 C22.7310601,13.4113106 22.7592194,13.720205 22.5486681,13.9871463 C22.1800961,14.4543472 22.1768799,14.7171433 22.5337308,15.1937783 C22.742138,15.4720119 22.7357057,15.8033479 22.5167209,16.0740057 C22.183884,16.4855313 22.1834552,16.7892083 22.515077,17.2271779 C22.7459259,17.5320699 22.7425668,17.8356754 22.5052856,18.1300613 C22.1916742,18.5190738 22.1885295,18.8740664 22.4954227,19.2594339 C22.7565035,19.5874108 22.751715,19.7656576 22.4729096,20.0902039 C22.1778805,20.4336899 22.1990357,20.908824 22.5229388,21.2150739 C22.8407669,21.5155348 23.3010352,21.5218956 23.6218651,21.2302256 C23.9550593,20.9274062 23.9879356,20.4606342 23.7009826,20.1087862 C23.4207478,19.7651573 23.4196758,19.6012046 23.6950506,19.2382788 C23.9639931,18.8837864 23.9697107,18.5288652 23.7118461,18.1901678 C23.4194614,17.8061582 23.4188181,17.5640171 23.7089873,17.172789 C23.9582755,16.8368074 23.9647793,16.4714516 23.7271407,16.1496926 C23.416817,15.7294477 23.4159593,15.5242566 23.7224952,15.1045119 C23.9650651,14.7726042 23.9632784,14.4001013 23.7177067,14.0825591 C23.4355422,13.717775 23.4426892,13.4492613 23.7093446,13.0568898 C23.8117615,12.906159 23.867008,12.7233382 23.943767,12.5551687 L23.943767,12.5551687 Z M24.0784884,8.20277446 C24.0418242,7.91796558 24.0248857,7.60764183 23.9572034,7.30882478 C23.8868767,6.9985725 23.8027562,6.68103025 23.6568855,6.40208193 C23.5626163,6.22176253 23.3408441,5.98448136 23.1863255,5.99162838 C23.0062205,5.99991893 22.7443536,6.21447257 22.680745,6.39643578 C22.4987104,6.91738231 22.3875027,7.46462989 22.2736506,8.00687455 C22.2372722,8.18011839 22.1988927,8.2624521 22.0053513,8.30383337 C21.6480716,8.38016358 21.2945799,8.49144273 20.954453,8.62594971 C20.6990899,8.72700862 20.4015593,8.90311127 20.4678122,9.20514448 C20.5146967,9.41855459 20.7388988,9.66226809 20.9458051,9.75646586 C21.3399635,9.93592761 21.773216,10.0434188 22.200608,10.129469 C22.4019397,10.1700641 22.5052856,10.2288126 22.5793288,10.4209961 C22.6851047,10.6952988 22.8036738,11.0173437 23.1602388,11.0176297 C23.5185191,11.017844 23.6114304,10.6807904 23.7485818,10.4216393 C23.754085,10.4112047 23.7535132,10.3949095 23.7614464,10.388906 C23.8700812,10.3065722 23.9682098,10.1908619 24.0910672,10.1504098 C24.5285365,10.0063973 24.9908059,9.92577884 25.4099788,9.74345827 C25.6073796,9.65755105 25.8608845,9.38553535 25.8487346,9.21500737 C25.8343691,9.01353278 25.5967306,8.75602553 25.3910392,8.65553838 C24.9913062,8.46028171 24.5463325,8.35757898 24.0784884,8.20277446 L24.0784884,8.20277446 Z M27.9676841,26.1007791 C27.9735446,26.1007791 27.9794052,26.1007791 27.9852658,26.1007791 C27.9852658,26.6367344 27.997916,27.1731185 27.9814064,27.7085734 C27.9674697,28.1581212 27.9490303,28.6120287 27.869341,29.0524997 C27.8444694,29.1895796 27.624484,29.3556764 27.4719665,29.3821919 C27.3743382,29.3991303 27.194662,29.2059463 27.1247641,29.0695096 C26.9300792,28.6897168 26.8020046,28.2745462 26.5953127,27.9024007 C26.2585449,27.2961187 25.6655564,27.0474023 25.0246828,27.1905572 C24.6440324,27.2756068 24.4650709,27.4690052 24.5515499,27.8482977 C24.6692613,28.3645272 24.7996945,28.8960514 25.0389769,29.3623946 C25.4520748,30.1673639 26.1034545,30.7886546 26.8362388,31.3161764 C27.2268951,31.5974118 27.6667944,31.7236997 28.1495043,31.6715264 C29.0200118,31.5774716 29.8020391,31.2336998 30.523817,30.7637115 C30.7638855,30.6074061 30.9635018,30.3584753 31.1223087,30.1134753 C31.5767879,29.4122809 31.7812642,28.6145301 31.9052651,27.7998409 C31.9770212,27.3284947 31.7997036,26.9334073 31.398827,26.6564601 C30.8064103,26.2471501 30.4911551,26.3996676 30.3914541,27.1129405 C30.3710136,27.2595974 30.2504433,27.4806549 30.1398074,27.5053836 C29.9755688,27.5421193 29.7323556,27.4870872 29.6068539,27.3760224 C29.4070946,27.199348 29.2623673,26.9531331 29.1194984,26.7207833 C28.7313435,26.0894153 28.8366192,25.0994096 29.3482746,24.4387388 C29.7375729,23.9360887 30.320913,23.815304 31.1388898,24.0716677 C31.2633909,24.1106904 31.3858194,24.1581467 31.5055321,24.210177 C32.0835833,24.4613949 32.2098712,24.4095789 32.334015,23.7986514 C32.5167644,22.8996273 32.9488734,22.1290353 33.5165615,21.4269117 C33.8191665,21.052765 34.1041898,21.0469759 34.3886413,21.434559 C34.5746783,21.6882069 34.7725794,21.9798054 34.8213221,22.2779078 C34.9280271,22.9300737 34.970409,23.5965336 34.9854177,24.2584194 C34.9949233,24.6747335 35.1040583,24.8241063 35.5283056,24.7841544 C35.6453024,24.773148 35.7658727,24.7637854 35.8812971,24.7795803 C36.9530647,24.9258799 37.5486262,25.600273 37.544338,26.6549593 C37.5399783,27.7242254 36.7755327,28.6665604 35.8061104,28.7977083 C35.3611368,28.8578863 35.2628652,28.7415327 35.3942989,28.3063505 C35.4286761,28.1925699 35.4699859,28.0807904 35.5085798,27.9682963 C35.6104964,27.6707657 35.4937855,27.4565694 35.2439256,27.302694 C34.9121608,27.0984321 34.552737,27.1526065 34.283723,27.4722929 C33.7985116,28.0487718 33.5323564,28.7071555 33.5928202,29.4763897 C33.6463515,30.1578583 33.908004,30.7632112 34.2502035,31.343621 C34.7877311,32.2555097 35.5917712,32.6979819 36.6387386,32.7082021 C36.9235475,32.7109895 37.2094285,32.6845455 37.4934512,32.6577442 C38.951301,32.5200925 39.8516115,31.6235699 40.4902695,30.40586 C40.7276936,29.9532391 40.5390837,29.6993053 40.0230686,29.7100973 C39.2171703,29.7269643 38.5404186,30.0179196 38.048489,30.6805916 C37.9138391,30.8620545 37.7984147,31.0691038 37.6285299,31.2088996 C37.522611,31.2960933 37.3222085,31.3210364 37.1818409,31.2910904 C37.1142301,31.2766534 37.0539092,31.0716053 37.0511219,30.9514638 C37.0479057,30.8145983 37.1036525,30.6732302 37.1491791,30.5389376 C37.8550905,28.4558662 38.559787,26.3722945 39.2802785,24.294226 C39.3238038,24.1685099 39.4970477,24.0877485 39.6098992,23.9860463 C39.6797971,24.1102616 39.7971512,24.229474 39.8110164,24.3596927 C39.8602594,24.8202469 39.8493245,25.2878052 39.9074298,25.74693 C39.9869047,26.374796 40.0973976,27.0019472 40.6169148,27.4523527 C41.0786125,27.852586 41.4371072,27.7784713 41.5294467,27.1854113 C41.634365,26.5118759 41.6702431,25.8149696 41.6293621,25.1346445 C41.5824776,24.354261 41.1520839,23.7035245 40.7149719,23.0713703 C40.6267777,22.9438674 40.6117689,22.7657636 40.5630262,22.6109591 C40.7181166,22.5800839 40.8724923,22.5280536 41.0283689,22.5231221 C41.2767994,22.5152604 41.5546042,22.5824424 41.7020473,22.3144291 C41.9638428,21.8387232 42.2667336,21.3709505 42.4336166,20.8609389 C42.732791,19.9463344 42.7495865,18.9850597 42.6646084,18.0311465 C42.5774147,17.0531478 42.2485802,16.1605561 41.6651687,15.3580883 C40.4618244,13.7031236 37.4665784,12.5473785 35.2054031,13.2497879 C34.7853726,13.3802211 34.3550503,13.4805653 33.941595,13.6287231 C31.5684974,14.4792189 29.2121238,15.3801012 26.7024465,15.7746168 C26.1857168,15.855807 25.8606701,16.2393163 25.8554528,16.7810607 C25.8434458,18.0300745 25.8479484,19.2808035 25.9071973,20.5278876 C25.9234925,20.8705159 26.1020251,21.2409462 26.3041429,21.5299718 C26.5474276,21.8777459 26.5890233,21.95086 26.2478959,22.2289507 C25.9066255,22.5073272 25.5434138,22.7614039 25.2217262,23.0605068 C25.0268984,23.2416124 24.8121303,23.4660289 24.7457345,23.7090992 C24.5135992,24.5593091 24.7714638,25.0035681 25.6313936,24.9453913 C26.0968793,24.9138729 26.4641648,24.7423444 26.7132385,24.3571913 C26.9320804,24.0187082 27.1055387,23.6506365 27.3276681,23.3145835 C27.4087154,23.1919406 27.5723822,23.1239009 27.6983842,23.0309896 C27.7865785,23.1731439 27.8810622,23.3120106 27.9593221,23.4594537 C27.9842652,23.5065526 27.9674697,23.5765934 27.9674697,23.6360566 C27.967827,24.4576069 27.9676841,25.2791573 27.9676841,26.1007791 L27.9676841,26.1007791 Z M18.2435156,26.1300819 C18.2435156,25.2727964 18.2284354,24.4150107 18.2556656,23.5585829 C18.2613832,23.3773344 18.4219768,23.2010173 18.5112431,23.0224847 C18.6567565,23.1442699 18.8129904,23.2557635 18.9435666,23.3919143 C19.0138933,23.4653142 19.0298311,23.5877427 19.0882938,23.6761514 C19.2904831,23.9824728 19.4710169,24.3101639 19.7145874,24.5803213 C20.0776562,24.9829132 21.0559408,25.0662475 21.3562587,24.7606407 C21.7059625,24.4048619 21.588394,23.5928886 21.1087573,23.1497731 C20.8643291,22.9239272 20.5963872,22.7235247 20.3413099,22.508971 C20.1506273,22.3485918 19.9523689,22.1949308 19.7786248,22.0176132 C19.6597698,21.8962567 19.6326825,21.755103 19.8106434,21.627886 C20.1593467,21.3785978 20.2959978,20.9933018 20.3100059,20.6007873 C20.3559613,19.3168245 20.3854785,18.0312895 20.3736859,16.746755 C20.3683256,16.1669884 19.9816717,15.85595 19.3682427,15.7174407 C18.2210025,15.4583611 17.0629703,15.2267975 15.9406732,14.882168 C14.4987613,14.439267 13.0872956,13.8970938 11.6631798,13.3962304 C10.2675091,12.9054443 8.87105218,12.8791433 7.46466093,13.3602809 C5.84864748,13.9131746 4.56804384,14.8450035 3.91859384,16.4845307 C3.45353703,17.6587866 3.45782524,18.8770682 3.62306442,20.1080715 C3.72841155,20.8925288 4.00628781,21.6051585 4.49064158,22.2262348 C4.59277255,22.3572397 4.79639124,22.4196332 4.96463217,22.4840994 C5.04489324,22.5149031 5.15359947,22.4615148 5.24615342,22.4728786 C5.38087481,22.4893882 5.51259445,22.5299118 5.64567202,22.5602152 C5.61179513,22.6940075 5.59978813,22.8389491 5.53889549,22.9590191 C5.44791389,23.1382664 5.32298392,23.3004324 5.21149035,23.4692451 C4.46133879,24.6049786 4.34427054,25.8411277 4.66488601,27.1308081 C4.81868995,27.7495259 5.12236697,27.8202814 5.6044337,27.3958912 C5.99287441,27.0539061 6.16611826,26.5966396 6.23122764,26.1069255 C6.31098842,25.5070044 6.33185773,24.8993645 6.40404267,24.2980854 C6.41905141,24.1730125 6.54691166,24.0615189 6.62281305,23.943736 C6.72780282,24.0417931 6.88832497,24.1207677 6.92949182,24.2407663 C7.65084088,26.3432776 8.35832472,28.4505774 9.06573709,30.5578772 C9.11076334,30.6920983 9.13935143,30.8333235 9.16036368,30.9736196 C9.19888613,31.2310554 9.03957898,31.3609882 8.82845592,31.2897324 C8.64756476,31.2286968 8.46631624,31.0743926 8.35668091,30.9128699 C7.86660952,30.1907346 7.22852328,29.7172443 6.33786123,29.6759346 C6.11909085,29.6657858 5.80269212,29.7120985 5.69977499,29.8543957 C5.60457664,29.9860439 5.67411717,30.3148784 5.7761052,30.4984855 C6.46922352,31.7461413 7.45658479,32.5721943 8.95460088,32.6598883 C9.99599365,32.7208524 10.9632718,32.600425 11.6634657,31.7179106 C12.1289513,31.1313544 12.4514964,30.4673959 12.5731388,29.725249 C12.7211536,28.82258 12.4738666,28.0255439 11.8364951,27.3657307 C11.5857775,27.1061508 11.225639,27.0948585 10.9227482,27.2974767 C10.6335081,27.4908751 10.6117097,27.750455 10.7327088,28.0499153 C10.7770918,28.159765 10.8117549,28.2746177 10.8394853,28.3898277 C10.9131711,28.6958632 10.8038217,28.8195782 10.4954991,28.7869878 C9.56245521,28.6885018 8.7091721,27.7749693 8.66671878,26.8291322 C8.61411669,25.6561628 9.12019741,24.9776958 10.228129,24.7609981 C10.4108069,24.725263 10.6059921,24.7531364 10.7953882,24.7523502 C11.1235795,24.7509208 11.247223,24.6146985 11.2254246,24.2913672 C11.2094153,24.0543004 11.1828283,23.8150181 11.1985518,23.5792378 C11.2492957,22.8192233 11.279599,22.0508468 11.8047623,21.4211941 C12.1214469,21.0416157 12.4209787,21.0185308 12.709504,21.4124747 C13.0036755,21.8142089 13.2889846,22.2320954 13.505325,22.6782125 C13.6893609,23.0577195 13.7788416,23.4848971 13.8935513,23.895708 C14.0137643,24.3261732 14.1715705,24.405934 14.5893855,24.238908 C14.8426046,24.1377062 15.0987539,24.0290714 15.3640514,23.9760405 C15.8834256,23.8721943 16.4090177,23.8754104 16.7773753,24.3301755 C17.5809866,25.3223253 17.5232386,26.5058724 16.5318035,27.4189761 C16.4283861,27.5142459 16.1907476,27.5301123 16.0425183,27.4877304 C15.9401729,27.4584991 15.8679165,27.2724621 15.8133847,27.1433154 C15.768287,27.0367533 15.7784358,26.9083212 15.7474892,26.7941118 C15.65079,26.4382615 15.4500301,26.3427773 15.1012553,26.4779275 C14.4680291,26.7232848 14.1747152,27.2916876 14.3240166,28.0154666 C14.3863386,28.3178572 14.4791784,28.6138154 14.557081,28.9129898 C14.8561124,30.0616594 15.5385817,30.8197442 16.6593779,31.2933774 C18.0079497,31.8632096 19.1339633,31.757791 20.1544867,30.6590076 C20.8892007,29.8679036 21.5249999,29.0450668 21.6520025,27.926915 C21.7061055,27.4500656 21.5573759,27.2254347 21.0839571,27.1661144 C20.4389382,27.085353 19.9276402,27.3182745 19.6145291,27.8886784 C19.4039063,28.2724021 19.2663976,28.6957203 19.0667098,29.0863051 C19.0021721,29.2125216 18.8336453,29.3813343 18.7313,29.3695417 C18.5877163,29.353032 18.4312679,29.2074472 18.3372846,29.0762993 C18.2619549,28.9710951 18.2481612,28.8053556 18.2469462,28.6661316 C18.2392989,27.8208532 18.2431583,26.9755033 18.2435156,26.1300819 L18.2435156,26.1300819 Z M24.534397,-7.14702315e-06 C24.5094539,0.159085592 24.5146712,0.330900033 24.4539215,0.474841082 C24.2708863,0.908379517 24.0190252,1.31790395 23.8833747,1.76394968 C23.8241258,1.95856312 23.9119628,2.31491371 24.0606923,2.42454904 C24.2284329,2.54812108 24.5656295,2.54883578 24.7823273,2.47164793 C25.050555,2.37602076 25.2623928,2.13187844 25.5149686,1.97886067 C25.6371827,1.90474604 25.7967043,1.89209581 25.9392874,1.85164365 C25.9693764,1.98264859 26.023122,2.11329618 26.0253375,2.24480141 C26.0349146,2.81634886 26.0464213,3.38896837 26.0207635,3.95951524 C26.010972,4.1783571 25.9037667,4.39283927 25.8410158,4.6093226 C25.6686296,4.48124794 25.4522892,4.38462019 25.3334342,4.21838043 C25.1163077,3.91456047 24.8403611,3.83279852 24.4983045,3.85473988 C24.10579,3.87996887 23.959276,4.01862113 23.9685672,4.41442328 C23.9875783,5.22067898 24.3388545,5.87141545 24.9111166,6.42752534 C25.2425956,6.74964168 25.5586369,7.0926988 25.8445893,7.4554817 C26.1744245,7.87379697 26.3214387,8.3753036 26.2183786,8.90046687 C26.0956643,9.52583141 25.9000502,10.136616 25.7637565,10.7598365 C25.7220893,10.9505905 25.7486048,11.1657159 25.785412,11.3619017 C25.8413017,11.6597182 25.9773096,11.9473144 26.0002515,12.2452738 C26.037559,12.7307711 25.9890307,13.2227722 26.0233364,13.7086983 C26.0357007,13.883443 26.1460508,14.0964243 26.2817727,14.2010567 C26.3705388,14.2695967 26.6716429,14.228001 26.7247452,14.141665 C26.8215159,13.984359 26.8290918,13.7567977 26.82609,13.559254 C26.8243033,13.4383264 26.726532,13.3211152 26.6839357,13.1980435 C26.5247715,12.7384184 26.6165393,12.323891 26.9498765,11.9773319 C27.2879307,11.6257698 27.7148939,11.547367 28.1677293,11.6875916 C28.6154903,11.8263153 28.863349,12.1567936 28.9622638,12.613274 C29.0094342,12.8311868 29.063823,13.055103 29.1627378,13.2524323 C29.3024622,13.5311662 29.5399577,13.5927021 29.8241949,13.4451875 C30.111934,13.2957433 30.1285151,13.0739711 29.991864,12.8167498 C29.91389,12.6700929 29.8152611,12.5345853 29.7348571,12.3891434 C29.4868554,11.9406677 29.4973615,11.4934069 29.7983941,11.0796658 C30.0922082,10.6758589 30.5088797,10.5272009 30.9953776,10.6320477 C31.4995286,10.7407539 31.7944148,11.0675158 31.9069804,11.5708092 C31.958439,11.8009433 32.0105408,12.0369381 32.1081691,12.2492047 C32.2310979,12.5166463 32.4694511,12.5821845 32.7406092,12.47648 C33.0169846,12.3687029 33.174505,12.1675142 33.0966739,11.8636227 C33.0503612,11.6827316 32.9552343,11.5123465 32.868255,11.3443915 C32.6247559,10.8740459 32.6720692,10.3550291 33.0014041,9.9777377 C33.3264507,9.60537778 33.8717686,9.47587372 34.3386836,9.66026692 C34.8043836,9.84408836 35.0708247,10.2791277 35.0633203,10.8217297 C35.0606759,11.0101252 35.0623912,11.2033807 35.1003419,11.3864875 C35.1588045,11.6685805 35.347343,11.8193112 35.6438015,11.7833617 C35.9328272,11.7483413 36.0914196,11.5635192 36.1087869,11.2815692 C36.1172204,11.1442748 36.0776258,11.0007626 36.0419622,10.8646833 C35.9060973,10.3465241 36.0602586,9.85395126 36.4594913,9.55720685 C36.8516485,9.26575124 37.3970378,9.24516781 37.8014879,9.50653445 C38.2360269,9.78726953 38.4239936,10.2807 38.3088551,10.8158691 C38.274192,10.977106 38.2115126,11.1552813 38.2497492,11.3028673 C38.2882716,11.4515968 38.4182045,11.6535003 38.5417765,11.6810163 C38.6574154,11.7068171 38.8515285,11.5619469 38.9474416,11.4415195 C39.0356359,11.3308122 39.0421396,11.1533516 39.0790898,11.0039073 C39.2150976,10.4541583 39.5731635,10.1159611 40.100185,10.0430615 C40.5737467,9.97752329 41.0372312,10.2101589 41.2697239,10.6301895 C41.5216564,11.0853834 41.4567615,11.5945373 41.1125608,12.0245022 C40.9962073,12.1698012 40.8559112,12.3386139 40.8386869,12.5081413 C40.8231064,12.6620882 40.9192339,12.8921509 41.0424485,12.974556 C41.1381472,13.0385219 41.381146,12.968624 41.5040033,12.8812874 C41.6275753,12.7934505 41.6986882,12.6174908 41.766442,12.4681894 C42.0146581,11.9212992 42.460418,11.6577885 43.0536924,11.7223976 C43.5156045,11.7727126 43.9433538,12.1728744 44.0324057,12.6379312 C44.1366808,13.1828918 43.8979702,13.6651729 43.3916036,13.9496244 C43.2789665,14.0129471 43.1667583,14.0859896 43.075062,14.1757563 C42.8425693,14.4033175 42.8760888,14.6462448 43.0825663,14.8681599 C43.2798957,15.0802835 43.4894464,15.1162331 43.7391634,14.9157591 C44.2294492,14.5223154 44.7281685,14.4886529 45.1876506,14.7881847 C45.620117,15.0700633 45.8125148,15.5849348 45.6788655,16.1030226 C45.5635125,16.5503548 45.1581334,16.888266 44.6740655,16.9412255 C44.6034529,16.9489442 44.5310536,16.9511598 44.462871,16.9689559 C44.0965145,17.0642972 43.927416,17.2977905 43.9958845,17.6066848 C44.0753594,17.9650366 44.2796927,18.0751007 44.7015815,17.986692 C45.3313772,17.8548295 45.8527526,18.0652378 46.0976811,18.5672447 C46.3147362,19.0122184 46.2866484,19.4499021 45.9772537,19.8428455 C45.6786511,20.2222095 45.2739152,20.3570023 44.8014969,20.2680219 C44.2465306,20.1635324 43.9930256,20.2570155 43.9357065,20.6020737 C43.8857488,20.9029634 44.1205285,21.1203759 44.6279672,21.217361 C45.1473414,21.3166331 45.4966164,21.6025855 45.6138991,22.1215309 C45.7321108,22.6447645 45.522703,23.1203274 45.0923808,23.3874831 C44.6661323,23.6522089 44.1641969,23.6203332 43.7227967,23.3029339 C43.5105301,23.1503449 43.2919741,22.9526582 43.0238178,23.1672119 C42.8176262,23.3321652 42.8555769,23.7975793 43.0867831,24.0456525 C43.2893297,24.262922 43.5204645,24.4534617 43.7249408,24.6691588 C43.9831628,24.9416034 44.0494871,25.2449945 43.917839,25.6198559 C43.2324394,27.5713506 42.5649789,29.5291347 41.8899426,31.4842744 C41.769944,31.8316912 41.6009884,32.1691022 41.5357361,32.5258816 C41.4949266,32.7491546 41.5591783,33.021885 41.6580217,33.2344375 C41.8931587,33.7403752 42.182899,34.2206552 42.4373331,34.718088 C42.5174512,34.8746793 42.5741986,35.0491382 42.6085043,35.2220246 C42.6740425,35.5527889 42.5749847,35.7861392 42.2217789,35.9147856 C41.7421421,36.0895303 41.2727971,36.2970084 40.8113853,36.516565 C40.3911403,36.7164672 40.018566,36.9683283 39.7912906,37.4150888 C39.6374152,37.7176937 39.3120112,37.6312862 39.049644,37.5638898 C38.4509379,37.4099429 37.8617373,37.2191174 37.2623879,37.0682437 C34.5189315,36.3776983 31.7279475,35.9646718 28.9080894,35.8152991 C26.3541721,35.6800774 23.7926789,35.5791614 21.2366175,35.6142533 C16.6455841,35.67729 12.0886421,36.102395 7.64783913,37.3731357 C7.51068776,37.4123729 7.37582343,37.4594003 7.23881499,37.4992092 C6.69099565,37.658159 6.62938831,37.6034128 6.27296626,37.1681591 C6.0606282,36.9087936 5.76924405,36.6888082 5.47121318,36.5306446 C4.98936087,36.2749241 4.47313138,36.0839557 3.97076711,35.8671864 C3.56703176,35.692942 3.43995768,35.5294181 3.60069424,35.1181784 C3.83733218,34.5126111 4.12378488,33.9190508 4.45719351,33.3611542 C4.71763104,32.9252572 4.72520689,32.5245236 4.56589974,32.0720456 C3.79609386,29.8855567 3.02428681,27.6996397 2.28492725,25.5028591 C2.21116996,25.2835884 2.29629101,24.964045 2.40864222,24.7422014 C2.5210649,24.5201434 2.76277722,24.3646242 2.94288221,24.1752281 C3.04858669,24.0640918 3.1664411,23.9560288 3.24026985,23.824881 C3.38092327,23.575164 3.37727829,23.2974306 3.1690855,23.0998155 C2.95882007,22.9001991 2.7328312,23.0681541 2.56123117,23.2044479 C2.23046693,23.4671725 1.87218665,23.579881 1.46251927,23.4784648 C0.91948844,23.3441007 0.567354601,22.8800445 0.571928696,22.3295093 C0.576645732,21.7606062 0.942430385,21.309772 1.50490112,21.1739071 C1.66563767,21.1350987 1.86182346,21.1293097 1.97374585,21.0308951 C2.11468515,20.9069658 2.26956115,20.7029182 2.26813174,20.5346773 C2.26591616,20.2630904 2.02591912,20.1412337 1.75726251,20.1544557 C1.54485298,20.1648903 1.33372991,20.2264262 1.12232096,20.2247109 C0.43527761,20.2189218 -0.0565805345,19.6422285 0.00524121718,18.9356738 C0.0625603442,18.2803632 0.686066659,17.7892912 1.33551667,17.8898499 C1.45294226,17.9080033 1.56829522,17.9402364 1.68600669,17.9558169 C1.94251336,17.9896938 2.13176654,17.9010707 2.20952615,17.6392752 C2.28942987,17.3702613 2.24761978,17.1314792 1.97345997,17.004834 C1.82623129,16.9368658 1.6562036,16.9131377 1.49382323,16.8839063 C1.01883206,16.7984994 0.632463984,16.4415056 0.535121526,15.9879555 C0.428630879,15.4913803 0.639539537,14.9885157 1.06686006,14.7204309 C1.46073252,14.4732868 2.00612187,14.4905826 2.38019707,14.762098 C2.79679706,15.0644171 3.02092771,15.0525531 3.2305499,14.7170003 C3.41337076,14.4242583 3.29573075,14.1528858 2.88513426,13.9203931 C2.26377206,13.5684737 2.01562741,12.9382492 2.28585636,12.3575535 C2.49519267,11.9076484 2.85861881,11.658932 3.35819574,11.6587176 C3.85534268,11.6585032 4.21176473,11.9042893 4.44275653,12.3452606 C4.54059928,12.5320124 4.63379646,12.7389187 4.78538482,12.8732113 C4.87865348,12.9559023 5.12501137,12.9847048 5.21820856,12.9186663 C5.33377592,12.83669 5.4289028,12.6230654 5.41089231,12.4818403 C5.38895094,12.309597 5.25873218,12.1387831 5.1429504,11.9931268 C4.78066779,11.5374326 4.71048402,11.0572956 4.96241659,10.6021017 C5.20734508,10.1594865 5.67104395,9.93742849 6.20049544,10.0091846 C6.68513509,10.0748657 7.04870417,10.4552303 7.17170444,11.0180584 C7.19950636,11.145204 7.21065572,11.2975785 7.2884868,11.3869163 C7.39226158,11.5060572 7.567721,11.6610761 7.686576,11.6417077 C7.81207773,11.6213387 7.95244527,11.429584 8.00218855,11.2839277 C8.04664304,11.1536374 7.98889509,10.9813942 7.95473232,10.8325217 C7.82258385,10.2561143 7.99018155,9.76790109 8.42908025,9.4807337 C8.84575171,9.20814623 9.40043219,9.2288726 9.80223784,9.53204932 C10.2052585,9.83622664 10.3351914,10.325083 10.189678,10.8825509 C10.1467958,11.0470039 10.1066296,11.2679183 10.1816018,11.3934915 C10.2762284,11.5518696 10.4888524,11.7292587 10.6527336,11.7314028 C10.8115405,11.7335469 11.0366002,11.5561578 11.1165754,11.3987089 C11.2049841,11.2248218 11.1733943,10.9838956 11.1732513,10.7722008 C11.1729654,10.243607 11.454987,9.81099764 11.9310502,9.63253647 C12.394892,9.45872087 12.9249153,9.58486583 13.236454,9.94336052 C13.5675756,10.3243683 13.6223218,10.8578222 13.3834683,11.309657 C13.3006343,11.4662482 13.2114394,11.6244119 13.1623394,11.7927243 C13.0675699,12.1172706 13.2030059,12.3443315 13.5231926,12.4611139 C13.8299428,12.5729648 14.040923,12.4429605 14.1662103,12.178735 C14.246114,12.0103511 14.2841362,11.8181677 14.3172269,11.6324165 C14.4117105,11.1018215 14.7480495,10.7187411 15.23419,10.608391 C15.6976744,10.5031869 16.195679,10.6935836 16.4607621,11.0775216 C16.7503595,11.496909 16.749216,11.9921977 16.4592612,12.4518942 C16.3832169,12.5724645 16.303742,12.6916769 16.2387756,12.8181077 C16.100838,13.0865499 16.1580857,13.3001744 16.4351758,13.4412567 C16.7076918,13.5800519 16.9321083,13.5099396 17.0699744,13.2507885 C17.1628142,13.0762582 17.2262798,12.8780712 17.2625152,12.6829575 C17.3578565,12.1695153 17.614649,11.7985134 18.1320221,11.6582888 C18.6121591,11.5282129 19.0355487,11.6526426 19.3528051,12.0386533 C19.6897873,12.4487495 19.7075119,12.9043723 19.4747333,13.3747894 C19.4694445,13.3855099 19.4590813,13.396016 19.4591528,13.4065936 C19.4604393,13.6430886 19.4201301,13.8929485 19.4877409,14.1089316 C19.5119693,14.1862624 19.8164325,14.2444392 19.9596589,14.2011997 C20.236606,14.117508 20.2263858,13.8429194 20.2261714,13.6007782 C20.2256711,13.1720283 20.1928662,12.7399907 20.235391,12.315529 C20.2687676,11.9826207 20.4135663,11.6622911 20.4738872,11.3300975 C20.5094079,11.1344834 20.5377101,10.9004899 20.4642387,10.728604 C20.1494123,9.99167439 19.9974666,9.23008759 20.0323441,8.43369478 C20.0572157,7.86593525 20.3707556,7.42703655 20.7341818,7.02465913 C20.965245,6.76886717 21.2158911,6.53044247 21.4635355,6.29015955 C21.9448875,5.82310157 22.2189044,5.25884408 22.27508,4.59016858 C22.2970214,4.32894488 22.3474079,4.05499947 22.0388709,3.9092002 C21.7565635,3.77576527 21.2637047,3.84945108 21.069663,4.05557124 C20.9964061,4.13333085 20.9456622,4.2359621 20.8639002,4.3012859 C20.7237471,4.41313681 20.5672988,4.50454724 20.4176401,4.6045341 C20.3596063,4.43422053 20.2573324,4.26533637 20.2515433,4.09323605 C20.2308884,3.48652524 20.2432527,2.87859944 20.2431098,2.27117392 C20.2431098,2.21163922 20.2462545,2.1518901 20.2423236,2.09256981 C20.2226693,1.793181 20.3821909,1.76209145 20.5950292,1.87958852 C20.7594822,1.97042718 20.9062106,2.09650067 21.0517955,2.21771419 C21.4706825,2.56620305 21.9094383,2.66790519 22.1915313,2.4738635 C22.4428206,2.30097701 22.5054286,1.83070288 22.294377,1.34592028 C22.1577259,1.03223743 21.9435296,0.752860289 21.7963009,0.442822418 C21.736123,0.316034224 21.7609231,0.148865349 21.7470579,-7.14702315e-06 L24.534397,-7.14702315e-06 Z" id="Fill-5" fill="#0B0F17" mask="url(#mask-2)"></path>
                </g>
                <path d="M102.137667,87.5461328 C102.670478,86.2994775 103.180275,85.1094267 103.687999,83.9185182 C108.990948,71.4809109 114.293396,59.0431606 119.596487,46.6055532 C120.482718,44.526913 121.374952,42.4507027 122.252893,40.3685604 C122.340944,40.1597959 122.441932,40.0867533 122.667635,40.0870392 C127.527325,40.0932571 132.387086,40.0955441 137.246847,40.0821044 C137.554241,40.0812501 137.620279,40.2456316 137.708259,40.4553253 C140.04505,46.0257867 142.382841,51.5958193 144.720919,57.1657805 C148.356752,65.8275439 151.9928,74.4892359 155.628848,83.1509279 C159.913775,93.3585925 164.198773,103.566114 168.483556,113.77385 C168.647866,114.165364 168.809603,114.558022 169,115.016146 L168.562817,115.016146 C161.749631,115.01636 154.936445,115.015002 148.123259,115.02215 C147.860034,115.02215 147.734175,114.953395 147.63233,114.694458 C143.210895,103.45169 138.78017,92.2125673 134.350302,80.9731584 C132.881088,77.2455569 131.41116,73.5181698 129.941446,69.7907828 C129.906926,69.7031603 129.870548,69.6162525 129.801722,69.4472968 C129.723247,69.6198974 129.670288,69.7279604 129.624118,69.8388822 C127.203279,75.656988 124.780366,81.4742362 122.370604,87.2969161 C122.257252,87.5708615 122.118815,87.6323259 121.846084,87.630825 C118.582896,87.6125287 115.319565,87.6096698 112.056306,87.5964479 C108.852939,87.5834403 105.649571,87.5632142 102.446204,87.5462043 C102.363442,87.5457755 102.280679,87.5461328 102.137667,87.5461328" id="Fill-8" fill="#0B0F17"></path>
                <path d="M100.044568,64.6614499 C99.3764647,64.1148456 98.7990567,63.6206289 98.1989212,63.1555721 C96.4752735,61.8199364 94.5767383,60.7899788 92.5548454,59.9845808 C89.590546,58.803964 86.5171115,58.1798145 83.320248,58.2569308 C81.0544987,58.3116056 78.8578611,58.7582945 76.7269761,59.5334607 C74.3892562,60.383885 72.2427192,61.5798679 70.3393954,63.1762985 C69.4311517,63.9380997 68.6049558,64.8015316 67.7784026,65.6546003 C67.540907,65.8997432 67.3164904,65.9751447 67.0027361,65.9751447 C60.7139988,65.9702843 54.4251901,65.9714993 48.1364528,65.9714278 C47.8074038,65.9714278 47.4783549,65.9714278 47.0738334,65.9714278 C47.1568103,65.6954812 47.2117709,65.4592721 47.2978211,65.2349985 C48.0455427,63.2865056 48.9395638,61.4062667 50.0030409,59.6110773 C51.0100565,57.9112293 52.1400008,56.2957876 53.3932314,54.7645379 C54.9499245,52.8625006 56.6697842,51.1233439 58.5498802,49.5455671 C61.1127313,47.3948133 63.9010709,45.5916193 66.9202595,44.138558 C69.2872107,42.9994655 71.7349947,42.0886488 74.2749038,41.434982 C76.5703133,40.8442806 78.9010291,40.4632013 81.2716252,40.2948889 C83.4387457,40.1410849 85.5979329,40.1736754 87.7629092,40.2968901 C91.1526709,40.4897882 94.4733208,41.0451119 97.7040613,42.1017279 C101.037076,43.1918633 104.104935,44.7891516 106.889987,46.923753 C107.5736,47.4476298 107.566953,47.4467007 107.240549,48.1922067 C106.018694,50.982619 104.80177,53.775104 103.58113,56.5660166 C102.541738,58.9424733 101.499631,61.3176436 100.459453,63.6937429 C100.323588,64.0039952 100.19244,64.3162487 100.044568,64.6614499" id="Fill-10" fill="#0B0F17"></path>
            </g>
        </g>
    </g>
</svg>