<?xml version="1.0" encoding="UTF-8"?>
<svg width="82px" height="58px" viewBox="0 0 82 58" version="1.1" xmlns="http://www.w3.org/2000/svg" xmlns:xlink="http://www.w3.org/1999/xlink">
    <title>76671021-408C-4988-AF9B-989673D6A3E5</title>
    <defs>
        <polygon id="path-1" points="0 0 22.435407 0 22.435407 18.2579837 0 18.2579837"></polygon>
    </defs>
    <g id="Page-1" stroke="none" stroke-width="1" fill="none" fill-rule="evenodd">
        <g id="Index-White" transform="translate(-488, -2783)">
            <g id="Group-3" transform="translate(0, 2122)">
                <g id="VCA-logo" transform="translate(488, 661)">
                    <path d="M0,19.4889599 C0.138225968,19.4930866 0.276486615,19.5008198 0.414712583,19.5008544 C3.65119769,19.5015827 6.88768279,19.5024149 10.1241679,19.4981149 C10.2620124,19.4979068 10.3223866,19.5371275 10.3734324,19.6670654 C11.7406072,23.1465383 13.1133998,26.6237919 14.4842158,30.101843 C15.9671107,33.8642872 17.4489652,37.627113 18.9313745,41.3897306 C18.9565853,41.453746 18.9832526,41.5172065 19.0239298,41.6169747 C19.0620061,41.5293091 19.0892629,41.4709115 19.1131212,41.4111616 C20.2380712,38.5924407 21.3635759,35.7739279 22.4845726,32.9536118 C22.5328442,32.8321006 22.5908949,32.7880944 22.7225321,32.7910767 C23.2596575,32.8032139 23.7970604,32.8052253 24.3343592,32.8080342 C26.6052045,32.8199634 28.8760498,32.8311296 31.1468951,32.8418104 C31.5617464,32.8437524 31.9766324,32.8420878 32.420405,32.8420878 C32.3793464,32.9440061 32.351292,33.0174191 32.3204981,33.0896878 C30.1235166,38.2498234 27.9260844,43.4097509 25.7291723,48.5699559 C24.7210868,50.9378299 23.7127932,53.3056345 22.7092158,55.6754504 C22.6497779,55.8157223 22.5826069,55.8688835 22.4215282,55.8684013 C20.0924241,55.8616358 17.7632853,55.8624681 15.4341812,55.8672536 C15.3029602,55.8675311 15.2450828,55.827062 15.1953201,55.7084637 C12.5756849,49.4619053 9.95206166,43.217046 7.33041509,36.9713199 C4.92096238,31.2311623 2.51334759,25.4902071 0.103964238,19.7500496 C0.0759445235,19.6833294 0.0349552875,19.6220882 0,19.5583157 C0,19.5351855 0,19.5120901 0,19.4889599" id="Fill-1" fill="#FFFFFF"></path>
                    <path d="M40.0529336,57.1491209 C39.9123843,57.1279674 39.7722857,57.1026872 39.6311468,57.086354 C38.9603728,57.0087102 38.2837383,56.9651895 37.6198306,56.8488453 C36.8935721,56.7215428 36.1672442,56.5663941 35.4623126,56.3528478 C34.6299398,56.1006703 33.8079704,55.8031689 33.0040335,55.4707816 C31.8647962,54.9997522 30.7984519,54.3873758 29.7818356,53.6863281 C28.7416731,52.9690858 27.7790156,52.1631029 26.9035729,51.2536412 C26.6194918,50.9585672 26.3502875,50.6485471 26.087464,50.334331 C26.0420707,50.2800948 26.0291705,50.1561908 26.0579878,50.0886383 C26.7078857,48.5642687 27.3672853,47.0439218 28.0215179,45.5213902 C28.4409466,44.5453123 28.8539947,43.5664949 29.2715855,42.5896541 C29.6685777,41.6610503 30.0675119,40.7332787 30.4666541,39.8056111 C30.4972747,39.7344175 30.5363566,39.6668997 30.6155609,39.601844 C30.6445169,39.7263028 30.6808593,39.849548 30.7012499,39.9753939 C30.9117445,41.2725541 31.400425,42.4630799 32.1149624,43.557444 C32.9408157,44.822215 34.0033802,45.8544364 35.2806353,46.6639564 C36.2195385,47.2590286 37.2250578,47.7029399 38.3010773,47.9799814 C39.5324883,48.2970064 40.7780825,48.3858164 42.0452463,48.2276507 C43.2892454,48.0723979 44.4541095,47.6906293 45.5425783,47.0788424 C46.5899192,46.4901857 47.5017043,45.7311912 48.2486655,44.7885082 C48.5665228,44.3873199 48.8425239,43.9524595 49.1291712,43.5273089 C49.2005729,43.4214027 49.2733964,43.3538502 49.406386,43.3657447 C49.469361,43.3713972 49.5333763,43.3642536 49.5969409,43.3642189 C52.5906116,43.3636987 55.5842823,43.3633173 58.5779876,43.3629358 C58.6126308,43.3629358 58.6473434,43.3628665 58.6819866,43.363456 C58.8758358,43.3668197 58.8735471,43.3685883 58.8233335,43.5592125 C58.5175788,44.7195686 58.079528,45.8306473 57.5407727,46.8997312 C56.9128953,48.1456029 56.1596921,49.3121316 55.2647951,50.3869373 C54.5087136,51.2950119 53.681057,52.1294653 52.7710405,52.8814548 C51.4093101,54.0066822 49.9168095,54.9214496 48.2910765,55.6128915 C46.8775027,56.2141363 45.4162815,56.6604058 43.8918773,56.8735012 C43.2008168,56.9701138 42.5043813,57.0281645 41.8106159,57.1057736 C41.7555128,57.1119462 41.7022476,57.1342788 41.6481154,57.1491209 L40.0529336,57.1491209 Z" id="Fill-3" fill="#FFFFFF"></path>
                    <g id="Group-7" transform="translate(29.5358, 0)">
                        <mask id="mask-2" fill="white">
                            <use xlink:href="#path-1"></use>
                        </mask>
                        <g id="Clip-6"></g>
                        <path d="M12.070544,15.7912557 C12.0385363,15.7379905 12.019845,15.6880891 11.9857566,15.6533072 C11.7718636,15.4350447 11.5542946,15.2203887 11.3384596,15.0039989 C11.2352583,14.9005548 11.1379522,14.9127961 11.0393283,15.0122175 C10.8322668,15.2210476 10.6250666,15.4297737 10.4147106,15.6352747 C10.3061342,15.741389 10.3043657,15.843758 10.4093703,15.9490747 C10.6210786,16.1614073 10.8343822,16.3721447 11.0462639,16.5843385 C11.1415934,16.6798414 11.2359518,16.6819914 11.3316281,16.5863845 C11.5477405,16.3703414 11.765032,16.155408 11.9785783,15.9367987 C12.0161691,15.8983063 12.0378081,15.8441742 12.070544,15.7912557 L12.070544,15.7912557 Z M6.71666316,16.9700604 C7.0612571,16.9631942 7.39433799,16.8687317 7.6598664,16.6078848 C7.97058007,16.3026502 7.9095817,15.9210897 7.51605729,15.7376784 C7.13064751,15.5580124 6.73601341,15.5848878 6.36554978,15.7731192 C6.20266785,15.8558953 6.04838603,15.9871857 5.93710476,16.1323819 C5.7720728,16.3476621 5.83289778,16.6048678 6.04796989,16.7727087 C6.23862879,16.9215114 6.46212763,16.9658991 6.71666316,16.9700604 L6.71666316,16.9700604 Z M15.4129006,15.6028162 C15.2322983,15.6535153 15.040287,15.6802172 14.8734864,15.7598376 C14.5071495,15.9347874 14.4536762,16.3043841 14.7332145,16.5979669 C15.076352,16.9583393 15.7365491,17.0887974 16.1926671,16.8863134 C16.6186847,16.697215 16.6873815,16.2910331 16.3422327,15.9744936 C16.0834318,15.7371583 15.7682794,15.64332 15.4129006,15.6028162 L15.4129006,15.6028162 Z M11.6176858,6.09185701 C11.5938968,5.93261626 11.5115715,5.79820485 11.3803158,5.73099915 C11.2222888,5.65006102 11.0252144,5.68921233 10.9071363,5.82501084 C10.7788282,5.97259984 10.7758459,6.16794025 10.8994032,6.33338834 C11.0292718,6.50726315 11.0429348,6.65714088 10.9407738,6.78666271 C10.7619401,7.01335191 10.7603796,7.14086242 10.9335262,7.3721291 C11.0346468,7.50713002 11.0315258,7.6678966 10.9252728,7.79922168 C10.763778,7.99889682 10.76357,8.14624307 10.9244753,8.35874902 C11.0364848,8.50668479 11.0348549,8.65399636 10.9197244,8.79683449 C10.7675579,8.9855861 10.7660321,9.15783106 10.9149388,9.3448141 C11.0416171,9.50395082 11.0392937,9.59043742 10.9040153,9.7479096 C10.7608651,9.91457142 10.7711297,10.1451099 10.9282898,10.2937045 C11.0825023,10.4394903 11.3058277,10.4425766 11.4614967,10.3010562 C11.6231649,10.1541261 11.6391167,9.92764497 11.4998851,9.75692585 C11.3639132,9.59019467 11.363393,9.51064365 11.4970068,9.33454946 C11.6274996,9.16254725 11.6302738,8.99033697 11.5051561,8.82599857 C11.363289,8.6396744 11.3629769,8.5221858 11.503769,8.33235917 C11.6247254,8.16933853 11.6278811,7.99206528 11.5125772,7.83594554 C11.3620059,7.63203969 11.3615897,7.53247954 11.5103231,7.32881644 C11.6280198,7.16777244 11.6271528,6.98703141 11.5079997,6.83295766 C11.3710915,6.65596184 11.3745593,6.5256771 11.5039424,6.33529562 C11.5536357,6.26216 11.5804417,6.17345403 11.6176858,6.09185701 L11.6176858,6.09185701 Z M11.6830535,3.98004441 C11.6652638,3.84185312 11.6570451,3.69128183 11.6242052,3.54629368 C11.5900822,3.39575707 11.5492663,3.24168332 11.4784888,3.10633561 C11.4327487,3.01884336 11.3251433,2.90371285 11.2501698,2.90718064 C11.1627815,2.91120327 11.0357218,3.01530622 11.0048585,3.10359606 C10.916534,3.35636302 10.8625753,3.62189143 10.8073334,3.88499238 C10.7896824,3.96905153 10.7710604,4.00900043 10.6771527,4.02907891 C10.5037981,4.06611487 10.3322814,4.12010831 10.1672494,4.18537205 C10.0433454,4.23440655 9.89898144,4.31985281 9.93112782,4.46640146 C9.9538765,4.56994957 10.062661,4.68820108 10.1630534,4.73390651 C10.3543018,4.82098263 10.564519,4.87313814 10.7718926,4.91489029 C10.8695802,4.93458731 10.9197244,4.96309252 10.9556507,5.0563413 C11.0069739,5.18943494 11.0645045,5.3456934 11.2375123,5.34583216 C11.4113525,5.34593614 11.4564337,5.18239533 11.5229805,5.0566534 C11.5256507,5.05159043 11.5253733,5.04368388 11.5292225,5.04077093 C11.5819329,5.00082203 11.6295456,4.94467857 11.6891568,4.9250509 C11.9014201,4.855175 12.1257165,4.81605837 12.3291022,4.72759514 C12.4248824,4.68591235 12.5478848,4.55392839 12.5419896,4.47118701 C12.5350193,4.37343011 12.4197154,4.24848576 12.3199125,4.19972868 C12.1259592,4.10498876 11.9100548,4.05515667 11.6830535,3.98004441 L11.6830535,3.98004441 Z M13.5701189,12.6642833 C13.5729625,12.6642833 13.5758061,12.6642833 13.5786497,12.6642833 C13.5786497,12.9243326 13.5847876,13.18459 13.5767771,13.4443966 C13.5700149,13.6625203 13.561068,13.8827595 13.5224022,14.0964791 C13.5103343,14.1629913 13.4035958,14.2435826 13.3295932,14.2564481 C13.2822233,14.2646668 13.1950431,14.1709325 13.1611282,14.1047325 C13.0666657,13.9204543 13.0045229,13.7190106 12.9042345,13.538443 C12.7408324,13.2442706 12.4531102,13.1235917 12.1421538,13.1930514 C11.9574595,13.2343181 11.8706261,13.3281564 11.9125863,13.5121918 C11.9697008,13.76267 12.0329879,14.0205693 12.1490894,14.2468424 C12.3495274,14.6374192 12.6655815,14.9388738 13.0211336,15.1948312 C13.2106828,15.3312886 13.4241251,15.3925643 13.6583394,15.3672495 C14.0807158,15.3216134 14.460161,15.1548129 14.8103727,14.9267713 C14.9268557,14.8509308 15.023711,14.7301478 15.1007652,14.611272 C15.3212817,14.2710475 15.4204951,13.8839732 15.4806612,13.4886802 C15.5154778,13.2599797 15.429442,13.0682805 15.2349338,12.9339037 C14.947489,12.7353036 14.7945249,12.8093062 14.7461493,13.1553913 C14.7362315,13.2265502 14.6777299,13.3338089 14.6240486,13.3458074 C14.5443588,13.3636318 14.4263501,13.3369299 14.3654557,13.2830405 C14.2685311,13.1973168 14.1983084,13.0778516 14.1289874,12.9651138 C13.9406519,12.6587696 13.9917324,12.1784118 14.2399912,11.8578496 C14.4288815,11.6139602 14.7119223,11.5553546 15.1088104,11.6797441 C15.1692193,11.6986782 15.2286225,11.7217043 15.2867079,11.7469498 C15.5671824,11.8688425 15.6284582,11.843701 15.6886937,11.5472746 C15.777365,11.1110618 15.9870274,10.737165 16.2624736,10.3964897 C16.4092997,10.2149511 16.547595,10.2121422 16.6856129,10.4002002 C16.7758794,10.523272 16.8719024,10.6647577 16.8955527,10.809399 C16.9473268,11.1258346 16.9678908,11.4492056 16.9751731,11.7703573 C16.9797853,11.9723559 17.0327384,12.0448326 17.2385862,12.0254477 C17.2953538,12.0201073 17.3538554,12.0155645 17.4098601,12.0232283 C17.9298894,12.0942139 18.21886,12.4214343 18.2167794,12.9331755 C18.214664,13.451991 17.8437496,13.9092187 17.373379,13.9728526 C17.1574746,14.0020513 17.1097926,13.9455958 17.1735652,13.7344422 C17.1902452,13.6792351 17.210289,13.6249989 17.2290151,13.5704159 C17.2784657,13.426052 17.2218368,13.3221224 17.1006029,13.247461 C16.9396283,13.1483517 16.7652333,13.1746375 16.6347058,13.3297516 C16.3992778,13.6094632 16.2701374,13.9289157 16.2994749,14.3021536 C16.3254486,14.632807 16.4524043,14.9265285 16.6184419,15.2081475 C16.8792541,15.6506023 17.2693801,15.865293 17.7773761,15.8702519 C17.9155674,15.8716044 18.0542789,15.8587736 18.1920887,15.8457694 C18.8994478,15.7789798 19.3362849,15.3439807 19.6461663,14.7531392 C19.7613661,14.5335243 19.6698513,14.4103138 19.4194771,14.4155502 C19.0284495,14.4237342 18.7000848,14.5649077 18.461397,14.8864409 C18.3960639,14.974488 18.3400592,15.0749498 18.2576299,15.1427797 C18.2062373,15.1850867 18.1090006,15.1971892 18.0408932,15.1826592 C18.008088,15.1756543 17.9788199,15.0761635 17.9774674,15.01787 C17.9759069,14.9514619 18.0029557,14.8828691 18.0250455,14.8177094 C18.3675587,13.8069883 18.7094825,12.7960245 19.05907,11.787731 C19.0801888,11.7267326 19.164248,11.6875466 19.2190043,11.6382 C19.2529193,11.6984701 19.3098603,11.7563128 19.3165878,11.8194959 C19.3404809,12.04296 19.3351752,12.2698226 19.3633683,12.4925932 C19.4019301,12.7972383 19.4555421,13.1015365 19.7076154,13.3200764 C19.9316345,13.5142725 20.1055786,13.4783115 20.1503824,13.1905546 C20.2012895,12.8637504 20.2186978,12.5256066 20.1988621,12.195508 C20.1761134,11.8168604 19.9672833,11.5011184 19.7551935,11.1943927 C19.712401,11.1325274 19.7051186,11.0461101 19.6814683,10.9709979 C19.7567193,10.956017 19.8316235,10.9307716 19.9072559,10.9283788 C20.0277962,10.9245642 20.162589,10.9571614 20.2341295,10.8271194 C20.3611545,10.5963036 20.5081193,10.3693369 20.5890921,10.1218757 C20.7342536,9.67810306 20.7424029,9.21168578 20.7011709,8.74884032 C20.658864,8.27430842 20.4993111,7.84121657 20.2162357,7.45185351 C19.6323645,6.64885287 18.1790499,6.08807712 17.0819116,6.42889118 C16.8781098,6.49217828 16.6693143,6.540866 16.4687029,6.61275322 C15.3172591,7.02541981 14.1739299,7.46253429 12.9562167,7.6539561 C12.7054957,7.69335016 12.5477808,7.87943158 12.5452493,8.14228979 C12.5394234,8.74832015 12.5416081,9.35518278 12.5703561,9.96027684 C12.5782626,10.1265225 12.6648879,10.3062579 12.7629569,10.4464952 C12.8810004,10.6152377 12.9011829,10.6507131 12.7356654,10.7856447 C12.5700786,10.920715 12.3938457,11.0439948 12.2377607,11.1891217 C12.1432288,11.2769954 12.0390218,11.3858839 12.0068061,11.5038233 C11.8941724,11.9163512 12.0192901,12.1319088 12.4365342,12.103681 C12.6623911,12.088388 12.8406007,12.0051612 12.961453,11.8182822 C13.0676366,11.6540478 13.1517998,11.4754568 13.2595786,11.3124015 C13.2989033,11.2528942 13.3783156,11.2198809 13.4394527,11.1747997 C13.4822452,11.243774 13.5280893,11.3111531 13.5660616,11.3826935 C13.5781642,11.4055462 13.5700149,11.4395305 13.5700149,11.4683825 C13.5701883,11.8670046 13.5701189,12.2656266 13.5701189,12.6642833 L13.5701189,12.6642833 Z M8.85188332,12.6785013 C8.85188332,12.2625403 8.84456629,11.8463365 8.85777855,11.4307917 C8.86055278,11.3428486 8.93847394,11.2572983 8.9817866,11.170673 C9.05239073,11.2297641 9.12819654,11.2838616 9.191553,11.3499229 C9.22567602,11.3855371 9.23340918,11.4449403 9.26177568,11.4878368 C9.35987936,11.6364661 9.44747564,11.7954641 9.5656578,11.9265464 C9.74182136,12.1218869 10.216492,12.1623212 10.3622084,12.0140387 C10.5318871,11.8414123 10.4748421,11.4474371 10.2421189,11.2324343 C10.1235206,11.1228523 9.9935133,11.0256155 9.869748,10.9215126 C9.77722746,10.8436954 9.68103106,10.769138 9.59672917,10.6831023 C9.53905988,10.6242192 9.52591697,10.5557305 9.61226485,10.4940039 C9.78145816,10.3730475 9.84776223,10.1860991 9.85455909,9.99564827 C9.87685696,9.37266043 9.89117892,8.74890968 9.88545707,8.12564442 C9.88285623,7.84433758 9.69524898,7.69341951 9.39760887,7.62621381 C8.84095979,7.50050655 8.27907435,7.38815027 7.73452784,7.22093361 C7.03490192,7.00603488 6.35004877,6.7429686 5.65905764,6.49994612 C4.9818683,6.26181323 4.30429751,6.24905177 3.62190648,6.48250316 C2.83780529,6.75077112 2.21644731,7.20290112 1.90132955,7.99841133 C1.67568069,8.56816865 1.67776136,9.15928753 1.75793658,9.75657907 C1.80905176,10.1372033 1.94387929,10.4829763 2.17889118,10.7843269 C2.22844585,10.8478915 2.32724309,10.8781652 2.40887478,10.9094447 C2.44781802,10.9243908 2.50056305,10.8984865 2.54547089,10.9040003 C2.61083866,10.9120108 2.67474997,10.9316732 2.73932015,10.9463766 C2.72288284,11.0112936 2.71705696,11.0816203 2.68751142,11.1398791 C2.6433665,11.2268512 2.58274959,11.3055352 2.52865212,11.3874444 C2.16467326,11.9385103 2.10787092,12.5382987 2.26343582,13.1640607 C2.33806258,13.464267 2.48540883,13.4985981 2.71931102,13.2926809 C2.90778522,13.1267473 2.99184436,12.9048784 3.0234359,12.6672656 C3.06213639,12.3761796 3.07226233,12.0813484 3.10728697,11.7896036 C3.11456933,11.7289173 3.17660803,11.6748198 3.21343592,11.6176707 C3.2643777,11.6652487 3.34226418,11.7035678 3.36223863,11.7617919 C3.71224232,12.7819453 4.0555185,13.8044222 4.39876001,14.826899 C4.42060706,14.892024 4.43447821,14.9605475 4.4446735,15.0286201 C4.46336487,15.1535298 4.38606791,15.2165742 4.2836295,15.1820003 C4.19585982,15.1523854 4.10791676,15.0775159 4.05472091,14.999144 C3.8169348,14.6487588 3.50733082,14.419018 3.07517527,14.3989742 C2.96902633,14.3940499 2.81550742,14.4165212 2.7655713,14.4855648 C2.71938038,14.5494414 2.75312194,14.7089943 2.80260726,14.7980817 C3.13891319,15.4034532 3.61798789,15.8042599 4.34483593,15.8468097 C4.85012709,15.8763899 5.31945731,15.8179577 5.65919635,15.3897554 C5.88505329,15.1051542 6.04155449,14.7829968 6.10057621,14.4229019 C6.17239407,13.9849205 6.05240866,13.5981929 5.74315146,13.2780469 C5.62150152,13.1520969 5.44675976,13.1466178 5.29979496,13.2449295 C5.15945365,13.3387678 5.1488769,13.4647178 5.20758652,13.6100181 C5.22912148,13.6633179 5.24594024,13.7190453 5.25939525,13.774946 C5.29514813,13.9234366 5.242091,13.983464 5.09249069,13.9676509 C4.63977117,13.9198648 4.22575214,13.4766123 4.20515349,13.0176855 C4.17963058,12.4485523 4.42518454,12.1193554 4.9627608,12.0142121 C5.05139742,11.9968732 5.14610267,12.0103975 5.23799901,12.0100161 C5.39723976,12.0093225 5.45723247,11.9432265 5.44665572,11.7863438 C5.43888788,11.6713174 5.42598771,11.5552159 5.43361684,11.4408136 C5.45823813,11.0720492 5.47294154,10.6992275 5.72775449,10.3937155 C5.88141211,10.2095413 6.02674704,10.1983404 6.16674158,10.3894848 C6.30947567,10.5844091 6.44790971,10.7871705 6.5528796,11.0036298 C6.6421751,11.1877692 6.68559179,11.3950388 6.74124976,11.5943672 C6.79957793,11.803232 6.87614666,11.8419325 7.07887345,11.7608903 C7.20173713,11.7117864 7.3260226,11.6590761 7.45474683,11.6333451 C7.70675087,11.5829582 7.96177189,11.5845187 8.1405016,11.8051739 C8.53041951,12.286572 8.5023998,12.8608375 8.02134846,13.3038819 C7.97116959,13.3501075 7.85586569,13.357806 7.7839438,13.337242 C7.7342851,13.3230587 7.69922577,13.2327923 7.67276656,13.1701294 C7.65088483,13.1184247 7.65580909,13.0561085 7.64079357,13.0006933 C7.59387442,12.8280322 7.4964643,12.7817026 7.32723632,12.8472784 C7.01999044,12.9663275 6.87767248,13.2421206 6.95011454,13.5933033 C6.98035364,13.7400254 7.02540019,13.8836264 7.06319906,14.028788 C7.20829124,14.5861306 7.53943017,14.9539587 8.08324845,15.1837689 C8.73758507,15.4602555 9.28393483,15.4091057 9.77910006,14.8759682 C10.1355885,14.4921189 10.4440828,14.0928727 10.5057054,13.5503375 C10.5319565,13.3189667 10.4597919,13.2099742 10.2300857,13.1811916 C9.91711796,13.1420056 9.66903252,13.2550208 9.51710879,13.5317848 C9.41491313,13.7179703 9.34819292,13.9233672 9.25130296,14.1128818 C9.21998885,14.1741229 9.13821844,14.256032 9.08855974,14.2503102 C9.01889191,14.2422996 8.94298207,14.1716608 8.89738068,14.1080269 C8.86083021,14.0569811 8.85413738,13.9765631 8.85354785,13.9090106 C8.84983732,13.4988755 8.85170993,13.0887057 8.85188332,12.6785013 L8.85188332,12.6785013 Z M11.9042636,-3.46778597e-06 C11.8921611,0.0771894589 11.8946925,0.160555045 11.8652164,0.230396265 C11.7764064,0.440752192 11.6542016,0.639456356 11.588383,0.855880909 C11.559635,0.950308734 11.6022541,1.12321257 11.6744188,1.17640841 C11.7558077,1.23636644 11.9194179,1.23671322 12.0245612,1.19926112 C12.1547072,1.15286214 12.2574924,1.03440256 12.3800439,0.960157248 C12.4393431,0.924196302 12.5167441,0.91805832 12.5859264,0.898430649 C12.6005258,0.961995175 12.6266036,1.02538631 12.6276786,1.08919358 C12.6323254,1.36651247 12.6379085,1.64435152 12.6254592,1.92118491 C12.6207083,2.02736853 12.5686915,2.1314368 12.5382444,2.23647606 C12.4546014,2.17433332 12.3496315,2.12744885 12.2919622,2.04678814 C12.1866108,1.89937253 12.0527196,1.85970106 11.8867513,1.87034716 C11.6963005,1.88258845 11.6252109,1.9498635 11.629719,2.14190952 C11.6389433,2.53311051 11.809385,2.84885247 12.0870507,3.11868093 C12.2478866,3.27497407 12.4012321,3.44142782 12.5399783,3.61745266 C12.7000166,3.8204222 12.771349,4.06375678 12.7213435,4.31856973 C12.6618016,4.62200104 12.5668883,4.91835807 12.5007576,5.22074905 C12.4805404,5.31330427 12.4934059,5.41768465 12.511265,5.51287538 C12.5383831,5.65737805 12.604375,5.79692177 12.6155066,5.94149379 C12.6336085,6.17706052 12.6100622,6.41578294 12.6267076,6.65155775 C12.6327069,6.73634513 12.6862495,6.83968516 12.7521028,6.89045356 C12.7951727,6.92370963 12.9412705,6.90352711 12.9670362,6.86163625 C13.01399,6.78531027 13.0176658,6.67489595 13.0162094,6.57904633 C13.0153424,6.52037138 12.9679031,6.46349969 12.9472351,6.4037844 C12.8700075,6.18077106 12.9145339,5.97963944 13.0762714,5.81148648 C13.2402977,5.64090606 13.4474633,5.60286444 13.6671822,5.67090241 C13.8844391,5.73821215 14.0047019,5.89856259 14.0526961,6.12005012 C14.0755835,6.22578292 14.1019733,6.33442867 14.1499675,6.43017426 C14.2177627,6.56541793 14.3329972,6.59527557 14.4709111,6.52370046 C14.6105242,6.45118904 14.6185695,6.34358363 14.5522654,6.218778 C14.5144318,6.14761902 14.4665764,6.08186979 14.4275638,6.01130033 C14.3072316,5.79369673 14.3123292,5.57668265 14.4583924,5.3759325 C14.6009531,5.18000256 14.8031251,5.1078726 15.0391773,5.15874503 C15.2837949,5.21149006 15.4268758,5.37003726 15.4814934,5.61423878 C15.5064615,5.72590151 15.5317417,5.84040782 15.5791116,5.94340107 C15.6387576,6.07316564 15.7544082,6.10496524 15.8859761,6.05367668 C16.0200754,6.00138246 16.0965054,5.90376427 16.0587412,5.75631399 C16.0362699,5.66854432 15.9901137,5.58587229 15.9479107,5.50437931 C15.8297632,5.27616428 15.85272,5.02433363 16.0125156,4.84126918 C16.1702305,4.6605975 16.4348226,4.59776121 16.6613731,4.6872301 C16.8873341,4.77642157 17.0166132,4.98750573 17.012972,5.25078008 C17.0116889,5.34219093 17.0125212,5.43595988 17.0309351,5.52480457 C17.0593016,5.6616781 17.1507818,5.73481372 17.2946256,5.71737075 C17.4348629,5.7003786 17.5118131,5.61070164 17.5202398,5.47389746 C17.5243318,5.40728129 17.5051202,5.33764813 17.487816,5.27162148 C17.4218934,5.02020696 17.4966935,4.78120712 17.6904041,4.63722462 C17.8806815,4.49580829 18.1453083,4.48582107 18.3415503,4.61263802 C18.5523917,4.74885267 18.6435945,4.98826865 18.5877285,5.2479365 C18.5709097,5.32616976 18.5404972,5.41262168 18.5590499,5.48423147 C18.5777413,5.5563961 18.6407856,5.65436107 18.7007436,5.66771205 C18.7568524,5.68023076 18.8510375,5.60993873 18.8975752,5.55150652 C18.9403677,5.49779051 18.9435234,5.41168537 18.9614518,5.33917396 C19.0274438,5.07243183 19.2011799,4.90833617 19.4568945,4.87296475 C19.68667,4.84116515 19.911556,4.9540416 20.0243631,5.15784341 C20.1466025,5.37870673 20.115115,5.62575183 19.9481064,5.83437387 C19.8916509,5.90487397 19.8235782,5.98678308 19.8152209,6.06903898 C19.8076611,6.1437351 19.8543028,6.25536314 19.9140875,6.29534672 C19.9605211,6.32638341 20.0784259,6.29246846 20.1380371,6.25009211 C20.1979951,6.20747301 20.2324996,6.12209611 20.2653742,6.04965405 C20.3858104,5.78429903 20.6020963,5.65644174 20.8899572,5.68779053 C21.1140803,5.71220375 21.3216273,5.90636511 21.3648359,6.13201398 C21.4154309,6.3964327 21.2996069,6.63043893 21.0539142,6.76845683 C20.9992619,6.79918142 20.9448176,6.83462219 20.9003259,6.87817759 C20.7875188,6.98859191 20.8037828,7.10646197 20.9039671,7.21413674 C20.9997127,7.31706065 21.1013882,7.33450361 21.2225526,7.2372322 C21.4604428,7.04633056 21.7024249,7.02999728 21.9253689,7.17533221 C22.1352047,7.31210171 22.2285575,7.56192105 22.1637099,7.81330089 C22.1077398,8.03034964 21.911047,8.19430659 21.6761738,8.22000289 C21.6419121,8.2237481 21.6067834,8.22482311 21.5737007,8.2334579 C21.395942,8.27971817 21.3138941,8.39301075 21.3471155,8.54288848 C21.3856773,8.7167633 21.4848213,8.77016721 21.6895248,8.72727069 C21.9951061,8.66329003 22.2480811,8.76538166 22.3669222,9.00895898 C22.4722389,9.22486337 22.4586105,9.43723061 22.30849,9.62788951 C22.1636059,9.81195962 21.9672251,9.87736207 21.7380044,9.83418813 C21.4687308,9.78348909 21.3457284,9.82884774 21.3179168,9.99627247 C21.2936769,10.1422663 21.4075937,10.2477563 21.6538066,10.2948142 C21.9058106,10.3429818 22.0752813,10.4817279 22.1321877,10.7335239 C22.1895449,10.9874005 22.0879388,11.218147 21.8791433,11.3477729 C21.6723245,11.4762197 21.4287819,11.4607534 21.2146114,11.306749 C21.1116182,11.2327117 21.0055732,11.1367928 20.8754619,11.2408957 C20.7754163,11.3209322 20.7938302,11.5467545 20.9060131,11.6671213 C21.0042902,11.772542 21.1164384,11.8649932 21.2156517,11.969651 C21.3409429,12.1018431 21.3731239,12.2490506 21.3092473,12.430936 C20.9766866,13.3778151 20.65283,14.3277458 20.3252976,15.2763935 C20.2670734,15.4449626 20.185095,15.6086768 20.1534341,15.7817887 C20.133633,15.8901223 20.1648084,16.0224531 20.2127679,16.125585 C20.3268581,16.3710696 20.4674421,16.6041049 20.5908953,16.8454628 C20.6297692,16.921442 20.6573035,17.0060907 20.6739488,17.0899765 C20.7057484,17.2504656 20.6576849,17.3636888 20.4863069,17.426109 C20.2535838,17.5108964 20.0258542,17.6115662 19.8019739,17.7180966 C19.5980681,17.8150906 19.4172924,17.9372954 19.3070168,18.1540667 C19.2323553,18.3008928 19.074467,18.2589673 18.9471646,18.226266 C18.6566681,18.1515699 18.3707838,18.05898 18.0799752,17.9857751 C16.7488307,17.6507175 15.3946254,17.4503141 14.0264102,17.3778374 C12.7872314,17.3122269 11.5443768,17.2632617 10.3041576,17.2802886 C8.07655562,17.3108745 5.86549497,17.5171384 3.71078585,18.1337108 C3.64423903,18.152749 3.5788019,18.175567 3.51232443,18.1948826 C3.2465186,18.2720061 3.21662628,18.2454429 3.04368777,18.0342547 C2.94065983,17.9084087 2.79927818,17.8016703 2.65467148,17.7249282 C2.42087332,17.6008508 2.17039511,17.5081915 1.92664439,17.4030135 C1.73074914,17.3184689 1.66909189,17.239126 1.74708241,17.0395895 C1.86190082,16.745764 2.0008897,16.4577643 2.16266194,16.1870689 C2.28902808,15.9755686 2.29270393,15.7811298 2.21540697,15.5615843 C1.84189169,14.5006843 1.46740543,13.4400618 1.10866292,12.3741683 C1.07287537,12.2677766 1.1141767,12.1127319 1.16869031,12.0050918 C1.22323859,11.8973477 1.34051913,11.8218887 1.42790735,11.7299923 C1.47919591,11.6760682 1.53637971,11.6236353 1.57220194,11.5600014 C1.64044798,11.438837 1.63867941,11.3040788 1.53766279,11.2081945 C1.43564051,11.1113392 1.3259891,11.1928322 1.24272755,11.2589629 C1.08223839,11.3864387 0.908398256,11.4411257 0.709624736,11.3919178 C0.44614232,11.3267234 0.275284481,11.10156 0.277503864,10.8344365 C0.279792603,10.5584007 0.457273915,10.3396527 0.730188709,10.2737301 C0.808179227,10.2549 0.903369965,10.2520911 0.957675501,10.2043397 C1.02606025,10.1442082 1.10120718,10.0452029 1.10051363,9.96357124 C1.09943861,9.83179536 0.982990342,9.7726696 0.852636249,9.779085 C0.749573636,9.78414797 0.647135224,9.81400561 0.5445581,9.81317334 C0.211199787,9.81036444 -0.0274532771,9.53054875 0.00254307579,9.18772338 C0.0303547232,8.86976204 0.332884414,8.63149043 0.64800217,8.68028218 C0.704977902,8.68909036 0.760947975,8.70473008 0.818062418,8.71228985 C0.942521274,8.72872716 1.03434826,8.68572661 1.07207778,8.55870159 C1.11084763,8.42817411 1.09056108,8.31231536 0.95753679,8.25086619 C0.886100389,8.21788754 0.803601749,8.20637449 0.72481364,8.19219124 C0.494344552,8.15075119 0.306876016,7.97753526 0.259644764,7.75746953 C0.207974746,7.51652772 0.310309124,7.27253427 0.517648077,7.1424576 C0.708757789,7.02254154 0.973384574,7.03093359 1.15488852,7.16267479 C1.35702579,7.30936216 1.46577557,7.30360564 1.56748575,7.14079306 C1.65619173,6.99875253 1.59911196,6.86708068 1.39988763,6.75427358 C1.09839828,6.58351978 0.97799673,6.27773037 1.10911374,5.99597272 C1.2106852,5.77767556 1.38702214,5.65699659 1.62942042,5.65689256 C1.87063964,5.65678852 2.04357815,5.7760457 2.15565701,5.99000812 C2.20313101,6.08062138 2.24835094,6.1810138 2.3219027,6.24617351 C2.36715731,6.2862958 2.48669191,6.30027098 2.53191184,6.26822863 C2.58798595,6.22845312 2.63414219,6.12480098 2.62540337,6.05627752 C2.61475726,5.97270387 2.55157419,5.88982377 2.49539605,5.81915028 C2.31961396,5.59804422 2.28556029,5.36507832 2.40779977,5.144215 C2.52664081,4.92945499 2.75163079,4.82171086 3.00852442,4.85652744 C3.24367502,4.8883964 3.42008131,5.07295199 3.47976192,5.34604018 C3.49325161,5.4077321 3.49866135,5.48166531 3.53642555,5.52501264 C3.58677781,5.58282064 3.67191197,5.65803692 3.72958125,5.64863922 C3.79047558,5.63875603 3.85858291,5.54571532 3.8827187,5.47504183 C3.90428834,5.41182409 3.87626862,5.32825043 3.8596926,5.25601644 C3.79557323,4.97633946 3.87689282,4.73945497 4.08984959,4.60011931 C4.29202154,4.46785793 4.56115645,4.47791451 4.7561154,4.62501802 C4.95166388,4.77260701 5.01470824,5.0098036 4.94410411,5.28029095 C4.92329739,5.36008471 4.90380843,5.46727399 4.94018551,5.528203 C4.986099,5.60504915 5.08926565,5.69111961 5.16878199,5.69215994 C5.24583621,5.69320028 5.3550368,5.60712982 5.39384133,5.53073448 C5.43673785,5.44636324 5.42141024,5.32946416 5.42134088,5.22674832 C5.42120217,4.97027084 5.55804102,4.76036572 5.78903028,4.67377509 C6.01408962,4.58943853 6.27126066,4.65064496 6.42242148,4.82458913 C6.58308402,5.00945682 6.60964727,5.2682924 6.49375384,5.48752586 C6.4535622,5.56350507 6.41028422,5.64024718 6.38646053,5.72191355 C6.34047768,5.87938573 6.40619224,5.98955731 6.56154907,6.04622094 C6.71038646,6.1004918 6.81275552,6.03741276 6.87354582,5.9092087 C6.91231567,5.82750765 6.93076429,5.73425887 6.94682015,5.6441311 C6.99266428,5.38668263 7.15585831,5.20080928 7.39173715,5.14726666 C7.6166231,5.09622084 7.85825846,5.18860267 7.98687866,5.37489216 C8.12739337,5.57838187 8.12683852,5.81869947 7.98615043,6.0417475 C7.94925318,6.10024905 7.91069139,6.15809173 7.87916921,6.21943688 C7.81224094,6.34968694 7.8400179,6.45333907 7.97446399,6.52179318 C8.10669068,6.58913759 8.21557918,6.55511861 8.28247278,6.42937667 C8.32751933,6.34469332 8.35831327,6.2485316 8.37589495,6.15386103 C8.42215522,5.90473525 8.54675279,5.72472246 8.79778585,5.65668449 C9.03075174,5.59357077 9.23618341,5.65394494 9.39011845,5.84124008 C9.55362459,6.04022167 9.5622247,6.26129306 9.44927889,6.48954276 C9.44671273,6.49474444 9.44168444,6.49984209 9.44171912,6.50497441 C9.44234332,6.61972347 9.422785,6.74095728 9.45559026,6.84575379 C9.46734606,6.88327524 9.61507376,6.91150302 9.6845682,6.89052291 C9.81894493,6.84991513 9.81398599,6.71668278 9.81388196,6.59919417 C9.81363921,6.39116166 9.79772207,6.18153397 9.8183554,5.97558213 C9.83454997,5.81405264 9.90480732,5.65862645 9.93407544,5.49744373 C9.95131034,5.40253042 9.96504277,5.28899509 9.92939393,5.20559483 C9.77663793,4.84803136 9.70291279,4.47850404 9.71983559,4.09208859 C9.73190349,3.81660764 9.88403528,3.60365087 10.0603722,3.40841449 C10.1724858,3.28430241 10.294101,3.16861706 10.4142598,3.05203008 C10.6478152,2.82541023 10.7807702,2.55162849 10.808027,2.22718239 C10.8186731,2.10043479 10.843121,1.96751454 10.6934166,1.89677169 C10.5564391,1.83202812 10.3173005,1.867781 10.2231501,1.96779196 C10.1876053,2.00552148 10.162984,2.05531889 10.1233125,2.08701446 C10.0553093,2.14128532 9.97939941,2.18563831 9.90678396,2.23415264 C9.87862553,2.15151529 9.82900151,2.06957149 9.8261926,1.9860672 C9.8161707,1.6916868 9.82216997,1.39671689 9.82210061,1.10198971 C9.82210061,1.07310305 9.82362644,1.04411236 9.82171916,1.01532973 C9.81218274,0.870064156 9.88958374,0.854979285 9.99285442,0.911989694 C10.0726482,0.95606526 10.1438418,1.01723701 10.2144807,1.07605067 C10.4177276,1.24513994 10.630615,1.29448654 10.7674886,1.20033614 C10.8894159,1.11645038 10.9197937,0.888270035 10.81739,0.653050079 C10.7510859,0.500848931 10.6471564,0.365293158 10.57572,0.214860581 C10.5465212,0.15334205 10.5585544,0.0722305242 10.5518269,-3.46778597e-06 L11.9042636,-3.46778597e-06 Z" id="Fill-5" fill="#FFFFFF" mask="url(#mask-2)"></path>
                    </g>
                    <path d="M49.5579213,42.4780053 C49.8164448,41.8731193 50.063802,41.2956982 50.3101536,40.7178609 C52.8831818,34.6830455 55.4559672,28.6481608 58.0290648,22.6133454 C58.4590703,21.6047743 58.8919888,20.5973824 59.3179717,19.5871121 C59.3606948,19.4858181 59.4096946,19.4503773 59.5192073,19.450516 C61.8771634,19.453533 64.2351542,19.4546427 66.5931449,19.4481216 C66.7422944,19.4477071 66.7743368,19.5274662 66.8170252,19.6292111 C67.9508527,22.3320385 69.0851656,25.0346579 70.2196173,27.7372426 C71.9837496,31.9399917 73.747986,36.1427062 75.5122223,40.3454206 C77.591299,45.298252 79.6704104,50.2510139 81.7494178,55.20388 C81.8291422,55.3938453 81.9076182,55.5843655 82,55.8066506 L81.7878755,55.8066506 C78.4820693,55.8067546 75.1762632,55.8060958 71.870457,55.809564 C71.7427385,55.809564 71.6816707,55.7762034 71.6322548,55.6505655 C69.4869434,50.1954947 67.3371238,44.7421924 65.1877204,39.2887514 C64.4748476,37.4800927 63.7616279,35.671538 63.0485123,33.8629834 C63.0317629,33.8204683 63.0141119,33.7783 62.9807171,33.6963215 C62.9426408,33.7800686 62.9169445,33.8325015 62.8945426,33.8863216 C61.719934,36.7093078 60.5443197,39.5318779 59.3750861,42.3570836 C59.320087,42.4900038 59.252916,42.5198268 59.1205853,42.5190985 C57.5372633,42.510221 55.953872,42.5088339 54.3705154,42.5024185 C52.8162188,42.4961071 51.2619222,42.4862933 49.7076257,42.4780399 C49.6674687,42.4778319 49.6273117,42.4780053 49.5579213,42.4780053" id="Fill-8" fill="#FFFFFF"></path>
                    <path d="M48.542335,31.3741946 C48.2181663,31.1089783 47.9380038,30.8691809 47.6468138,30.643532 C46.8104878,29.9954721 45.889305,29.4957294 44.9082682,29.1049445 C43.4699691,28.5321009 41.9787168,28.2292591 40.427576,28.2666765 C39.3282183,28.2932051 38.2623941,28.5099417 37.2284736,28.8860578 C36.0941953,29.2986898 35.0526803,29.8789891 34.1291741,30.6535886 C33.6884878,31.02322 33.2876117,31.4421632 32.8865622,31.8560782 C32.7713276,31.9750233 32.6624392,32.0116087 32.5102033,32.0116087 C29.4588633,32.0092504 26.4074887,32.0098399 23.3561487,32.0098052 C23.1964918,32.0098052 23.0368349,32.0098052 22.8405582,32.0098052 C22.8808192,31.875914 22.9074865,31.7613036 22.9492386,31.6524845 C23.3120384,30.7070619 23.7458239,29.7947566 24.2618305,28.923718 C24.7504416,28.0989397 25.2986986,27.3151159 25.906775,26.5721426 C26.6620936,25.6492606 27.4965817,24.8054095 28.4088176,24.0398609 C29.6523311,22.9963 31.0052534,22.1213774 32.4701851,21.4163418 C33.6186466,20.863646 34.8063288,20.4217113 36.0387107,20.1045475 C37.1524597,19.817935 38.2833396,19.6330326 39.4335696,19.5513662 C40.4850719,19.4767394 41.5327248,19.4925525 42.5831867,19.5523372 C44.2279231,19.6459327 45.8391261,19.9153798 47.4067043,20.4280573 C49.0239065,20.9569988 50.5124538,21.7320144 51.8637809,22.7677382 C52.1954746,23.0219269 52.1922496,23.0214761 52.0338758,23.3832009 C51.441023,24.7371288 50.850563,26.0920623 50.2582998,27.4462329 C49.7539796,28.5993066 49.2483416,29.7517561 48.74364,30.9046563 C48.6777174,31.055193 48.6140835,31.2067005 48.542335,31.3741946" id="Fill-10" fill="#FFFFFF"></path>
                </g>
            </g>
        </g>
    </g>
</svg>