<?xml version="1.0" encoding="UTF-8"?>
<svg width="62px" height="60px" viewBox="0 0 62 60" version="1.1" xmlns="http://www.w3.org/2000/svg" xmlns:xlink="http://www.w3.org/1999/xlink">
    <title>Group 19</title>
    <defs>
        <polygon id="path-1" points="0 0 59.5312542 0 59.5312542 48.5359872 0 48.5359872"></polygon>
        <polygon id="path-3" points="0 0 3.93914983 0 3.93914983 6.03114299 0 6.03114299"></polygon>
    </defs>
    <g id="Page-1" stroke="none" stroke-width="1" fill="none" fill-rule="evenodd">
        <g id="Service:-CYLINDER-TESTING" transform="translate(-1311, -1210)">
            <g id="Group-19" transform="translate(1311, 1210)">
                <g id="Group-3" transform="translate(0, 11.464)">
                    <mask id="mask-2" fill="white">
                        <use xlink:href="#path-1"></use>
                    </mask>
                    <g id="Clip-2"></g>
                    <path d="M33.0846807,24.6458454 L29.1149978,19.9069268 L36.1189304,12.9029942 L39.8097749,12.9029942 L39.8097749,17.9207512 L33.0846807,24.6458454 Z M12.2775805,45.452755 C11.4412559,46.2892702 10.9895491,46.2568693 10.8406955,46.2463867 C10.417959,46.2162729 9.88010394,45.8775881 9.24199666,45.2392902 C8.57129788,44.5685914 7.17596234,43.1732559 8.58692655,41.7619105 L15.6266907,34.7223369 L19.3175352,38.4129909 L12.2775805,45.452755 Z M2.76086225,17.0674638 L14.413372,5.41476338 L18.1042166,9.1054173 L17.585802,9.62402241 L6.96993069,20.2398938 L6.45151617,20.7581177 L2.76086225,17.0674638 Z M59.5312542,2.28712286 L59.5312542,0 L51.5693983,0 C51.2661639,0 50.9751275,0.120455137 50.7607098,0.335063499 L40.4799019,10.6158714 L35.6453054,10.6158714 C35.342071,10.6158714 35.0512252,10.7363265 34.8368074,10.9509349 L27.6407565,18.1469858 L27.2330769,17.6602098 L25.4798066,19.1287333 L32.502608,27.5127539 C32.524145,27.538484 32.5468257,27.5632612 32.5704593,27.5868948 C32.8786491,27.8950846 33.0499927,28.4274124 33.040463,29.0474133 C33.0286462,29.8097876 32.738944,30.5870282 32.3192569,30.9819381 C31.0794458,32.1481801 28.6394668,34.3565879 26.2297923,36.0431504 C23.1968768,38.1665534 22.2332357,38.0196057 22.1343176,37.9954003 L14.0920313,29.9533046 C12.7653094,28.6263921 12.824584,27.1811211 12.8819527,25.7834984 C12.8928165,25.5208605 12.9031086,25.2730888 12.9031086,25.0295102 C12.9031086,24.7262759 12.7826534,24.4354301 12.5682357,24.2210123 L9.39561508,21.0485823 L18.3943,12.0498974 L18.9127145,12.5679307 C19.7343634,13.3899608 20.9459667,14.2300973 23.7025216,14.2300973 C24.080278,14.2300973 24.4227747,14.226476 24.7363011,14.2230453 C26.8027166,14.2001741 27.1758988,14.1961716 28.201864,15.2219462 L29.8188599,13.6049504 C28.1130474,11.8989473 26.9761567,11.9117171 24.7115239,11.9359224 C24.4054306,11.9393531 24.0709389,11.9429744 23.7025216,11.9429744 C21.6904252,11.9429744 21.0100062,11.4310401 20.529901,10.9507443 L20.0114864,10.4325203 L20.529901,9.91410583 C20.9766523,9.46754509 20.9766523,8.74348011 20.529901,8.29691937 L15.2220606,2.98907899 C14.7756904,2.54232766 14.0512443,2.54232766 13.6048741,2.98907899 L0.334987262,16.2589658 C-0.111764071,16.705336 -0.111764071,17.429401 0.334987262,17.8759617 L5.64301824,23.1839927 C5.86620331,23.4073683 6.15895504,23.5188656 6.45151617,23.5188656 C6.7440773,23.5188656 7.03682903,23.4073683 7.2600141,23.1839927 L7.77823803,22.6655782 L10.6047407,25.4920808 C10.602263,25.5566921 10.5995947,25.6226374 10.5969264,25.6897264 C10.5340305,27.2207645 10.4389243,29.5345705 12.4748448,31.570491 L14.0095043,33.1051505 L6.96993069,40.1449146 C6.05908401,41.0553801 4.30028653,43.531953 7.62461961,46.8564767 C8.69270598,47.9245631 9.66339905,48.4555568 10.6790722,48.5276011 C10.7568344,48.5333189 10.834406,48.5359872 10.9115963,48.5359872 C11.9322249,48.5359872 12.9105417,48.0545479 13.8949575,47.0701321 L20.9877067,39.9773829 C21.3662255,40.1994244 21.7906774,40.2975801 22.2444807,40.2975801 C23.8006772,40.2973895 25.6888878,39.1763181 27.1438791,38.1907588 C29.7836001,36.402991 32.5012738,33.9506236 33.8861267,32.6477259 C34.7670502,31.8194062 35.3058582,30.4865854 35.3273953,29.0826731 C35.343024,28.0536584 35.0695222,27.1271831 34.5549195,26.4099795 L41.7620249,19.2032553 C41.9766332,18.988647 42.0968978,18.6979918 42.0968978,18.3945668 L42.0968978,12.2332484 L52.0430233,2.28712286 L59.5312542,2.28712286 Z" id="Fill-1" fill="#FFFFFF" mask="url(#mask-2)"></path>
                </g>
                <polygon id="Fill-4" fill="#FFFFFF" points="61.7889875 9.28895891 55.1538535 0 53.2927073 1.32919957 59.9276507 10.6183491"></polygon>
                <polygon id="Fill-6" fill="#FFFFFF" points="48.1068277 26.396028 49.7238236 28.0130239 52.3778391 25.359199 50.7608432 23.7420125"></polygon>
                <polygon id="Fill-8" fill="#FFFFFF" points="60.0498212 14.4530346 53.4146871 21.0881686 55.0318736 22.7051645 61.666817 16.0700304"></polygon>
                <polygon id="Fill-10" fill="#FFFFFF" points="55.792361 32.1508675 57.9622688 32.8741701 58.8468136 30.2197734 56.6770964 29.4964708"></polygon>
                <g id="Group-14" transform="translate(58.0041, 20.2079)">
                    <mask id="mask-4" fill="white">
                        <use xlink:href="#path-3"></use>
                    </mask>
                    <g id="Clip-13"></g>
                    <polygon id="Fill-12" fill="#FFFFFF" mask="url(#mask-4)" points="1.76928013 0 0 5.30784038 2.16990782 6.03114299 3.93918794 0.723302605"></polygon>
                </g>
                <polygon id="Fill-15" fill="#FFFFFF" points="56.0618794 7.60376867 50.7536578 4.94975318 49.7307421 6.99539399 55.0389637 9.64921888"></polygon>
                <polygon id="Fill-17" fill="#FFFFFF" points="46.7728442 2.95989911 42.7905821 0.96895866 41.7676664 3.01440887 45.7499285 5.00534933"></polygon>
            </g>
        </g>
    </g>
</svg>