<?xml version="1.0" encoding="UTF-8"?>
<svg width="62px" height="49px" viewBox="0 0 62 49" version="1.1" xmlns="http://www.w3.org/2000/svg" xmlns:xlink="http://www.w3.org/1999/xlink">
    <title>“ copy</title>
    <g id="Page-1" stroke="none" stroke-width="1" fill="none" fill-rule="evenodd">
        <g id="About-Us" transform="translate(-1475, -976)" fill="#FFFFFF" fill-rule="nonzero">
            <g id="“-copy" transform="translate(1506, 1000.5) scale(-1, -1) translate(-1506, -1000.5)translate(1475, 976)">
                <path d="M20.2331002,22.9147059 C22.6418026,23.9715686 24.5205905,25.5568627 25.8694639,27.6705882 C27.2183372,29.7843137 27.8927739,32.2823529 27.8927739,35.1647059 C27.8927739,39.2960784 26.5920746,42.6348039 23.990676,45.1808824 C21.3892774,47.7269608 18.0652681,49 14.018648,49 C9.97202797,49 6.62393162,47.7029412 3.97435897,45.1088235 C1.32478632,42.5147059 0,39.2 0,35.1647059 C0,33.2431373 0.240870241,31.3215686 0.722610723,29.4 C1.2043512,27.4784314 2.26418026,24.5960784 3.9020979,20.7529412 L12.2843823,0 L26.5920746,0 L20.2331002,22.9147059 Z M54.3403263,22.9147059 C56.7490287,23.9715686 58.6278166,25.5568627 59.97669,27.6705882 C61.3255633,29.7843137 62,32.2823529 62,35.1647059 C62,39.2960784 60.6993007,42.6348039 58.0979021,45.1808824 C55.4965035,47.7269608 52.1724942,49 48.1258741,49 C44.0792541,49 40.7311577,47.7029412 38.0815851,45.1088235 C35.4320124,42.5147059 34.1072261,39.2 34.1072261,35.1647059 C34.1072261,33.2431373 34.3480963,31.3215686 34.8298368,29.4 C35.3115773,27.4784314 36.3714064,24.5960784 38.009324,20.7529412 L46.3916084,0 L60.6993007,0 L54.3403263,22.9147059 Z" id="Shape"></path>
            </g>
        </g>
    </g>
</svg>